{
    "patcher": {
        "fileversion": 1,
        "appversion": {
            "major": 9,
            "minor": 1,
            "revision": 1,
            "architecture": "x64",
            "modernui": 1
        },
        "classnamespace": "box",
        "rect": [ 34.0, 96.0, 1444.0, 852.0 ],
        "title": "Composer Timeline",
        "boxes": [
            {
                "box": {
                    "color": [ 0.0, 0.047058823529411764, 1.0, 1.0 ],
                    "id": "obj-111",
                    "maxclass": "newobj",
                    "numinlets": 1,
                    "numoutlets": 4,
                    "outlettype": [ "", "", "", "" ],
                    "patching_rect": [ 39.0, 432.0, 65.0, 22.0 ],
                    "saved_object_attributes": {
                        "embed": 0,
                        "precision": 6
                    },
                    "text": "coll events"
                }
            },
            {
                "box": {
                    "id": "obj-110",
                    "maxclass": "newobj",
                    "numinlets": 4,
                    "numoutlets": 1,
                    "outlettype": [ "" ],
                    "patching_rect": [ 1070.5, 1060.0, 766.0, 22.0 ],
                    "text": "sprintf script newdefault event_%i 0 %i bpatcher timeline_event @args %i @clickthrough 1 @presentation 1 @presentation_rect 0. %i 248. 70."
                }
            },
            {
                "box": {
                    "id": "obj-104",
                    "maxclass": "button",
                    "numinlets": 1,
                    "numoutlets": 1,
                    "outlettype": [ "bang" ],
                    "parameter_enable": 0,
                    "patching_rect": [ 1121.0, 157.0, 24.0, 24.0 ]
                }
            },
            {
                "box": {
                    "id": "obj-102",
                    "maxclass": "newobj",
                    "numinlets": 2,
                    "numoutlets": 3,
                    "outlettype": [ "", "bang", "bang" ],
                    "patching_rect": [ 1121.0, 191.0, 471.0, 22.0 ],
                    "text": "dialog Save current composition before load? (Unsaved changes will be lost) @mode 4"
                }
            },
            {
                "box": {
                    "id": "obj-101",
                    "maxclass": "comment",
                    "numinlets": 1,
                    "numoutlets": 0,
                    "patching_rect": [ 897.0, 140.0, 118.0, 20.0 ],
                    "text": "clear current on load"
                }
            },
            {
                "box": {
                    "id": "obj-99",
                    "maxclass": "newobj",
                    "numinlets": 1,
                    "numoutlets": 2,
                    "outlettype": [ "", "int" ],
                    "patching_rect": [ 639.0, 191.0, 128.0, 22.0 ],
                    "text": "conformpath max boot"
                }
            },
            {
                "box": {
                    "bubble": 1,
                    "fontname": "Arial",
                    "fontsize": 13.0,
                    "id": "obj-92",
                    "maxclass": "comment",
                    "numinlets": 1,
                    "numoutlets": 0,
                    "patching_rect": [ 837.0, 54.0, 145.0, 25.0 ],
                    "text": "bang to open dialog"
                }
            },
            {
                "box": {
                    "fontname": "Arial",
                    "fontsize": 13.0,
                    "id": "obj-94",
                    "maxclass": "message",
                    "numinlets": 2,
                    "numoutlets": 1,
                    "outlettype": [ "" ],
                    "patching_rect": [ 564.0, 258.0, 530.0, 23.0 ],
                    "presentation_linecount": 2,
                    "text": "/Users/rhoy/Documents/PhD/VASE/lib/patches/mubu_player_module.maxpat"
                }
            },
            {
                "box": {
                    "id": "obj-95",
                    "maxclass": "button",
                    "numinlets": 1,
                    "numoutlets": 1,
                    "outlettype": [ "bang" ],
                    "parameter_enable": 0,
                    "patching_rect": [ 868.0, 140.0, 20.0, 20.0 ]
                }
            },
            {
                "box": {
                    "id": "obj-96",
                    "maxclass": "button",
                    "numinlets": 1,
                    "numoutlets": 1,
                    "outlettype": [ "bang" ],
                    "parameter_enable": 0,
                    "patching_rect": [ 807.0, 56.0, 20.0, 20.0 ]
                }
            },
            {
                "box": {
                    "fontname": "Arial",
                    "fontsize": 13.0,
                    "id": "obj-97",
                    "maxclass": "newobj",
                    "numinlets": 1,
                    "numoutlets": 2,
                    "outlettype": [ "", "bang" ],
                    "patching_rect": [ 807.0, 90.0, 80.0, 23.0 ],
                    "text": "opendialog"
                }
            },
            {
                "box": {
                    "id": "obj-89",
                    "maxclass": "message",
                    "numinlets": 2,
                    "numoutlets": 1,
                    "outlettype": [ "" ],
                    "patching_rect": [ 1620.0, 323.0, 50.0, 22.0 ],
                    "text": "bang"
                }
            },
            {
                "box": {
                    "id": "obj-87",
                    "maxclass": "message",
                    "numinlets": 2,
                    "numoutlets": 1,
                    "outlettype": [ "" ],
                    "patching_rect": [ 1431.0, 323.0, 50.0, 22.0 ]
                }
            },
            {
                "box": {
                    "id": "obj-85",
                    "maxclass": "message",
                    "numinlets": 2,
                    "numoutlets": 1,
                    "outlettype": [ "" ],
                    "patching_rect": [ 1242.0, 323.0, 50.0, 22.0 ],
                    "text": "bang"
                }
            },
            {
                "box": {
                    "id": "obj-83",
                    "maxclass": "newobj",
                    "numinlets": 2,
                    "numoutlets": 3,
                    "outlettype": [ "", "bang", "bang" ],
                    "patching_rect": [ 1273.0, 279.0, 397.0, 22.0 ],
                    "text": "dialog Are you sure you'd like to clear the current composition? @mode 4"
                }
            },
            {
                "box": {
                    "activebgcolor": [ 1.0, 0.349019607843137, 0.372549019607843, 1.0 ],
                    "activetextcolor": [ 0.079348079365577, 0.07934804057877, 0.079348050547289, 1.0 ],
                    "bgcolor": [ 0.0, 0.854901960784314, 0.282352941176471, 1.0 ],
                    "hint": "Remove receive channel strip.",
                    "id": "obj-80",
                    "maxclass": "live.text",
                    "mode": 0,
                    "numinlets": 1,
                    "numoutlets": 2,
                    "outlettype": [ "", "" ],
                    "parameter_enable": 1,
                    "patching_rect": [ 1273.0, 246.0, 44.0, 15.0 ],
                    "presentation": 1,
                    "presentation_rect": [ 904.0, 23.0, 44.0, 15.0 ],
                    "saved_attribute_attributes": {
                        "activebgcolor": {
                            "expression": "themecolor.live_record"
                        },
                        "activetextcolor": {
                            "expression": "themecolor.live_meter_bg"
                        },
                        "bgcolor": {
                            "expression": "themecolor.live_macro_assignment"
                        },
                        "valueof": {
                            "parameter_enum": [ "val1", "val2" ],
                            "parameter_longname": "live.text[1]",
                            "parameter_mmax": 1,
                            "parameter_modmode": 0,
                            "parameter_shortname": "live.text[13]",
                            "parameter_type": 2
                        }
                    },
                    "text": "Clear",
                    "texton": "Presets",
                    "varname": "live.text[1]"
                }
            },
            {
                "box": {
                    "id": "obj-79",
                    "maxclass": "comment",
                    "numinlets": 1,
                    "numoutlets": 0,
                    "patching_rect": [ 1377.0, 419.0, 101.0, 20.0 ],
                    "text": "number of events"
                }
            },
            {
                "box": {
                    "id": "obj-77",
                    "maxclass": "comment",
                    "numinlets": 1,
                    "numoutlets": 0,
                    "patching_rect": [ 33.5, 374.0, 57.0, 20.0 ],
                    "text": "Duration:"
                }
            },
            {
                "box": {
                    "fontsize": 14.41846153846154,
                    "id": "obj-75",
                    "linecount": 4,
                    "maxclass": "comment",
                    "numinlets": 1,
                    "numoutlets": 0,
                    "patching_rect": [ 944.0, 565.0, 263.0, 71.0 ],
                    "text": "account for window size to keep aspect ratio relative to max window size - for display and cursor. make sure zoom does not alter this"
                }
            },
            {
                "box": {
                    "id": "obj-73",
                    "linecount": 6,
                    "maxclass": "comment",
                    "numinlets": 1,
                    "numoutlets": 0,
                    "patching_rect": [ 1935.0, 455.0, 239.0, 87.0 ],
                    "text": "event numbers occur in order of spawn\n\nkeep track if deleting event, skip over in list of spawned\n\nkeep sorted list of times for event starts"
                }
            },
            {
                "box": {
                    "fontname": "Arial",
                    "fontsize": 11.595187,
                    "id": "obj-295",
                    "maxclass": "message",
                    "numinlets": 2,
                    "numoutlets": 1,
                    "outlettype": [ "" ],
                    "patching_rect": [ 2036.0, 1092.0, 75.0, 21.0 ],
                    "text": "window exec"
                }
            },
            {
                "box": {
                    "fontname": "Arial",
                    "fontsize": 11.595187,
                    "id": "obj-294",
                    "maxclass": "message",
                    "numinlets": 2,
                    "numoutlets": 1,
                    "outlettype": [ "" ],
                    "patching_rect": [ 2105.0, 1049.0, 103.0, 21.0 ],
                    "text": "window flags float"
                }
            },
            {
                "box": {
                    "id": "obj-992",
                    "maxclass": "message",
                    "numinlets": 2,
                    "numoutlets": 1,
                    "outlettype": [ "" ],
                    "patching_rect": [ 2065.0, 964.0, 45.0, 22.0 ],
                    "text": "wclose"
                }
            },
            {
                "box": {
                    "id": "obj-991",
                    "maxclass": "newobj",
                    "numinlets": 3,
                    "numoutlets": 3,
                    "outlettype": [ "bang", "bang", "" ],
                    "patching_rect": [ 2034.0, 907.0, 44.0, 22.0 ],
                    "text": "sel 1 0"
                }
            },
            {
                "box": {
                    "id": "obj-990",
                    "maxclass": "newobj",
                    "numinlets": 1,
                    "numoutlets": 0,
                    "patching_rect": [ 2126.0, 1138.0, 103.0, 22.0 ],
                    "text": "s timeline-closed"
                }
            },
            {
                "box": {
                    "id": "obj-989",
                    "maxclass": "newobj",
                    "numinlets": 1,
                    "numoutlets": 1,
                    "outlettype": [ "bang" ],
                    "patching_rect": [ 2126.0, 1105.0, 63.0, 22.0 ],
                    "text": "closebang"
                }
            },
            {
                "box": {
                    "id": "obj-988",
                    "maxclass": "message",
                    "numinlets": 2,
                    "numoutlets": 1,
                    "outlettype": [ "" ],
                    "patching_rect": [ 2017.0, 964.0, 33.0, 22.0 ],
                    "text": "front"
                }
            },
            {
                "box": {
                    "comment": "",
                    "id": "obj-986",
                    "index": 0,
                    "maxclass": "inlet",
                    "numinlets": 0,
                    "numoutlets": 1,
                    "outlettype": [ "" ],
                    "patching_rect": [ 2036.0, 861.0, 30.0, 30.0 ]
                }
            },
            {
                "box": {
                    "id": "obj-5124",
                    "maxclass": "newobj",
                    "numinlets": 1,
                    "numoutlets": 1,
                    "outlettype": [ "" ],
                    "patching_rect": [ 1797.0, 842.0, 189.0, 22.0 ],
                    "text": "loadmess title Composer Timeline"
                }
            },
            {
                "box": {
                    "id": "obj-54",
                    "maxclass": "newobj",
                    "numinlets": 4,
                    "numoutlets": 1,
                    "outlettype": [ "" ],
                    "patching_rect": [ 1074.6666666666667, 969.0, 771.0, 22.0 ],
                    "text": "sprintf script newdefault player_%i 0 %i bpatcher player_module @args %i @clickthrough 1 @presentation 1 @presentation_rect 0. %i 248. 70."
                }
            },
            {
                "box": {
                    "id": "obj-49",
                    "maxclass": "message",
                    "numinlets": 2,
                    "numoutlets": 1,
                    "outlettype": [ "" ],
                    "patching_rect": [ 1922.0, 670.0, 38.0, 22.0 ],
                    "text": "event"
                }
            },
            {
                "box": {
                    "id": "obj-237",
                    "maxclass": "newobj",
                    "numinlets": 1,
                    "numoutlets": 1,
                    "outlettype": [ "" ],
                    "patching_rect": [ 1804.0, 670.0, 105.0, 22.0 ],
                    "text": "loadmess compile"
                }
            },
            {
                "box": {
                    "id": "obj-137",
                    "maxclass": "newobj",
                    "numinlets": 1,
                    "numoutlets": 1,
                    "outlettype": [ "" ],
                    "patching_rect": [ 1922.0, 725.0, 133.0, 22.0 ],
                    "text": "prepend deleteByPrefix"
                }
            },
            {
                "box": {
                    "filename": "prefix_scripting.js",
                    "id": "obj-72",
                    "maxclass": "newobj",
                    "numinlets": 1,
                    "numoutlets": 1,
                    "outlettype": [ "" ],
                    "patching_rect": [ 1922.0, 763.0, 117.0, 22.0 ],
                    "saved_object_attributes": {
                        "parameter_enable": 0
                    },
                    "text": "v8 prefix_scripting.js",
                    "textfile": {
                        "filename": "prefix_scripting.js",
                        "flags": 0,
                        "embed": 0,
                        "autowatch": 1
                    }
                }
            },
            {
                "box": {
                    "id": "obj-55",
                    "maxclass": "newobj",
                    "numinlets": 1,
                    "numoutlets": 2,
                    "outlettype": [ "bang", "bang" ],
                    "patching_rect": [ 1377.0, 463.0, 32.0, 22.0 ],
                    "text": "t b b"
                }
            },
            {
                "box": {
                    "fontsize": 13.773913043478261,
                    "id": "obj-107",
                    "maxclass": "newobj",
                    "numinlets": 0,
                    "numoutlets": 1,
                    "outlettype": [ "" ],
                    "patching_rect": [ 1734.0, 524.0, 90.0, 24.0 ],
                    "text": "r kill-modules"
                }
            },
            {
                "box": {
                    "id": "obj-173",
                    "maxclass": "comment",
                    "numinlets": 1,
                    "numoutlets": 0,
                    "patching_rect": [ 1767.0, 573.0, 111.0, 20.0 ],
                    "text": "Kill scripted objects"
                }
            },
            {
                "box": {
                    "bgcolor": [ 1.0, 0.0, 0.0, 1.0 ],
                    "id": "obj-56",
                    "maxclass": "button",
                    "numinlets": 1,
                    "numoutlets": 1,
                    "outlettype": [ "bang" ],
                    "parameter_enable": 0,
                    "patching_rect": [ 1734.0, 570.0, 24.0, 24.0 ]
                }
            },
            {
                "box": {
                    "id": "obj-57",
                    "maxclass": "newobj",
                    "numinlets": 1,
                    "numoutlets": 3,
                    "outlettype": [ "int", "int", "int" ],
                    "patching_rect": [ 1555.0, 474.0, 40.0, 22.0 ],
                    "text": "t i i i"
                }
            },
            {
                "box": {
                    "id": "obj-58",
                    "maxclass": "comment",
                    "numinlets": 1,
                    "numoutlets": 0,
                    "patching_rect": [ 1518.0, 573.0, 47.0, 20.0 ],
                    "text": "y offset"
                }
            },
            {
                "box": {
                    "format": 6,
                    "id": "obj-108",
                    "maxclass": "flonum",
                    "numinlets": 1,
                    "numoutlets": 2,
                    "outlettype": [ "", "bang" ],
                    "parameter_enable": 0,
                    "patching_rect": [ 1561.0, 669.0, 50.0, 22.0 ]
                }
            },
            {
                "box": {
                    "id": "obj-59",
                    "maxclass": "newobj",
                    "numinlets": 2,
                    "numoutlets": 1,
                    "outlettype": [ "int" ],
                    "patching_rect": [ 1596.0, 572.0, 29.5, 22.0 ],
                    "text": "- 1"
                }
            },
            {
                "box": {
                    "id": "obj-60",
                    "maxclass": "newobj",
                    "numinlets": 1,
                    "numoutlets": 2,
                    "outlettype": [ "int", "int" ],
                    "patching_rect": [ 1561.0, 526.0, 29.5, 22.0 ],
                    "text": "t i i"
                }
            },
            {
                "box": {
                    "id": "obj-62",
                    "maxclass": "newobj",
                    "numinlets": 2,
                    "numoutlets": 1,
                    "outlettype": [ "int" ],
                    "patching_rect": [ 1561.0, 606.0, 29.5, 22.0 ],
                    "text": "* 0"
                }
            },
            {
                "box": {
                    "id": "obj-63",
                    "maxclass": "message",
                    "numinlets": 2,
                    "numoutlets": 1,
                    "outlettype": [ "" ],
                    "patching_rect": [ 1561.0, 572.0, 29.5, 22.0 ],
                    "text": "75."
                }
            },
            {
                "box": {
                    "id": "obj-64",
                    "maxclass": "number",
                    "numinlets": 1,
                    "numoutlets": 2,
                    "outlettype": [ "", "bang" ],
                    "parameter_enable": 0,
                    "patching_rect": [ 1377.0, 552.0, 50.0, 22.0 ]
                }
            },
            {
                "box": {
                    "bgcolor": [ 0.003921568627451, 1.0, 0.090196078431373, 1.0 ],
                    "blinkcolor": [ 1.0, 0.933333333333333, 0.0, 1.0 ],
                    "id": "obj-65",
                    "maxclass": "button",
                    "numinlets": 1,
                    "numoutlets": 1,
                    "outlettype": [ "bang" ],
                    "parameter_enable": 0,
                    "patching_rect": [ 1377.0, 496.0, 24.0, 24.0 ]
                }
            },
            {
                "box": {
                    "id": "obj-67",
                    "maxclass": "newobj",
                    "numinlets": 1,
                    "numoutlets": 2,
                    "outlettype": [ "bang", "int" ],
                    "patching_rect": [ 1377.0, 578.0, 29.5, 22.0 ],
                    "text": "t b i"
                }
            },
            {
                "box": {
                    "id": "obj-68",
                    "maxclass": "newobj",
                    "numinlets": 1,
                    "numoutlets": 1,
                    "outlettype": [ "" ],
                    "patching_rect": [ 1377.0, 526.0, 84.0, 22.0 ],
                    "text": "v player-count"
                }
            },
            {
                "box": {
                    "id": "obj-69",
                    "maxclass": "newobj",
                    "numinlets": 2,
                    "numoutlets": 3,
                    "outlettype": [ "bang", "bang", "int" ],
                    "patching_rect": [ 1377.0, 606.0, 40.0, 22.0 ],
                    "text": "uzi"
                }
            },
            {
                "box": {
                    "id": "obj-70",
                    "maxclass": "newobj",
                    "numinlets": 1,
                    "numoutlets": 2,
                    "outlettype": [ "", "" ],
                    "patching_rect": [ 1701.0, 901.0, 67.0, 22.0 ],
                    "save": [ "#N", "thispatcher", ";", "#Q", "end", ";" ],
                    "text": "thispatcher"
                }
            },
            {
                "box": {
                    "id": "obj-50",
                    "maxclass": "comment",
                    "numinlets": 1,
                    "numoutlets": 0,
                    "patching_rect": [ 913.0, 854.0, 178.0, 20.0 ],
                    "text": "on mouse release, spawn event"
                }
            },
            {
                "box": {
                    "id": "obj-48",
                    "maxclass": "button",
                    "numinlets": 1,
                    "numoutlets": 1,
                    "outlettype": [ "bang" ],
                    "parameter_enable": 0,
                    "patching_rect": [ 881.0, 852.0, 24.0, 24.0 ]
                }
            },
            {
                "box": {
                    "id": "obj-46",
                    "maxclass": "newobj",
                    "numinlets": 1,
                    "numoutlets": 3,
                    "outlettype": [ "", "int", "int" ],
                    "patching_rect": [ 881.0, 792.0, 58.0, 22.0 ],
                    "text": "change 0"
                }
            },
            {
                "box": {
                    "id": "obj-45",
                    "maxclass": "newobj",
                    "numinlets": 2,
                    "numoutlets": 2,
                    "outlettype": [ "bang", "" ],
                    "patching_rect": [ 881.0, 820.0, 34.0, 22.0 ],
                    "text": "sel 0"
                }
            },
            {
                "box": {
                    "id": "obj-44",
                    "linecount": 2,
                    "maxclass": "comment",
                    "numinlets": 1,
                    "numoutlets": 0,
                    "patching_rect": [ 1157.0, 79.0, 150.0, 33.0 ],
                    "text": "Build XML which outlines full composition"
                }
            },
            {
                "box": {
                    "activebgcolor": [ 0.0, 0.854901960784314, 0.282352941176471, 1.0 ],
                    "activetextcolor": [ 0.079348079365577, 0.07934804057877, 0.079348050547289, 1.0 ],
                    "annotation": "",
                    "bgcolor": [ 0.0, 0.854901960784314, 0.282352941176471, 1.0 ],
                    "hint": "Add external receive channel strip to receive signals from other patchers in Max.",
                    "id": "obj-52",
                    "maxclass": "live.text",
                    "mode": 0,
                    "numinlets": 1,
                    "numoutlets": 2,
                    "outlettype": [ "", "" ],
                    "parameter_enable": 1,
                    "patching_rect": [ 807.0, 21.0, 44.0, 15.0 ],
                    "presentation": 1,
                    "presentation_rect": [ 58.0, 9.0, 44.0, 15.0 ],
                    "saved_attribute_attributes": {
                        "activebgcolor": {
                            "expression": "themecolor.live_macro_assignment"
                        },
                        "activetextcolor": {
                            "expression": "themecolor.live_meter_bg"
                        },
                        "bgcolor": {
                            "expression": "themecolor.live_macro_assignment"
                        },
                        "valueof": {
                            "parameter_enum": [ "val1", "val2" ],
                            "parameter_longname": "live.text[47]",
                            "parameter_mmax": 1,
                            "parameter_modmode": 0,
                            "parameter_shortname": "live.text[13]",
                            "parameter_type": 2
                        }
                    },
                    "text": "Load",
                    "texton": "Presets",
                    "varname": "live.text[4]"
                }
            },
            {
                "box": {
                    "id": "obj-36",
                    "linecount": 2,
                    "maxclass": "comment",
                    "numinlets": 1,
                    "numoutlets": 0,
                    "patching_rect": [ 913.0, 12.0, 281.0, 33.0 ],
                    "text": "This patch creates subpatchers for composition events and can load previous compositions"
                }
            },
            {
                "box": {
                    "id": "obj-43",
                    "maxclass": "newobj",
                    "numinlets": 1,
                    "numoutlets": 1,
                    "outlettype": [ "" ],
                    "patching_rect": [ 753.0, 598.0, 70.0, 22.0 ],
                    "text": "loadmess 1"
                }
            },
            {
                "box": {
                    "id": "obj-42",
                    "maxclass": "newobj",
                    "numinlets": 2,
                    "numoutlets": 2,
                    "outlettype": [ "float", "int" ],
                    "patching_rect": [ 786.0, 634.0, 74.0, 22.0 ],
                    "text": "maximum 0."
                }
            },
            {
                "box": {
                    "id": "obj-40",
                    "maxclass": "newobj",
                    "numinlets": 1,
                    "numoutlets": 1,
                    "outlettype": [ "" ],
                    "patching_rect": [ 786.0, 670.0, 332.0, 22.0 ],
                    "text": "sprintf script sendbox cursor presentation_rect %f 100. 4. 30."
                }
            },
            {
                "box": {
                    "id": "obj-38",
                    "maxclass": "toggle",
                    "numinlets": 1,
                    "numoutlets": 1,
                    "outlettype": [ "int" ],
                    "parameter_enable": 0,
                    "patching_rect": [ 753.0, 669.0, 24.0, 24.0 ]
                }
            },
            {
                "box": {
                    "id": "obj-34",
                    "maxclass": "newobj",
                    "numinlets": 2,
                    "numoutlets": 1,
                    "outlettype": [ "" ],
                    "patching_rect": [ 753.0, 709.0, 52.0, 22.0 ],
                    "text": "gate 1 0"
                }
            },
            {
                "box": {
                    "id": "obj-27",
                    "maxclass": "newobj",
                    "numinlets": 1,
                    "numoutlets": 2,
                    "outlettype": [ "", "" ],
                    "patching_rect": [ 753.0, 746.0, 67.0, 22.0 ],
                    "save": [ "#N", "thispatcher", ";", "#Q", "end", ";" ],
                    "text": "thispatcher"
                }
            },
            {
                "box": {
                    "fontname": "Arial",
                    "fontsize": 13.0,
                    "id": "obj-39",
                    "maxclass": "comment",
                    "numinlets": 1,
                    "numoutlets": 0,
                    "patching_rect": [ 533.0, 808.0, 181.0, 21.0 ],
                    "style": "helpfile_label",
                    "text": "Wheel Flags (smooth, inertial)"
                }
            },
            {
                "box": {
                    "fontname": "Arial",
                    "fontsize": 13.0,
                    "id": "obj-35",
                    "linecount": 2,
                    "maxclass": "comment",
                    "numinlets": 1,
                    "numoutlets": 0,
                    "patching_rect": [ 417.0, 808.0, 50.0, 36.0 ],
                    "style": "helpfile_label",
                    "text": "Wheel DeltaX"
                }
            },
            {
                "box": {
                    "fontname": "Arial",
                    "fontsize": 13.0,
                    "id": "obj-37",
                    "linecount": 2,
                    "maxclass": "comment",
                    "numinlets": 1,
                    "numoutlets": 0,
                    "patching_rect": [ 474.0, 808.0, 50.5, 36.0 ],
                    "style": "helpfile_label",
                    "text": "Wheel DeltaY"
                }
            },
            {
                "box": {
                    "format": 6,
                    "id": "obj-16",
                    "maxclass": "flonum",
                    "numinlets": 1,
                    "numoutlets": 2,
                    "outlettype": [ "", "bang" ],
                    "parameter_enable": 0,
                    "patching_rect": [ 473.0, 782.0, 50.0, 22.0 ]
                }
            },
            {
                "box": {
                    "format": 6,
                    "id": "obj-33",
                    "maxclass": "flonum",
                    "numinlets": 1,
                    "numoutlets": 2,
                    "outlettype": [ "", "bang" ],
                    "parameter_enable": 0,
                    "patching_rect": [ 417.0, 782.0, 50.0, 22.0 ]
                }
            },
            {
                "box": {
                    "id": "obj-28",
                    "maxclass": "message",
                    "numinlets": 2,
                    "numoutlets": 1,
                    "outlettype": [ "" ],
                    "patching_rect": [ 535.0, 782.0, 46.0, 22.0 ],
                    "text": "0 0"
                }
            },
            {
                "box": {
                    "fontname": "Arial",
                    "fontsize": 13.0,
                    "id": "obj-17",
                    "linecount": 2,
                    "maxclass": "comment",
                    "numinlets": 1,
                    "numoutlets": 0,
                    "patching_rect": [ 358.0, 808.0, 50.0, 36.0 ],
                    "style": "helpfile_label",
                    "text": "Right Button"
                }
            },
            {
                "box": {
                    "id": "obj-18",
                    "maxclass": "toggle",
                    "numinlets": 1,
                    "numoutlets": 1,
                    "outlettype": [ "int" ],
                    "parameter_enable": 0,
                    "patching_rect": [ 362.0, 784.0, 20.0, 20.0 ]
                }
            },
            {
                "box": {
                    "fontname": "Arial",
                    "fontsize": 13.0,
                    "id": "obj-1",
                    "linecount": 2,
                    "maxclass": "comment",
                    "numinlets": 1,
                    "numoutlets": 0,
                    "patching_rect": [ 303.0, 808.0, 50.0, 36.0 ],
                    "style": "helpfile_label",
                    "text": "Middle Button"
                }
            },
            {
                "box": {
                    "id": "obj-7",
                    "maxclass": "toggle",
                    "numinlets": 1,
                    "numoutlets": 1,
                    "outlettype": [ "int" ],
                    "parameter_enable": 0,
                    "patching_rect": [ 307.0, 784.0, 20.0, 20.0 ]
                }
            },
            {
                "box": {
                    "bubble": 1,
                    "fontname": "Arial",
                    "fontsize": 13.0,
                    "id": "obj-15",
                    "maxclass": "comment",
                    "numinlets": 1,
                    "numoutlets": 0,
                    "patching_rect": [ 161.0, 618.0, 320.0, 25.0 ],
                    "text": "resets to 0,0 point to its default (upper left corner)"
                }
            },
            {
                "box": {
                    "bubble": 1,
                    "fontname": "Arial",
                    "fontsize": 13.0,
                    "id": "obj-13",
                    "maxclass": "comment",
                    "numinlets": 1,
                    "numoutlets": 0,
                    "patching_rect": [ 145.0, 588.0, 378.0, 25.0 ],
                    "text": "set the 0,0 point from which to measure the mouse location"
                }
            },
            {
                "box": {
                    "fontname": "Arial",
                    "fontsize": 13.0,
                    "id": "obj-14",
                    "maxclass": "newobj",
                    "numinlets": 1,
                    "numoutlets": 1,
                    "outlettype": [ "bang" ],
                    "patching_rect": [ 29.0, 591.0, 66.0, 23.0 ],
                    "text": "loadbang"
                }
            },
            {
                "box": {
                    "fontname": "Arial",
                    "fontsize": 13.0,
                    "id": "obj-10",
                    "maxclass": "message",
                    "numinlets": 2,
                    "numoutlets": 1,
                    "outlettype": [ "" ],
                    "patching_rect": [ 29.0, 623.0, 32.5, 23.0 ],
                    "text": "poll"
                }
            },
            {
                "box": {
                    "bubble": 1,
                    "fontname": "Arial",
                    "fontsize": 13.0,
                    "id": "obj-6",
                    "maxclass": "comment",
                    "numinlets": 1,
                    "numoutlets": 0,
                    "patching_rect": [ 234.0, 707.0, 291.0, 25.0 ],
                    "text": " mouse position relative to frontmost patcher"
                }
            },
            {
                "box": {
                    "bubble": 1,
                    "fontname": "Arial",
                    "fontsize": 13.0,
                    "id": "obj-3",
                    "maxclass": "comment",
                    "numinlets": 1,
                    "numoutlets": 0,
                    "patching_rect": [ 209.0, 677.0, 310.0, 25.0 ],
                    "text": "mouse position relative to mousestate's patcher"
                }
            },
            {
                "box": {
                    "bubble": 1,
                    "fontname": "Arial",
                    "fontsize": 13.0,
                    "id": "obj-4",
                    "maxclass": "comment",
                    "numinlets": 1,
                    "numoutlets": 0,
                    "patching_rect": [ 182.0, 648.0, 223.0, 25.0 ],
                    "text": "mouse position relative to screen"
                }
            },
            {
                "box": {
                    "fontname": "Arial",
                    "fontsize": 13.0,
                    "id": "obj-5",
                    "maxclass": "message",
                    "numinlets": 2,
                    "numoutlets": 1,
                    "outlettype": [ "" ],
                    "patching_rect": [ 173.0, 709.0, 56.0, 23.0 ],
                    "text": "mode 2"
                }
            },
            {
                "box": {
                    "fontname": "Arial",
                    "fontsize": 13.0,
                    "id": "obj-8",
                    "maxclass": "message",
                    "numinlets": 2,
                    "numoutlets": 1,
                    "outlettype": [ "" ],
                    "patching_rect": [ 145.0, 677.0, 55.0, 23.0 ],
                    "text": "mode 1"
                }
            },
            {
                "box": {
                    "fontname": "Arial",
                    "fontsize": 13.0,
                    "id": "obj-9",
                    "maxclass": "message",
                    "numinlets": 2,
                    "numoutlets": 1,
                    "outlettype": [ "" ],
                    "patching_rect": [ 118.0, 648.0, 55.0, 23.0 ],
                    "text": "mode 0"
                }
            },
            {
                "box": {
                    "fontname": "Arial",
                    "fontsize": 13.0,
                    "id": "obj-11",
                    "maxclass": "message",
                    "numinlets": 2,
                    "numoutlets": 1,
                    "outlettype": [ "" ],
                    "patching_rect": [ 99.0, 591.0, 37.0, 23.0 ],
                    "text": "zero"
                }
            },
            {
                "box": {
                    "fontname": "Arial",
                    "fontsize": 13.0,
                    "id": "obj-12",
                    "maxclass": "message",
                    "numinlets": 2,
                    "numoutlets": 1,
                    "outlettype": [ "" ],
                    "patching_rect": [ 111.0, 621.0, 40.0, 23.0 ],
                    "text": "reset"
                }
            },
            {
                "box": {
                    "fontname": "Arial",
                    "fontsize": 13.0,
                    "id": "obj-19",
                    "linecount": 2,
                    "maxclass": "comment",
                    "numinlets": 1,
                    "numoutlets": 0,
                    "patching_rect": [ 192.0, 806.0, 50.0, 36.0 ],
                    "style": "helpfile_label",
                    "text": "Hor. Delta"
                }
            },
            {
                "box": {
                    "fontname": "Arial",
                    "fontsize": 13.0,
                    "id": "obj-20",
                    "linecount": 2,
                    "maxclass": "comment",
                    "numinlets": 1,
                    "numoutlets": 0,
                    "patching_rect": [ 136.0, 806.0, 56.0, 36.0 ],
                    "style": "helpfile_label",
                    "text": "Ver. Position"
                }
            },
            {
                "box": {
                    "fontname": "Arial",
                    "fontsize": 13.0,
                    "id": "obj-21",
                    "linecount": 2,
                    "maxclass": "comment",
                    "numinlets": 1,
                    "numoutlets": 0,
                    "patching_rect": [ 82.0, 806.0, 56.0, 36.0 ],
                    "style": "helpfile_label",
                    "text": "Hor. Position"
                }
            },
            {
                "box": {
                    "fontname": "Arial",
                    "fontsize": 13.0,
                    "id": "obj-22",
                    "linecount": 2,
                    "maxclass": "comment",
                    "numinlets": 1,
                    "numoutlets": 0,
                    "patching_rect": [ 25.0, 806.0, 47.0, 36.0 ],
                    "style": "helpfile_label",
                    "text": "Left Button"
                }
            },
            {
                "box": {
                    "id": "obj-23",
                    "maxclass": "toggle",
                    "numinlets": 1,
                    "numoutlets": 1,
                    "outlettype": [ "int" ],
                    "parameter_enable": 0,
                    "patching_rect": [ 29.0, 782.0, 20.0, 20.0 ]
                }
            },
            {
                "box": {
                    "fontname": "Arial",
                    "fontsize": 13.0,
                    "id": "obj-24",
                    "maxclass": "number",
                    "numinlets": 1,
                    "numoutlets": 2,
                    "outlettype": [ "", "bang" ],
                    "parameter_enable": 0,
                    "patching_rect": [ 196.0, 782.0, 43.0, 23.0 ]
                }
            },
            {
                "box": {
                    "fontname": "Arial",
                    "fontsize": 13.0,
                    "id": "obj-25",
                    "maxclass": "number",
                    "numinlets": 1,
                    "numoutlets": 2,
                    "outlettype": [ "", "bang" ],
                    "parameter_enable": 0,
                    "patching_rect": [ 140.0, 782.0, 43.0, 23.0 ]
                }
            },
            {
                "box": {
                    "fontname": "Arial",
                    "fontsize": 13.0,
                    "id": "obj-26",
                    "maxclass": "number",
                    "numinlets": 1,
                    "numoutlets": 2,
                    "outlettype": [ "", "bang" ],
                    "parameter_enable": 0,
                    "patching_rect": [ 86.0, 782.0, 43.0, 23.0 ]
                }
            },
            {
                "box": {
                    "fontname": "Arial",
                    "fontsize": 13.0,
                    "id": "obj-29",
                    "maxclass": "number",
                    "numinlets": 1,
                    "numoutlets": 2,
                    "outlettype": [ "", "bang" ],
                    "parameter_enable": 0,
                    "patching_rect": [ 251.0, 782.0, 43.0, 23.0 ]
                }
            },
            {
                "box": {
                    "fontname": "Arial",
                    "fontsize": 13.0,
                    "id": "obj-30",
                    "linecount": 2,
                    "maxclass": "comment",
                    "numinlets": 1,
                    "numoutlets": 0,
                    "patching_rect": [ 247.0, 806.0, 47.0, 36.0 ],
                    "style": "helpfile_label",
                    "text": "Ver. Delta"
                }
            },
            {
                "box": {
                    "fontname": "Arial",
                    "fontsize": 13.0,
                    "id": "obj-31",
                    "maxclass": "newobj",
                    "numinlets": 1,
                    "numoutlets": 10,
                    "outlettype": [ "int", "int", "int", "int", "int", "int", "int", "float", "float", "list" ],
                    "patching_rect": [ 29.0, 745.0, 518.0, 23.0 ],
                    "text": "mousestate"
                }
            },
            {
                "box": {
                    "angle": 270.0,
                    "border": 1,
                    "bordercolor": [ 0.9490196078431372, 0.9529411764705882, 0.6196078431372549, 1.0 ],
                    "grad1": [ 0.172137149796092, 0.172137100044002, 0.172137113045018, 0.0 ],
                    "grad2": [ 0.172137149796092, 0.172137100044002, 0.172137113045018, 1.0 ],
                    "id": "obj-32",
                    "maxclass": "panel",
                    "mode": 1,
                    "numinlets": 1,
                    "numoutlets": 0,
                    "patching_rect": [ 908.0, 626.0, 4.0, 30.0 ],
                    "presentation": 1,
                    "presentation_rect": [ 509.0, 100.0, 4.0, 30.0 ],
                    "proportion": 0.5,
                    "rounded": 0,
                    "varname": "cursor"
                }
            }
        ],
        "lines": [
            {
                "patchline": {
                    "destination": [ "obj-31", 0 ],
                    "midpoints": [ 38.5, 649.0, 38.5, 649.0 ],
                    "source": [ "obj-10", 0 ]
                }
            },
            {
                "patchline": {
                    "destination": [ "obj-102", 0 ],
                    "source": [ "obj-104", 0 ]
                }
            },
            {
                "patchline": {
                    "destination": [ "obj-56", 0 ],
                    "source": [ "obj-107", 0 ]
                }
            },
            {
                "patchline": {
                    "destination": [ "obj-54", 3 ],
                    "order": 0,
                    "source": [ "obj-108", 0 ]
                }
            },
            {
                "patchline": {
                    "destination": [ "obj-54", 1 ],
                    "order": 1,
                    "source": [ "obj-108", 0 ]
                }
            },
            {
                "patchline": {
                    "destination": [ "obj-31", 0 ],
                    "midpoints": [ 108.5, 616.0, 96.0, 616.0, 96.0, 730.0, 38.5, 730.0 ],
                    "source": [ "obj-11", 0 ]
                }
            },
            {
                "patchline": {
                    "destination": [ "obj-31", 0 ],
                    "midpoints": [ 120.5, 646.0, 72.0, 646.0, 72.0, 730.0, 38.5, 730.0 ],
                    "source": [ "obj-12", 0 ]
                }
            },
            {
                "patchline": {
                    "destination": [ "obj-72", 0 ],
                    "source": [ "obj-137", 0 ]
                }
            },
            {
                "patchline": {
                    "destination": [ "obj-10", 0 ],
                    "midpoints": [ 38.5, 616.0, 38.5, 616.0 ],
                    "order": 1,
                    "source": [ "obj-14", 0 ]
                }
            },
            {
                "patchline": {
                    "destination": [ "obj-8", 0 ],
                    "order": 0,
                    "source": [ "obj-14", 0 ]
                }
            },
            {
                "patchline": {
                    "destination": [ "obj-46", 0 ],
                    "source": [ "obj-23", 0 ]
                }
            },
            {
                "patchline": {
                    "destination": [ "obj-72", 0 ],
                    "source": [ "obj-237", 0 ]
                }
            },
            {
                "patchline": {
                    "destination": [ "obj-42", 0 ],
                    "source": [ "obj-26", 0 ]
                }
            },
            {
                "patchline": {
                    "destination": [ "obj-70", 0 ],
                    "source": [ "obj-294", 0 ]
                }
            },
            {
                "patchline": {
                    "destination": [ "obj-70", 0 ],
                    "source": [ "obj-295", 0 ]
                }
            },
            {
                "patchline": {
                    "destination": [ "obj-16", 0 ],
                    "source": [ "obj-31", 8 ]
                }
            },
            {
                "patchline": {
                    "destination": [ "obj-18", 0 ],
                    "source": [ "obj-31", 6 ]
                }
            },
            {
                "patchline": {
                    "destination": [ "obj-23", 0 ],
                    "midpoints": [ 38.5, 769.0, 38.5, 769.0 ],
                    "source": [ "obj-31", 0 ]
                }
            },
            {
                "patchline": {
                    "destination": [ "obj-24", 0 ],
                    "midpoints": [ 204.83333333333334, 769.0, 205.5, 769.0 ],
                    "source": [ "obj-31", 3 ]
                }
            },
            {
                "patchline": {
                    "destination": [ "obj-25", 0 ],
                    "midpoints": [ 149.38888888888889, 769.0, 149.5, 769.0 ],
                    "source": [ "obj-31", 2 ]
                }
            },
            {
                "patchline": {
                    "destination": [ "obj-26", 0 ],
                    "midpoints": [ 93.94444444444444, 769.0, 95.5, 769.0 ],
                    "source": [ "obj-31", 1 ]
                }
            },
            {
                "patchline": {
                    "destination": [ "obj-28", 1 ],
                    "source": [ "obj-31", 9 ]
                }
            },
            {
                "patchline": {
                    "destination": [ "obj-29", 0 ],
                    "midpoints": [ 260.27777777777777, 769.0, 260.5, 769.0 ],
                    "source": [ "obj-31", 4 ]
                }
            },
            {
                "patchline": {
                    "destination": [ "obj-33", 0 ],
                    "source": [ "obj-31", 7 ]
                }
            },
            {
                "patchline": {
                    "destination": [ "obj-7", 0 ],
                    "source": [ "obj-31", 5 ]
                }
            },
            {
                "patchline": {
                    "destination": [ "obj-27", 0 ],
                    "source": [ "obj-34", 0 ]
                }
            },
            {
                "patchline": {
                    "destination": [ "obj-34", 0 ],
                    "source": [ "obj-38", 0 ]
                }
            },
            {
                "patchline": {
                    "destination": [ "obj-34", 1 ],
                    "source": [ "obj-40", 0 ]
                }
            },
            {
                "patchline": {
                    "destination": [ "obj-40", 0 ],
                    "source": [ "obj-42", 0 ]
                }
            },
            {
                "patchline": {
                    "destination": [ "obj-38", 0 ],
                    "source": [ "obj-43", 0 ]
                }
            },
            {
                "patchline": {
                    "destination": [ "obj-48", 0 ],
                    "source": [ "obj-45", 0 ]
                }
            },
            {
                "patchline": {
                    "destination": [ "obj-45", 0 ],
                    "source": [ "obj-46", 0 ]
                }
            },
            {
                "patchline": {
                    "destination": [ "obj-137", 0 ],
                    "source": [ "obj-49", 0 ]
                }
            },
            {
                "patchline": {
                    "destination": [ "obj-31", 0 ],
                    "midpoints": [ 182.5, 733.0, 39.0, 733.0, 39.0, 739.0, 38.5, 739.0 ],
                    "source": [ "obj-5", 0 ]
                }
            },
            {
                "patchline": {
                    "destination": [ "obj-70", 0 ],
                    "source": [ "obj-5124", 0 ]
                }
            },
            {
                "patchline": {
                    "destination": [ "obj-96", 0 ],
                    "source": [ "obj-52", 0 ]
                }
            },
            {
                "patchline": {
                    "destination": [ "obj-70", 0 ],
                    "source": [ "obj-54", 0 ]
                }
            },
            {
                "patchline": {
                    "destination": [ "obj-56", 0 ],
                    "source": [ "obj-55", 1 ]
                }
            },
            {
                "patchline": {
                    "destination": [ "obj-65", 0 ],
                    "source": [ "obj-55", 0 ]
                }
            },
            {
                "patchline": {
                    "destination": [ "obj-49", 0 ],
                    "source": [ "obj-56", 0 ]
                }
            },
            {
                "patchline": {
                    "destination": [ "obj-54", 2 ],
                    "source": [ "obj-57", 2 ]
                }
            },
            {
                "patchline": {
                    "destination": [ "obj-54", 0 ],
                    "source": [ "obj-57", 0 ]
                }
            },
            {
                "patchline": {
                    "destination": [ "obj-60", 0 ],
                    "source": [ "obj-57", 1 ]
                }
            },
            {
                "patchline": {
                    "destination": [ "obj-62", 1 ],
                    "source": [ "obj-59", 0 ]
                }
            },
            {
                "patchline": {
                    "destination": [ "obj-59", 0 ],
                    "source": [ "obj-60", 1 ]
                }
            },
            {
                "patchline": {
                    "destination": [ "obj-63", 0 ],
                    "source": [ "obj-60", 0 ]
                }
            },
            {
                "patchline": {
                    "destination": [ "obj-108", 0 ],
                    "source": [ "obj-62", 0 ]
                }
            },
            {
                "patchline": {
                    "destination": [ "obj-62", 0 ],
                    "source": [ "obj-63", 0 ]
                }
            },
            {
                "patchline": {
                    "destination": [ "obj-67", 0 ],
                    "source": [ "obj-64", 0 ]
                }
            },
            {
                "patchline": {
                    "destination": [ "obj-68", 0 ],
                    "source": [ "obj-65", 0 ]
                }
            },
            {
                "patchline": {
                    "destination": [ "obj-69", 1 ],
                    "source": [ "obj-67", 1 ]
                }
            },
            {
                "patchline": {
                    "destination": [ "obj-69", 0 ],
                    "source": [ "obj-67", 0 ]
                }
            },
            {
                "patchline": {
                    "destination": [ "obj-64", 0 ],
                    "source": [ "obj-68", 0 ]
                }
            },
            {
                "patchline": {
                    "destination": [ "obj-57", 0 ],
                    "source": [ "obj-69", 2 ]
                }
            },
            {
                "patchline": {
                    "destination": [ "obj-31", 0 ],
                    "midpoints": [ 154.5, 730.0, 38.5, 730.0 ],
                    "source": [ "obj-8", 0 ]
                }
            },
            {
                "patchline": {
                    "destination": [ "obj-83", 0 ],
                    "source": [ "obj-80", 0 ]
                }
            },
            {
                "patchline": {
                    "destination": [ "obj-56", 0 ],
                    "order": 0,
                    "source": [ "obj-83", 0 ]
                }
            },
            {
                "patchline": {
                    "destination": [ "obj-85", 1 ],
                    "order": 1,
                    "source": [ "obj-83", 0 ]
                }
            },
            {
                "patchline": {
                    "destination": [ "obj-87", 1 ],
                    "source": [ "obj-83", 1 ]
                }
            },
            {
                "patchline": {
                    "destination": [ "obj-89", 1 ],
                    "source": [ "obj-83", 2 ]
                }
            },
            {
                "patchline": {
                    "destination": [ "obj-31", 0 ],
                    "midpoints": [ 127.5, 730.0, 38.5, 730.0 ],
                    "source": [ "obj-9", 0 ]
                }
            },
            {
                "patchline": {
                    "destination": [ "obj-97", 0 ],
                    "source": [ "obj-96", 0 ]
                }
            },
            {
                "patchline": {
                    "destination": [ "obj-95", 0 ],
                    "source": [ "obj-97", 1 ]
                }
            },
            {
                "patchline": {
                    "destination": [ "obj-99", 0 ],
                    "source": [ "obj-97", 0 ]
                }
            },
            {
                "patchline": {
                    "destination": [ "obj-991", 0 ],
                    "source": [ "obj-986", 0 ]
                }
            },
            {
                "patchline": {
                    "destination": [ "obj-70", 0 ],
                    "source": [ "obj-988", 0 ]
                }
            },
            {
                "patchline": {
                    "destination": [ "obj-990", 0 ],
                    "source": [ "obj-989", 0 ]
                }
            },
            {
                "patchline": {
                    "destination": [ "obj-94", 1 ],
                    "midpoints": [ 648.5, 248.25, 1084.5, 248.25 ],
                    "source": [ "obj-99", 0 ]
                }
            },
            {
                "patchline": {
                    "destination": [ "obj-294", 0 ],
                    "order": 0,
                    "source": [ "obj-991", 0 ]
                }
            },
            {
                "patchline": {
                    "destination": [ "obj-295", 0 ],
                    "order": 1,
                    "source": [ "obj-991", 0 ]
                }
            },
            {
                "patchline": {
                    "destination": [ "obj-988", 0 ],
                    "order": 2,
                    "source": [ "obj-991", 0 ]
                }
            },
            {
                "patchline": {
                    "destination": [ "obj-992", 0 ],
                    "source": [ "obj-991", 1 ]
                }
            },
            {
                "patchline": {
                    "destination": [ "obj-70", 0 ],
                    "source": [ "obj-992", 0 ]
                }
            }
        ],
        "parameters": {
            "obj-52": [ "live.text[47]", "live.text[13]", 0 ],
            "obj-80": [ "live.text[1]", "live.text[13]", 0 ],
            "inherited_shortname": 1
        },
        "autosave": 0
    }
}