{
    "patcher": {
        "fileversion": 1,
        "appversion": {
            "major": 9,
            "minor": 1,
            "revision": 1,
            "architecture": "x64",
            "modernui": 1
        },
        "classnamespace": "box",
        "rect": [ 1180.0, 282.0, 1245.0, 830.0 ],
        "default_fontsize": 10.0,
        "subpatcher_template": "bigpatcher",
        "boxes": [
            {
                "box": {
                    "id": "obj-53",
                    "maxclass": "newobj",
                    "numinlets": 2,
                    "numoutlets": 1,
                    "outlettype": [ "signal" ],
                    "patching_rect": [ 785.4000120162964, 678.4000101089478, 29.5, 20.0 ],
                    "text": "*~"
                }
            },
            {
                "box": {
                    "id": "obj-50",
                    "maxclass": "newobj",
                    "numinlets": 1,
                    "numoutlets": 1,
                    "outlettype": [ "" ],
                    "patching_rect": [ 823.2000122666359, 549.6000081896782, 62.0, 20.0 ],
                    "text": "loadmess 0."
                }
            },
            {
                "box": {
                    "format": 6,
                    "id": "obj-51",
                    "maxclass": "flonum",
                    "numinlets": 1,
                    "numoutlets": 2,
                    "outlettype": [ "", "bang" ],
                    "parameter_enable": 0,
                    "patching_rect": [ 823.2000122666359, 580.0000086426735, 50.0, 20.0 ]
                }
            },
            {
                "box": {
                    "id": "obj-49",
                    "maxclass": "newobj",
                    "numinlets": 3,
                    "numoutlets": 1,
                    "outlettype": [ "signal" ],
                    "patching_rect": [ 785.4000120162964, 618.4000092148781, 40.0, 20.0 ],
                    "text": "lores~"
                }
            },
            {
                "box": {
                    "id": "obj-44",
                    "maxclass": "newobj",
                    "numinlets": 1,
                    "numoutlets": 1,
                    "outlettype": [ "" ],
                    "patcher": {
                        "fileversion": 1,
                        "appversion": {
                            "major": 9,
                            "minor": 1,
                            "revision": 1,
                            "architecture": "x64",
                            "modernui": 1
                        },
                        "classnamespace": "box",
                        "rect": [ 134.0, 159.0, 459.0, 461.0 ],
                        "default_fontsize": 10.0,
                        "subpatcher_template": "bigpatcher",
                        "boxes": [
                            {
                                "box": {
                                    "id": "obj-82",
                                    "maxclass": "newobj",
                                    "numinlets": 1,
                                    "numoutlets": 2,
                                    "outlettype": [ "bang", "float" ],
                                    "patching_rect": [ 166.0, 221.0, 29.5, 20.0 ],
                                    "text": "t b f"
                                }
                            },
                            {
                                "box": {
                                    "id": "obj-81",
                                    "maxclass": "newobj",
                                    "numinlets": 1,
                                    "numoutlets": 2,
                                    "outlettype": [ "bang", "float" ],
                                    "patching_rect": [ 208.0, 221.0, 29.5, 20.0 ],
                                    "text": "t b f"
                                }
                            },
                            {
                                "box": {
                                    "id": "obj-80",
                                    "maxclass": "newobj",
                                    "numinlets": 1,
                                    "numoutlets": 2,
                                    "outlettype": [ "bang", "float" ],
                                    "patching_rect": [ 259.0, 221.0, 29.5, 20.0 ],
                                    "text": "t b f"
                                }
                            },
                            {
                                "box": {
                                    "format": 6,
                                    "id": "obj-79",
                                    "maxclass": "flonum",
                                    "numinlets": 1,
                                    "numoutlets": 2,
                                    "outlettype": [ "", "bang" ],
                                    "parameter_enable": 0,
                                    "patching_rect": [ 135.0, 292.0, 50.0, 20.0 ]
                                }
                            },
                            {
                                "box": {
                                    "id": "obj-77",
                                    "maxclass": "newobj",
                                    "numinlets": 1,
                                    "numoutlets": 1,
                                    "outlettype": [ "" ],
                                    "patching_rect": [ 50.0, 100.0, 76.0, 20.0 ],
                                    "text": "loadmess 9001"
                                }
                            },
                            {
                                "box": {
                                    "id": "obj-76",
                                    "maxclass": "newobj",
                                    "numinlets": 1,
                                    "numoutlets": 1,
                                    "outlettype": [ "" ],
                                    "patching_rect": [ 135.0, 100.0, 76.0, 20.0 ],
                                    "text": "loadmess 2000"
                                }
                            },
                            {
                                "box": {
                                    "id": "obj-75",
                                    "maxclass": "newobj",
                                    "numinlets": 1,
                                    "numoutlets": 1,
                                    "outlettype": [ "" ],
                                    "patching_rect": [ 259.0, 125.0, 79.0, 20.0 ],
                                    "text": "loadmess 0.025"
                                }
                            },
                            {
                                "box": {
                                    "id": "obj-73",
                                    "maxclass": "comment",
                                    "numinlets": 1,
                                    "numoutlets": 0,
                                    "patching_rect": [ 310.0, 154.0, 74.0, 18.0 ],
                                    "text": "Slope (.3 to .5)"
                                }
                            },
                            {
                                "box": {
                                    "format": 6,
                                    "id": "obj-74",
                                    "maxclass": "flonum",
                                    "numinlets": 1,
                                    "numoutlets": 2,
                                    "outlettype": [ "", "bang" ],
                                    "parameter_enable": 0,
                                    "patching_rect": [ 259.0, 153.0, 50.0, 20.0 ]
                                }
                            },
                            {
                                "box": {
                                    "id": "obj-72",
                                    "maxclass": "newobj",
                                    "numinlets": 1,
                                    "numoutlets": 2,
                                    "outlettype": [ "bang", "float" ],
                                    "patching_rect": [ 97.0, 153.0, 29.5, 20.0 ],
                                    "text": "t b f"
                                }
                            },
                            {
                                "box": {
                                    "id": "obj-71",
                                    "maxclass": "newobj",
                                    "numinlets": 2,
                                    "numoutlets": 1,
                                    "outlettype": [ "float" ],
                                    "patching_rect": [ 97.0, 182.0, 29.5, 20.0 ],
                                    "text": "- 0."
                                }
                            },
                            {
                                "box": {
                                    "id": "obj-70",
                                    "maxclass": "comment",
                                    "numinlets": 1,
                                    "numoutlets": 0,
                                    "patching_rect": [ 310.0, 196.0, 47.0, 18.0 ],
                                    "text": "Distance"
                                }
                            },
                            {
                                "box": {
                                    "format": 6,
                                    "id": "obj-68",
                                    "maxclass": "flonum",
                                    "numinlets": 1,
                                    "numoutlets": 2,
                                    "outlettype": [ "", "bang" ],
                                    "parameter_enable": 0,
                                    "patching_rect": [ 259.0, 195.0, 50.0, 20.0 ]
                                }
                            },
                            {
                                "box": {
                                    "id": "obj-63",
                                    "maxclass": "comment",
                                    "numinlets": 1,
                                    "numoutlets": 0,
                                    "patching_rect": [ 197.0, 161.0, 52.0, 18.0 ],
                                    "text": "Freq High"
                                }
                            },
                            {
                                "box": {
                                    "format": 6,
                                    "id": "obj-64",
                                    "maxclass": "flonum",
                                    "numinlets": 1,
                                    "numoutlets": 2,
                                    "outlettype": [ "", "bang" ],
                                    "parameter_enable": 0,
                                    "patching_rect": [ 142.0, 160.0, 50.0, 20.0 ]
                                }
                            },
                            {
                                "box": {
                                    "id": "obj-62",
                                    "maxclass": "comment",
                                    "numinlets": 1,
                                    "numoutlets": 0,
                                    "patching_rect": [ 193.0, 129.0, 50.0, 18.0 ],
                                    "text": "Freq Low"
                                }
                            },
                            {
                                "box": {
                                    "format": 6,
                                    "id": "obj-60",
                                    "maxclass": "flonum",
                                    "numinlets": 1,
                                    "numoutlets": 2,
                                    "outlettype": [ "", "bang" ],
                                    "parameter_enable": 0,
                                    "patching_rect": [ 135.0, 128.0, 50.0, 20.0 ]
                                }
                            },
                            {
                                "box": {
                                    "id": "obj-58",
                                    "maxclass": "newobj",
                                    "numinlets": 4,
                                    "numoutlets": 1,
                                    "outlettype": [ "" ],
                                    "patching_rect": [ 135.0, 263.0, 149.0, 20.0 ],
                                    "text": "expr $f1 + ($f2 * exp(-$f3 * $f4))"
                                }
                            },
                            {
                                "box": {
                                    "id": "obj-50",
                                    "maxclass": "comment",
                                    "numinlets": 1,
                                    "numoutlets": 0,
                                    "patching_rect": [ 238.0, 101.0, 71.0, 18.0 ],
                                    "text": "Filter Params."
                                }
                            },
                            {
                                "box": {
                                    "comment": "",
                                    "id": "obj-59",
                                    "index": 1,
                                    "maxclass": "inlet",
                                    "numinlets": 0,
                                    "numoutlets": 1,
                                    "outlettype": [ "" ],
                                    "patching_rect": [ 259.0, 40.0, 30.0, 30.0 ]
                                }
                            },
                            {
                                "box": {
                                    "comment": "",
                                    "id": "obj-61",
                                    "index": 1,
                                    "maxclass": "outlet",
                                    "numinlets": 1,
                                    "numoutlets": 0,
                                    "patching_rect": [ 135.0, 372.0, 30.0, 30.0 ]
                                }
                            }
                        ],
                        "lines": [
                            {
                                "patchline": {
                                    "destination": [ "obj-79", 0 ],
                                    "source": [ "obj-58", 0 ]
                                }
                            },
                            {
                                "patchline": {
                                    "destination": [ "obj-68", 0 ],
                                    "source": [ "obj-59", 0 ]
                                }
                            },
                            {
                                "patchline": {
                                    "destination": [ "obj-58", 0 ],
                                    "midpoints": [ 144.5, 155.0, 137.0, 155.0, 137.0, 218.0, 144.5, 218.0 ],
                                    "order": 0,
                                    "source": [ "obj-60", 0 ]
                                }
                            },
                            {
                                "patchline": {
                                    "destination": [ "obj-72", 0 ],
                                    "order": 1,
                                    "source": [ "obj-60", 0 ]
                                }
                            },
                            {
                                "patchline": {
                                    "destination": [ "obj-71", 0 ],
                                    "source": [ "obj-64", 0 ]
                                }
                            },
                            {
                                "patchline": {
                                    "destination": [ "obj-80", 0 ],
                                    "source": [ "obj-68", 0 ]
                                }
                            },
                            {
                                "patchline": {
                                    "destination": [ "obj-82", 0 ],
                                    "source": [ "obj-71", 0 ]
                                }
                            },
                            {
                                "patchline": {
                                    "destination": [ "obj-71", 1 ],
                                    "source": [ "obj-72", 1 ]
                                }
                            },
                            {
                                "patchline": {
                                    "destination": [ "obj-71", 0 ],
                                    "source": [ "obj-72", 0 ]
                                }
                            },
                            {
                                "patchline": {
                                    "destination": [ "obj-81", 0 ],
                                    "midpoints": [ 268.5, 176.0, 254.0, 176.0, 254.0, 191.0, 217.5, 191.0 ],
                                    "source": [ "obj-74", 0 ]
                                }
                            },
                            {
                                "patchline": {
                                    "destination": [ "obj-74", 0 ],
                                    "source": [ "obj-75", 0 ]
                                }
                            },
                            {
                                "patchline": {
                                    "destination": [ "obj-60", 0 ],
                                    "source": [ "obj-76", 0 ]
                                }
                            },
                            {
                                "patchline": {
                                    "destination": [ "obj-64", 0 ],
                                    "source": [ "obj-77", 0 ]
                                }
                            },
                            {
                                "patchline": {
                                    "destination": [ "obj-61", 0 ],
                                    "source": [ "obj-79", 0 ]
                                }
                            },
                            {
                                "patchline": {
                                    "destination": [ "obj-58", 3 ],
                                    "source": [ "obj-80", 1 ]
                                }
                            },
                            {
                                "patchline": {
                                    "destination": [ "obj-58", 0 ],
                                    "source": [ "obj-80", 0 ]
                                }
                            },
                            {
                                "patchline": {
                                    "destination": [ "obj-58", 2 ],
                                    "source": [ "obj-81", 1 ]
                                }
                            },
                            {
                                "patchline": {
                                    "destination": [ "obj-58", 0 ],
                                    "source": [ "obj-81", 0 ]
                                }
                            },
                            {
                                "patchline": {
                                    "destination": [ "obj-58", 1 ],
                                    "source": [ "obj-82", 1 ]
                                }
                            },
                            {
                                "patchline": {
                                    "destination": [ "obj-58", 0 ],
                                    "source": [ "obj-82", 0 ]
                                }
                            }
                        ],
                        "bgcolor": [ 1.0, 1.0, 1.0, 1.0 ]
                    },
                    "patching_rect": [ 810.400012075901, 458.4000068306923, 62.0, 20.0 ],
                    "saved_object_attributes": {
                        "fontsize": 10.0,
                        "locked_bgcolor": [ 1.0, 1.0, 1.0, 1.0 ]
                    },
                    "text": "p cutoff-calc"
                }
            },
            {
                "box": {
                    "format": 6,
                    "id": "obj-47",
                    "maxclass": "flonum",
                    "numinlets": 1,
                    "numoutlets": 2,
                    "outlettype": [ "", "bang" ],
                    "parameter_enable": 0,
                    "patching_rect": [ 810.400012075901, 492.0000073313713, 50.0, 20.0 ]
                }
            },
            {
                "box": {
                    "id": "obj-42",
                    "maxclass": "newobj",
                    "numinlets": 1,
                    "numoutlets": 1,
                    "outlettype": [ "" ],
                    "patching_rect": [ 1108.0000165104866, 346.0, 74.0, 20.0 ],
                    "text": "loadmess 0.75"
                }
            },
            {
                "box": {
                    "fontface": 0,
                    "fontname": "Arial",
                    "fontsize": 10.0,
                    "id": "obj-40",
                    "maxclass": "number~",
                    "mode": 2,
                    "numinlets": 2,
                    "numoutlets": 2,
                    "outlettype": [ "signal", "float" ],
                    "patching_rect": [ 927.2000138163567, 613.6000091433525, 56.0, 20.0 ],
                    "sig": 0.0
                }
            },
            {
                "box": {
                    "id": "obj-39",
                    "maxclass": "newobj",
                    "numinlets": 2,
                    "numoutlets": 2,
                    "outlettype": [ "signal", "bang" ],
                    "patching_rect": [ 896.8000133633614, 545.6000081300735, 30.0, 20.0 ],
                    "text": "line~"
                }
            },
            {
                "box": {
                    "format": 6,
                    "id": "obj-33",
                    "maxclass": "flonum",
                    "numinlets": 1,
                    "numoutlets": 2,
                    "outlettype": [ "", "bang" ],
                    "parameter_enable": 0,
                    "patching_rect": [ 1072.8000159859657, 405.600006043911, 50.0, 20.0 ]
                }
            },
            {
                "box": {
                    "id": "obj-32",
                    "maxclass": "comment",
                    "numinlets": 1,
                    "numoutlets": 0,
                    "patching_rect": [ 911.2000135779381, 433.6000064611435, 24.0, 18.0 ],
                    "text": "dist"
                }
            },
            {
                "box": {
                    "id": "obj-31",
                    "maxclass": "comment",
                    "numinlets": 1,
                    "numoutlets": 0,
                    "patching_rect": [ 970.4000144600868, 433.6000064611435, 107.20000159740448, 18.0 ],
                    "presentation_linecount": 4,
                    "text": "max perception dist"
                }
            },
            {
                "box": {
                    "id": "obj-30",
                    "maxclass": "comment",
                    "numinlets": 1,
                    "numoutlets": 0,
                    "patching_rect": [ 1108.0000165104866, 433.6000064611435, 40.0, 18.0 ],
                    "text": "k value"
                }
            },
            {
                "box": {
                    "id": "obj-26",
                    "maxclass": "newobj",
                    "numinlets": 3,
                    "numoutlets": 1,
                    "outlettype": [ "" ],
                    "patching_rect": [ 896.8000133633614, 458.4000068306923, 184.0, 20.0 ],
                    "text": "expr (1. - ($f1/$f2)) * (1./(1. + ($f3*$f1)))"
                }
            },
            {
                "box": {
                    "format": 6,
                    "id": "obj-24",
                    "maxclass": "flonum",
                    "numinlets": 1,
                    "numoutlets": 2,
                    "outlettype": [ "", "bang" ],
                    "parameter_enable": 0,
                    "patching_rect": [ 900.0000134110451, 174.4000025987625, 50.0, 20.0 ]
                }
            },
            {
                "box": {
                    "id": "obj-22",
                    "maxclass": "newobj",
                    "numinlets": 1,
                    "numoutlets": 2,
                    "outlettype": [ "float", "bang" ],
                    "patching_rect": [ 900.0000134110451, 212.8000031709671, 29.5, 20.0 ],
                    "text": "t f b"
                }
            },
            {
                "box": {
                    "id": "obj-21",
                    "linecount": 2,
                    "maxclass": "comment",
                    "numinlets": 1,
                    "numoutlets": 0,
                    "patching_rect": [ 800.8000119328499, 258.40000385046005, 49.0, 29.0 ],
                    "presentation_linecount": 2,
                    "text": "distance (meters)"
                }
            },
            {
                "box": {
                    "id": "obj-17",
                    "maxclass": "newobj",
                    "numinlets": 1,
                    "numoutlets": 1,
                    "outlettype": [ "" ],
                    "patching_rect": [ 927.2000138163567, 258.40000385046005, 110.0, 20.0 ],
                    "text": "v player-sensing-range"
                }
            },
            {
                "box": {
                    "id": "obj-16",
                    "maxclass": "newobj",
                    "numinlets": 3,
                    "numoutlets": 1,
                    "outlettype": [ "" ],
                    "patching_rect": [ 900.0000134110451, 289.6000043153763, 46.0, 20.0 ],
                    "text": "clip 0. 1."
                }
            },
            {
                "box": {
                    "id": "obj-15",
                    "maxclass": "newobj",
                    "numinlets": 1,
                    "numoutlets": 2,
                    "outlettype": [ "float", "bang" ],
                    "patching_rect": [ 368.0, 270.0, 29.5, 20.0 ],
                    "text": "t f b"
                }
            },
            {
                "box": {
                    "id": "obj-13",
                    "maxclass": "newobj",
                    "numinlets": 1,
                    "numoutlets": 1,
                    "outlettype": [ "" ],
                    "patching_rect": [ 398.0, 299.0, 110.0, 20.0 ],
                    "text": "v player-sensing-range"
                }
            },
            {
                "box": {
                    "id": "obj-12",
                    "maxclass": "comment",
                    "numinlets": 1,
                    "numoutlets": 0,
                    "patching_rect": [ 449.0, 368.0, 96.0, 18.0 ],
                    "text": "invert for gain value"
                }
            },
            {
                "box": {
                    "id": "obj-10",
                    "maxclass": "newobj",
                    "numinlets": 6,
                    "numoutlets": 1,
                    "outlettype": [ "" ],
                    "patching_rect": [ 366.0, 367.0, 76.0, 20.0 ],
                    "text": "scale 0. 1. 1. 0."
                }
            },
            {
                "box": {
                    "id": "obj-9",
                    "maxclass": "newobj",
                    "numinlets": 5,
                    "numoutlets": 1,
                    "outlettype": [ "" ],
                    "patching_rect": [ 366.0, 333.0, 83.0, 20.0 ],
                    "text": "zmap 0. 10. 0. 1."
                }
            },
            {
                "box": {
                    "id": "obj-8",
                    "maxclass": "newobj",
                    "numinlets": 1,
                    "numoutlets": 2,
                    "outlettype": [ "bang", "float" ],
                    "patching_rect": [ 382.5, 147.0, 29.5, 20.0 ],
                    "text": "t b f"
                }
            },
            {
                "box": {
                    "comment": "Attenuation Factor (ideal 0.5 to 1.)",
                    "id": "obj-6",
                    "index": 3,
                    "maxclass": "inlet",
                    "numinlets": 0,
                    "numoutlets": 1,
                    "outlettype": [ "" ],
                    "patching_rect": [ 1072.8000159859657, 82.0, 30.0, 30.0 ]
                }
            },
            {
                "box": {
                    "id": "obj-7",
                    "maxclass": "message",
                    "numinlets": 2,
                    "numoutlets": 1,
                    "outlettype": [ "" ],
                    "patching_rect": [ 500.0, 609.0, 43.0, 20.0 ],
                    "text": "dispose"
                }
            },
            {
                "box": {
                    "color": [ 1.0, 0.0, 0.0, 1.0 ],
                    "id": "obj-5",
                    "maxclass": "newobj",
                    "numinlets": 0,
                    "numoutlets": 1,
                    "outlettype": [ "" ],
                    "patching_rect": [ 500.0, 563.0, 53.0, 20.0 ],
                    "text": "r kill-filters"
                }
            },
            {
                "box": {
                    "id": "obj-3",
                    "maxclass": "newobj",
                    "numinlets": 1,
                    "numoutlets": 2,
                    "outlettype": [ "", "" ],
                    "patching_rect": [ 500.0, 657.0, 57.0, 20.0 ],
                    "save": [ "#N", "thispatcher", ";", "#Q", "end", ";" ],
                    "text": "thispatcher"
                }
            },
            {
                "box": {
                    "comment": "Distance (metres)",
                    "id": "obj-2",
                    "index": 2,
                    "maxclass": "inlet",
                    "numinlets": 0,
                    "numoutlets": 1,
                    "outlettype": [ "" ],
                    "patching_rect": [ 855.2000122666359, 82.0, 30.0, 30.0 ]
                }
            },
            {
                "box": {
                    "id": "obj-1",
                    "maxclass": "newobj",
                    "numinlets": 1,
                    "numoutlets": 1,
                    "outlettype": [ "" ],
                    "patching_rect": [ 378.0, 533.0, 62.0, 20.0 ],
                    "text": "loadmess 0."
                }
            },
            {
                "box": {
                    "id": "obj-62",
                    "maxclass": "newobj",
                    "numinlets": 1,
                    "numoutlets": 1,
                    "outlettype": [ "" ],
                    "patcher": {
                        "fileversion": 1,
                        "appversion": {
                            "major": 9,
                            "minor": 1,
                            "revision": 1,
                            "architecture": "x64",
                            "modernui": 1
                        },
                        "classnamespace": "box",
                        "rect": [ 134.0, 159.0, 459.0, 461.0 ],
                        "default_fontsize": 10.0,
                        "subpatcher_template": "bigpatcher",
                        "boxes": [
                            {
                                "box": {
                                    "id": "obj-82",
                                    "maxclass": "newobj",
                                    "numinlets": 1,
                                    "numoutlets": 2,
                                    "outlettype": [ "bang", "float" ],
                                    "patching_rect": [ 166.0, 221.0, 29.5, 20.0 ],
                                    "text": "t b f"
                                }
                            },
                            {
                                "box": {
                                    "id": "obj-81",
                                    "maxclass": "newobj",
                                    "numinlets": 1,
                                    "numoutlets": 2,
                                    "outlettype": [ "bang", "float" ],
                                    "patching_rect": [ 208.0, 221.0, 29.5, 20.0 ],
                                    "text": "t b f"
                                }
                            },
                            {
                                "box": {
                                    "id": "obj-80",
                                    "maxclass": "newobj",
                                    "numinlets": 1,
                                    "numoutlets": 2,
                                    "outlettype": [ "bang", "float" ],
                                    "patching_rect": [ 259.0, 221.0, 29.5, 20.0 ],
                                    "text": "t b f"
                                }
                            },
                            {
                                "box": {
                                    "format": 6,
                                    "id": "obj-79",
                                    "maxclass": "flonum",
                                    "numinlets": 1,
                                    "numoutlets": 2,
                                    "outlettype": [ "", "bang" ],
                                    "parameter_enable": 0,
                                    "patching_rect": [ 135.0, 292.0, 50.0, 20.0 ]
                                }
                            },
                            {
                                "box": {
                                    "id": "obj-77",
                                    "maxclass": "newobj",
                                    "numinlets": 1,
                                    "numoutlets": 1,
                                    "outlettype": [ "" ],
                                    "patching_rect": [ 50.0, 100.0, 76.0, 20.0 ],
                                    "text": "loadmess 9001"
                                }
                            },
                            {
                                "box": {
                                    "id": "obj-76",
                                    "maxclass": "newobj",
                                    "numinlets": 1,
                                    "numoutlets": 1,
                                    "outlettype": [ "" ],
                                    "patching_rect": [ 135.0, 100.0, 76.0, 20.0 ],
                                    "text": "loadmess 2000"
                                }
                            },
                            {
                                "box": {
                                    "id": "obj-75",
                                    "maxclass": "newobj",
                                    "numinlets": 1,
                                    "numoutlets": 1,
                                    "outlettype": [ "" ],
                                    "patching_rect": [ 259.0, 125.0, 79.0, 20.0 ],
                                    "text": "loadmess 0.025"
                                }
                            },
                            {
                                "box": {
                                    "id": "obj-73",
                                    "maxclass": "comment",
                                    "numinlets": 1,
                                    "numoutlets": 0,
                                    "patching_rect": [ 310.0, 154.0, 74.0, 18.0 ],
                                    "text": "Slope (.3 to .5)"
                                }
                            },
                            {
                                "box": {
                                    "format": 6,
                                    "id": "obj-74",
                                    "maxclass": "flonum",
                                    "numinlets": 1,
                                    "numoutlets": 2,
                                    "outlettype": [ "", "bang" ],
                                    "parameter_enable": 0,
                                    "patching_rect": [ 259.0, 153.0, 50.0, 20.0 ]
                                }
                            },
                            {
                                "box": {
                                    "id": "obj-72",
                                    "maxclass": "newobj",
                                    "numinlets": 1,
                                    "numoutlets": 2,
                                    "outlettype": [ "bang", "float" ],
                                    "patching_rect": [ 97.0, 153.0, 29.5, 20.0 ],
                                    "text": "t b f"
                                }
                            },
                            {
                                "box": {
                                    "id": "obj-71",
                                    "maxclass": "newobj",
                                    "numinlets": 2,
                                    "numoutlets": 1,
                                    "outlettype": [ "float" ],
                                    "patching_rect": [ 97.0, 182.0, 29.5, 20.0 ],
                                    "text": "- 0."
                                }
                            },
                            {
                                "box": {
                                    "id": "obj-70",
                                    "maxclass": "comment",
                                    "numinlets": 1,
                                    "numoutlets": 0,
                                    "patching_rect": [ 310.0, 196.0, 47.0, 18.0 ],
                                    "text": "Distance"
                                }
                            },
                            {
                                "box": {
                                    "format": 6,
                                    "id": "obj-68",
                                    "maxclass": "flonum",
                                    "numinlets": 1,
                                    "numoutlets": 2,
                                    "outlettype": [ "", "bang" ],
                                    "parameter_enable": 0,
                                    "patching_rect": [ 259.0, 195.0, 50.0, 20.0 ]
                                }
                            },
                            {
                                "box": {
                                    "id": "obj-63",
                                    "maxclass": "comment",
                                    "numinlets": 1,
                                    "numoutlets": 0,
                                    "patching_rect": [ 197.0, 161.0, 52.0, 18.0 ],
                                    "text": "Freq High"
                                }
                            },
                            {
                                "box": {
                                    "format": 6,
                                    "id": "obj-64",
                                    "maxclass": "flonum",
                                    "numinlets": 1,
                                    "numoutlets": 2,
                                    "outlettype": [ "", "bang" ],
                                    "parameter_enable": 0,
                                    "patching_rect": [ 142.0, 160.0, 50.0, 20.0 ]
                                }
                            },
                            {
                                "box": {
                                    "id": "obj-62",
                                    "maxclass": "comment",
                                    "numinlets": 1,
                                    "numoutlets": 0,
                                    "patching_rect": [ 193.0, 129.0, 50.0, 18.0 ],
                                    "text": "Freq Low"
                                }
                            },
                            {
                                "box": {
                                    "format": 6,
                                    "id": "obj-60",
                                    "maxclass": "flonum",
                                    "numinlets": 1,
                                    "numoutlets": 2,
                                    "outlettype": [ "", "bang" ],
                                    "parameter_enable": 0,
                                    "patching_rect": [ 135.0, 128.0, 50.0, 20.0 ]
                                }
                            },
                            {
                                "box": {
                                    "id": "obj-58",
                                    "maxclass": "newobj",
                                    "numinlets": 4,
                                    "numoutlets": 1,
                                    "outlettype": [ "" ],
                                    "patching_rect": [ 135.0, 263.0, 149.0, 20.0 ],
                                    "text": "expr $f1 + ($f2 * exp(-$f3 * $f4))"
                                }
                            },
                            {
                                "box": {
                                    "id": "obj-50",
                                    "maxclass": "comment",
                                    "numinlets": 1,
                                    "numoutlets": 0,
                                    "patching_rect": [ 238.0, 101.0, 71.0, 18.0 ],
                                    "text": "Filter Params."
                                }
                            },
                            {
                                "box": {
                                    "comment": "",
                                    "id": "obj-59",
                                    "index": 1,
                                    "maxclass": "inlet",
                                    "numinlets": 0,
                                    "numoutlets": 1,
                                    "outlettype": [ "" ],
                                    "patching_rect": [ 259.0, 40.0, 30.0, 30.0 ]
                                }
                            },
                            {
                                "box": {
                                    "comment": "",
                                    "id": "obj-61",
                                    "index": 1,
                                    "maxclass": "outlet",
                                    "numinlets": 1,
                                    "numoutlets": 0,
                                    "patching_rect": [ 135.0, 372.0, 30.0, 30.0 ]
                                }
                            }
                        ],
                        "lines": [
                            {
                                "patchline": {
                                    "destination": [ "obj-79", 0 ],
                                    "source": [ "obj-58", 0 ]
                                }
                            },
                            {
                                "patchline": {
                                    "destination": [ "obj-68", 0 ],
                                    "source": [ "obj-59", 0 ]
                                }
                            },
                            {
                                "patchline": {
                                    "destination": [ "obj-58", 0 ],
                                    "midpoints": [ 144.5, 155.0, 137.0, 155.0, 137.0, 218.0, 144.5, 218.0 ],
                                    "order": 0,
                                    "source": [ "obj-60", 0 ]
                                }
                            },
                            {
                                "patchline": {
                                    "destination": [ "obj-72", 0 ],
                                    "order": 1,
                                    "source": [ "obj-60", 0 ]
                                }
                            },
                            {
                                "patchline": {
                                    "destination": [ "obj-71", 0 ],
                                    "source": [ "obj-64", 0 ]
                                }
                            },
                            {
                                "patchline": {
                                    "destination": [ "obj-80", 0 ],
                                    "source": [ "obj-68", 0 ]
                                }
                            },
                            {
                                "patchline": {
                                    "destination": [ "obj-82", 0 ],
                                    "source": [ "obj-71", 0 ]
                                }
                            },
                            {
                                "patchline": {
                                    "destination": [ "obj-71", 1 ],
                                    "source": [ "obj-72", 1 ]
                                }
                            },
                            {
                                "patchline": {
                                    "destination": [ "obj-71", 0 ],
                                    "source": [ "obj-72", 0 ]
                                }
                            },
                            {
                                "patchline": {
                                    "destination": [ "obj-81", 0 ],
                                    "midpoints": [ 268.5, 176.0, 254.0, 176.0, 254.0, 191.0, 217.5, 191.0 ],
                                    "source": [ "obj-74", 0 ]
                                }
                            },
                            {
                                "patchline": {
                                    "destination": [ "obj-74", 0 ],
                                    "source": [ "obj-75", 0 ]
                                }
                            },
                            {
                                "patchline": {
                                    "destination": [ "obj-60", 0 ],
                                    "source": [ "obj-76", 0 ]
                                }
                            },
                            {
                                "patchline": {
                                    "destination": [ "obj-64", 0 ],
                                    "source": [ "obj-77", 0 ]
                                }
                            },
                            {
                                "patchline": {
                                    "destination": [ "obj-61", 0 ],
                                    "source": [ "obj-79", 0 ]
                                }
                            },
                            {
                                "patchline": {
                                    "destination": [ "obj-58", 3 ],
                                    "source": [ "obj-80", 1 ]
                                }
                            },
                            {
                                "patchline": {
                                    "destination": [ "obj-58", 0 ],
                                    "source": [ "obj-80", 0 ]
                                }
                            },
                            {
                                "patchline": {
                                    "destination": [ "obj-58", 2 ],
                                    "source": [ "obj-81", 1 ]
                                }
                            },
                            {
                                "patchline": {
                                    "destination": [ "obj-58", 0 ],
                                    "source": [ "obj-81", 0 ]
                                }
                            },
                            {
                                "patchline": {
                                    "destination": [ "obj-58", 1 ],
                                    "source": [ "obj-82", 1 ]
                                }
                            },
                            {
                                "patchline": {
                                    "destination": [ "obj-58", 0 ],
                                    "source": [ "obj-82", 0 ]
                                }
                            }
                        ],
                        "bgcolor": [ 1.0, 1.0, 1.0, 1.0 ]
                    },
                    "patching_rect": [ 302.0, 533.0, 62.0, 20.0 ],
                    "saved_object_attributes": {
                        "fontsize": 10.0,
                        "locked_bgcolor": [ 1.0, 1.0, 1.0, 1.0 ]
                    },
                    "text": "p cutoff-calc"
                }
            },
            {
                "box": {
                    "id": "obj-123",
                    "linecount": 4,
                    "maxclass": "comment",
                    "numinlets": 1,
                    "numoutlets": 0,
                    "patching_rect": [ 64.0, 362.0, 150.0, 51.0 ],
                    "text": "need to play with mix of reverb\n- inside space can have up to 50% wet, outside boundary should be 100%"
                }
            },
            {
                "box": {
                    "fontsize": 15.44949494949495,
                    "id": "obj-111",
                    "maxclass": "comment",
                    "numinlets": 1,
                    "numoutlets": 0,
                    "patching_rect": [ 378.0, 504.0, 204.0, 24.0 ],
                    "text": "feel out realism of freq slope"
                }
            },
            {
                "box": {
                    "format": 6,
                    "id": "obj-54",
                    "maxclass": "flonum",
                    "numinlets": 1,
                    "numoutlets": 2,
                    "outlettype": [ "", "bang" ],
                    "parameter_enable": 0,
                    "patching_rect": [ 378.0, 563.0, 50.0, 20.0 ]
                }
            },
            {
                "box": {
                    "format": 6,
                    "id": "obj-52",
                    "maxclass": "flonum",
                    "numinlets": 1,
                    "numoutlets": 2,
                    "outlettype": [ "", "bang" ],
                    "parameter_enable": 0,
                    "patching_rect": [ 302.0, 566.0, 50.0, 20.0 ]
                }
            },
            {
                "box": {
                    "id": "obj-48",
                    "maxclass": "newobj",
                    "numinlets": 3,
                    "numoutlets": 1,
                    "outlettype": [ "signal" ],
                    "patching_rect": [ 243.0, 633.0, 40.0, 20.0 ],
                    "text": "lores~"
                }
            },
            {
                "box": {
                    "id": "obj-46",
                    "maxclass": "newobj",
                    "numinlets": 1,
                    "numoutlets": 1,
                    "outlettype": [ "" ],
                    "patching_rect": [ 302.0, 59.0, 62.0, 20.0 ],
                    "text": "loadmess 1."
                }
            },
            {
                "box": {
                    "id": "obj-45",
                    "maxclass": "newobj",
                    "numinlets": 1,
                    "numoutlets": 1,
                    "outlettype": [ "" ],
                    "patching_rect": [ 413.5, 59.0, 74.0, 20.0 ],
                    "text": "loadmess 0.75"
                }
            },
            {
                "box": {
                    "id": "obj-43",
                    "maxclass": "message",
                    "numinlets": 2,
                    "numoutlets": 1,
                    "outlettype": [ "" ],
                    "patching_rect": [ 366.0, 440.0, 41.0, 20.0 ],
                    "text": "gain $1"
                }
            },
            {
                "box": {
                    "id": "obj-41",
                    "maxclass": "newobj",
                    "numinlets": 1,
                    "numoutlets": 1,
                    "outlettype": [ "signal" ],
                    "patcher": {
                        "fileversion": 1,
                        "appversion": {
                            "major": 9,
                            "minor": 1,
                            "revision": 1,
                            "architecture": "x64",
                            "modernui": 1
                        },
                        "classnamespace": "dsp.gen",
                        "rect": [ 134.0, 159.0, 360.0, 332.0 ],
                        "default_fontsize": 10.0,
                        "subpatcher_template": "bigpatcher",
                        "boxes": [
                            {
                                "box": {
                                    "id": "obj-5",
                                    "maxclass": "newobj",
                                    "numinlets": 0,
                                    "numoutlets": 1,
                                    "outlettype": [ "" ],
                                    "patching_rect": [ 213.27, 51.19, 59.0, 20.0 ],
                                    "text": "param gain"
                                }
                            },
                            {
                                "box": {
                                    "id": "obj-3",
                                    "maxclass": "newobj",
                                    "numinlets": 2,
                                    "numoutlets": 1,
                                    "outlettype": [ "" ],
                                    "patching_rect": [ 138.0, 160.0, 29.5, 20.0 ],
                                    "text": "*"
                                }
                            },
                            {
                                "box": {
                                    "id": "obj-1",
                                    "maxclass": "newobj",
                                    "numinlets": 0,
                                    "numoutlets": 1,
                                    "outlettype": [ "" ],
                                    "patching_rect": [ 91.0, 57.0, 25.0, 20.0 ],
                                    "text": "in 1"
                                }
                            },
                            {
                                "box": {
                                    "id": "obj-4",
                                    "maxclass": "newobj",
                                    "numinlets": 1,
                                    "numoutlets": 0,
                                    "patching_rect": [ 138.0, 210.0, 31.0, 20.0 ],
                                    "text": "out 1"
                                }
                            }
                        ],
                        "lines": [
                            {
                                "patchline": {
                                    "destination": [ "obj-3", 0 ],
                                    "source": [ "obj-1", 0 ]
                                }
                            },
                            {
                                "patchline": {
                                    "destination": [ "obj-4", 0 ],
                                    "source": [ "obj-3", 0 ]
                                }
                            },
                            {
                                "patchline": {
                                    "destination": [ "obj-3", 1 ],
                                    "source": [ "obj-5", 0 ]
                                }
                            }
                        ],
                        "bgcolor": [ 1.0, 1.0, 1.0, 1.0 ]
                    },
                    "patching_rect": [ 243.0, 499.0, 34.0, 20.0 ],
                    "text": "gen~"
                }
            },
            {
                "box": {
                    "format": 6,
                    "id": "obj-38",
                    "maxclass": "flonum",
                    "numinlets": 1,
                    "numoutlets": 2,
                    "outlettype": [ "", "bang" ],
                    "parameter_enable": 0,
                    "patching_rect": [ 366.0, 412.0, 50.0, 20.0 ]
                }
            },
            {
                "box": {
                    "id": "obj-36",
                    "linecount": 2,
                    "maxclass": "comment",
                    "numinlets": 1,
                    "numoutlets": 0,
                    "patching_rect": [ 241.0, 105.0, 49.0, 29.0 ],
                    "text": "distance (meters)"
                }
            },
            {
                "box": {
                    "format": 6,
                    "id": "obj-34",
                    "maxclass": "flonum",
                    "minimum": 1.0,
                    "numinlets": 1,
                    "numoutlets": 2,
                    "outlettype": [ "", "bang" ],
                    "parameter_enable": 0,
                    "patching_rect": [ 302.0, 109.0, 50.0, 20.0 ]
                }
            },
            {
                "box": {
                    "id": "obj-28",
                    "maxclass": "newobj",
                    "numinlets": 2,
                    "numoutlets": 1,
                    "outlettype": [ "float" ],
                    "patching_rect": [ 368.0, 208.0, 29.5, 20.0 ],
                    "text": "pow"
                }
            },
            {
                "box": {
                    "id": "obj-27",
                    "maxclass": "newobj",
                    "numinlets": 1,
                    "numoutlets": 1,
                    "outlettype": [ "" ],
                    "patching_rect": [ 368.0, 242.0, 60.0, 20.0 ],
                    "text": "expr 1/($f1)"
                }
            },
            {
                "box": {
                    "id": "obj-25",
                    "linecount": 2,
                    "maxclass": "comment",
                    "numinlets": 1,
                    "numoutlets": 0,
                    "patching_rect": [ 439.5, 104.0, 101.0, 29.0 ],
                    "text": "Attenuation Factor k (ideal 0.5 - 1.0)"
                }
            },
            {
                "box": {
                    "format": 6,
                    "id": "obj-20",
                    "maxclass": "flonum",
                    "numinlets": 1,
                    "numoutlets": 2,
                    "outlettype": [ "", "bang" ],
                    "parameter_enable": 0,
                    "patching_rect": [ 382.5, 109.0, 50.0, 20.0 ]
                }
            },
            {
                "box": {
                    "id": "obj-83",
                    "maxclass": "message",
                    "numinlets": 2,
                    "numoutlets": 1,
                    "outlettype": [ "" ],
                    "patching_rect": [ 204.0, 576.0, 30.0, 20.0 ],
                    "text": "clear"
                }
            },
            {
                "box": {
                    "comment": "Input signal",
                    "id": "obj-64",
                    "index": 1,
                    "maxclass": "inlet",
                    "numinlets": 0,
                    "numoutlets": 1,
                    "outlettype": [ "signal" ],
                    "patching_rect": [ 158.0, 108.0, 30.0, 30.0 ]
                }
            },
            {
                "box": {
                    "comment": "",
                    "id": "obj-66",
                    "index": 1,
                    "maxclass": "outlet",
                    "numinlets": 1,
                    "numoutlets": 0,
                    "patching_rect": [ 243.0, 695.0, 30.0, 30.0 ]
                }
            }
        ],
        "lines": [
            {
                "patchline": {
                    "destination": [ "obj-54", 0 ],
                    "source": [ "obj-1", 0 ]
                }
            },
            {
                "patchline": {
                    "destination": [ "obj-9", 2 ],
                    "source": [ "obj-13", 0 ]
                }
            },
            {
                "patchline": {
                    "destination": [ "obj-13", 0 ],
                    "source": [ "obj-15", 1 ]
                }
            },
            {
                "patchline": {
                    "destination": [ "obj-9", 0 ],
                    "source": [ "obj-15", 0 ]
                }
            },
            {
                "patchline": {
                    "destination": [ "obj-26", 0 ],
                    "source": [ "obj-16", 0 ]
                }
            },
            {
                "patchline": {
                    "destination": [ "obj-16", 2 ],
                    "order": 1,
                    "source": [ "obj-17", 0 ]
                }
            },
            {
                "patchline": {
                    "destination": [ "obj-26", 1 ],
                    "order": 0,
                    "source": [ "obj-17", 0 ]
                }
            },
            {
                "patchline": {
                    "destination": [ "obj-24", 0 ],
                    "source": [ "obj-2", 0 ]
                }
            },
            {
                "patchline": {
                    "destination": [ "obj-8", 0 ],
                    "source": [ "obj-20", 0 ]
                }
            },
            {
                "patchline": {
                    "destination": [ "obj-16", 0 ],
                    "source": [ "obj-22", 0 ]
                }
            },
            {
                "patchline": {
                    "destination": [ "obj-17", 0 ],
                    "source": [ "obj-22", 1 ]
                }
            },
            {
                "patchline": {
                    "destination": [ "obj-22", 0 ],
                    "order": 0,
                    "source": [ "obj-24", 0 ]
                }
            },
            {
                "patchline": {
                    "destination": [ "obj-44", 0 ],
                    "order": 1,
                    "source": [ "obj-24", 0 ]
                }
            },
            {
                "patchline": {
                    "destination": [ "obj-39", 0 ],
                    "source": [ "obj-26", 0 ]
                }
            },
            {
                "patchline": {
                    "destination": [ "obj-15", 0 ],
                    "source": [ "obj-27", 0 ]
                }
            },
            {
                "patchline": {
                    "destination": [ "obj-27", 0 ],
                    "source": [ "obj-28", 0 ]
                }
            },
            {
                "patchline": {
                    "destination": [ "obj-26", 2 ],
                    "source": [ "obj-33", 0 ]
                }
            },
            {
                "patchline": {
                    "destination": [ "obj-28", 0 ],
                    "order": 0,
                    "source": [ "obj-34", 0 ]
                }
            },
            {
                "patchline": {
                    "destination": [ "obj-62", 0 ],
                    "order": 1,
                    "source": [ "obj-34", 0 ]
                }
            },
            {
                "patchline": {
                    "destination": [ "obj-43", 0 ],
                    "source": [ "obj-38", 0 ]
                }
            },
            {
                "patchline": {
                    "destination": [ "obj-40", 0 ],
                    "order": 0,
                    "source": [ "obj-39", 0 ]
                }
            },
            {
                "patchline": {
                    "destination": [ "obj-53", 1 ],
                    "order": 1,
                    "source": [ "obj-39", 0 ]
                }
            },
            {
                "patchline": {
                    "destination": [ "obj-48", 0 ],
                    "source": [ "obj-41", 0 ]
                }
            },
            {
                "patchline": {
                    "destination": [ "obj-33", 0 ],
                    "source": [ "obj-42", 0 ]
                }
            },
            {
                "patchline": {
                    "destination": [ "obj-41", 0 ],
                    "source": [ "obj-43", 0 ]
                }
            },
            {
                "patchline": {
                    "destination": [ "obj-47", 0 ],
                    "source": [ "obj-44", 0 ]
                }
            },
            {
                "patchline": {
                    "destination": [ "obj-20", 0 ],
                    "source": [ "obj-45", 0 ]
                }
            },
            {
                "patchline": {
                    "destination": [ "obj-34", 0 ],
                    "source": [ "obj-46", 0 ]
                }
            },
            {
                "patchline": {
                    "destination": [ "obj-49", 1 ],
                    "source": [ "obj-47", 0 ]
                }
            },
            {
                "patchline": {
                    "destination": [ "obj-53", 0 ],
                    "source": [ "obj-49", 0 ]
                }
            },
            {
                "patchline": {
                    "destination": [ "obj-7", 0 ],
                    "source": [ "obj-5", 0 ]
                }
            },
            {
                "patchline": {
                    "destination": [ "obj-51", 0 ],
                    "source": [ "obj-50", 0 ]
                }
            },
            {
                "patchline": {
                    "destination": [ "obj-49", 2 ],
                    "source": [ "obj-51", 0 ]
                }
            },
            {
                "patchline": {
                    "destination": [ "obj-48", 1 ],
                    "source": [ "obj-52", 0 ]
                }
            },
            {
                "patchline": {
                    "destination": [ "obj-66", 0 ],
                    "source": [ "obj-53", 0 ]
                }
            },
            {
                "patchline": {
                    "destination": [ "obj-48", 2 ],
                    "source": [ "obj-54", 0 ]
                }
            },
            {
                "patchline": {
                    "destination": [ "obj-20", 0 ],
                    "order": 1,
                    "source": [ "obj-6", 0 ]
                }
            },
            {
                "patchline": {
                    "destination": [ "obj-33", 0 ],
                    "order": 0,
                    "source": [ "obj-6", 0 ]
                }
            },
            {
                "patchline": {
                    "destination": [ "obj-52", 0 ],
                    "source": [ "obj-62", 0 ]
                }
            },
            {
                "patchline": {
                    "destination": [ "obj-49", 0 ],
                    "source": [ "obj-64", 0 ]
                }
            },
            {
                "patchline": {
                    "destination": [ "obj-3", 0 ],
                    "source": [ "obj-7", 0 ]
                }
            },
            {
                "patchline": {
                    "destination": [ "obj-28", 1 ],
                    "source": [ "obj-8", 1 ]
                }
            },
            {
                "patchline": {
                    "destination": [ "obj-28", 0 ],
                    "source": [ "obj-8", 0 ]
                }
            },
            {
                "patchline": {
                    "destination": [ "obj-48", 0 ],
                    "source": [ "obj-83", 0 ]
                }
            },
            {
                "patchline": {
                    "destination": [ "obj-10", 0 ],
                    "source": [ "obj-9", 0 ]
                }
            }
        ]
    }
}