{
    "patcher": {
        "fileversion": 1,
        "appversion": {
            "major": 9,
            "minor": 1,
            "revision": 1,
            "architecture": "x64",
            "modernui": 1
        },
        "classnamespace": "box",
        "rect": [ 1069.0, 167.0, 1000.0, 780.0 ],
        "openinpresentation": 1,
        "boxes": [
            {
                "box": {
                    "id": "obj-13",
                    "maxclass": "newobj",
                    "numinlets": 1,
                    "numoutlets": 1,
                    "outlettype": [ "" ],
                    "patching_rect": [ 218.0, 449.0, 77.0, 22.0 ],
                    "text": "loadmess #1"
                }
            },
            {
                "box": {
                    "id": "obj-14",
                    "maxclass": "newobj",
                    "numinlets": 1,
                    "numoutlets": 1,
                    "outlettype": [ "" ],
                    "patching_rect": [ 218.0, 487.0, 189.0, 22.0 ],
                    "text": "sprintf _parameter_shortname %i:"
                }
            },
            {
                "box": {
                    "id": "obj-6",
                    "maxclass": "newobj",
                    "numinlets": 1,
                    "numoutlets": 1,
                    "outlettype": [ "" ],
                    "patching_rect": [ 218.0, 49.0, 54.0, 22.0 ],
                    "text": "deferlow"
                }
            },
            {
                "box": {
                    "id": "obj-5",
                    "maxclass": "newobj",
                    "numinlets": 1,
                    "numoutlets": 1,
                    "outlettype": [ "bang" ],
                    "patching_rect": [ 218.0, 20.0, 58.0, 22.0 ],
                    "text": "loadbang"
                }
            },
            {
                "box": {
                    "id": "obj-5452",
                    "maxclass": "newobj",
                    "numinlets": 1,
                    "numoutlets": 1,
                    "outlettype": [ "" ],
                    "patching_rect": [ 104.0, 49.0, 101.0, 22.0 ],
                    "text": "v all_in_mix_gain"
                }
            },
            {
                "box": {
                    "id": "obj-5451",
                    "maxclass": "newobj",
                    "numinlets": 1,
                    "numoutlets": 1,
                    "outlettype": [ "" ],
                    "patching_rect": [ 218.0, 84.0, 112.0, 22.0 ],
                    "text": "v all_in_source_tog"
                }
            },
            {
                "box": {
                    "id": "obj-4881",
                    "maxclass": "newobj",
                    "numinlets": 0,
                    "numoutlets": 1,
                    "outlettype": [ "" ],
                    "patching_rect": [ 192.0, 152.0, 103.0, 22.0 ],
                    "text": "r to_all_in_source"
                }
            },
            {
                "box": {
                    "id": "obj-4880",
                    "maxclass": "newobj",
                    "numinlets": 0,
                    "numoutlets": 1,
                    "outlettype": [ "" ],
                    "patching_rect": [ 59.0, 89.0, 86.0, 22.0 ],
                    "text": "r to_all_in_mix"
                }
            },
            {
                "box": {
                    "id": "obj-17",
                    "maxclass": "newobj",
                    "numinlets": 1,
                    "numoutlets": 1,
                    "outlettype": [ "" ],
                    "patching_rect": [ 233.0, 195.5, 70.0, 22.0 ],
                    "text": "loadmess 0"
                }
            },
            {
                "box": {
                    "id": "obj-16",
                    "maxclass": "newobj",
                    "numinlets": 2,
                    "numoutlets": 1,
                    "outlettype": [ "int" ],
                    "patching_rect": [ 323.0, 295.0, 29.5, 22.0 ],
                    "text": "+ 1"
                }
            },
            {
                "box": {
                    "id": "obj-15",
                    "linecount": 2,
                    "maxclass": "newobj",
                    "numinlets": 1,
                    "numoutlets": 1,
                    "outlettype": [ "" ],
                    "patching_rect": [ 312.0, 189.0, 674.0, 35.0 ],
                    "text": "sprintf hint \\\"adc~ will take the input audio from your chosen input interface. receive~ will get a signal from another Max patch using [send~ to_vase_%i]\\\""
                }
            },
            {
                "box": {
                    "activebgcolor": [ 0.269595890603871, 0.408853959740371, 0.595943257030903, 1.0 ],
                    "fontsize": 8.0,
                    "hint": "adc~ will take the input audio from your chosen input interface. receive~ will get a signal from another Max patch using [send~ to_vase_1]",
                    "id": "obj-12",
                    "maxclass": "live.text",
                    "numinlets": 1,
                    "numoutlets": 2,
                    "outlettype": [ "", "" ],
                    "parameter_enable": 1,
                    "patching_rect": [ 312.0, 248.0, 20.0, 18.0 ],
                    "presentation": 1,
                    "presentation_rect": [ 1.0212766528129578, 196.0, 15.957446694374084, 11.702127575874329 ],
                    "saved_attribute_attributes": {
                        "activebgcolor": {
                            "expression": "themecolor.live_selection"
                        },
                        "valueof": {
                            "parameter_enum": [ "val1", "val2" ],
                            "parameter_longname": "live.text[34]",
                            "parameter_mmax": 1,
                            "parameter_modmode": 0,
                            "parameter_shortname": "live.text",
                            "parameter_type": 2
                        }
                    },
                    "text": "adc~",
                    "texton": "receive~",
                    "varname": "live.text"
                }
            },
            {
                "box": {
                    "id": "obj-9",
                    "maxclass": "newobj",
                    "numinlets": 1,
                    "numoutlets": 1,
                    "outlettype": [ "" ],
                    "patching_rect": [ 425.5, 295.0, 126.0, 22.0 ],
                    "text": "sprintf set to_vase_%i"
                }
            },
            {
                "box": {
                    "id": "obj-11",
                    "maxclass": "newobj",
                    "numinlets": 1,
                    "numoutlets": 1,
                    "outlettype": [ "" ],
                    "patching_rect": [ 375.0, 102.0, 77.0, 22.0 ],
                    "text": "loadmess #1"
                }
            },
            {
                "box": {
                    "id": "obj-8",
                    "maxclass": "newobj",
                    "numinlets": 1,
                    "numoutlets": 1,
                    "outlettype": [ "signal" ],
                    "patching_rect": [ 425.5, 331.0, 54.0, 22.0 ],
                    "text": "receive~"
                }
            },
            {
                "box": {
                    "id": "obj-7",
                    "maxclass": "newobj",
                    "numinlets": 3,
                    "numoutlets": 1,
                    "outlettype": [ "signal" ],
                    "patching_rect": [ 345.0, 377.0, 68.0, 22.0 ],
                    "text": "selector~ 2"
                }
            },
            {
                "box": {
                    "id": "obj-4",
                    "maxclass": "newobj",
                    "numinlets": 1,
                    "numoutlets": 1,
                    "outlettype": [ "" ],
                    "patching_rect": [ 116.0, 319.0, 141.0, 22.0 ],
                    "text": "sprintf set in_%i_postmix"
                }
            },
            {
                "box": {
                    "id": "obj-1",
                    "maxclass": "newobj",
                    "numinlets": 1,
                    "numoutlets": 1,
                    "outlettype": [ "" ],
                    "patching_rect": [ 116.0, 286.0, 77.0, 22.0 ],
                    "text": "loadmess #1"
                }
            },
            {
                "box": {
                    "id": "obj-10",
                    "maxclass": "newobj",
                    "numinlets": 1,
                    "numoutlets": 0,
                    "patching_rect": [ 50.0, 377.0, 122.0, 22.0 ],
                    "text": "send~ in_#1_postmix"
                }
            },
            {
                "box": {
                    "channels": 1,
                    "fontname": "Ableton Sans Small",
                    "fontsize": 4.0,
                    "id": "obj-174",
                    "lastchannelcount": 0,
                    "maxclass": "live.gain~",
                    "numinlets": 1,
                    "numoutlets": 4,
                    "outlettype": [ "signal", "", "float", "list" ],
                    "parameter_enable": 1,
                    "patching_rect": [ 59.0, 146.0, 28.0, 194.0 ],
                    "presentation": 1,
                    "presentation_rect": [ -5.0, 0.0, 28.0, 194.0 ],
                    "saved_attribute_attributes": {
                        "tricolor": {
                            "expression": "themecolor.live_arranger_grid_tiles"
                        },
                        "valueof": {
                            "parameter_longname": "live.gain~[15]",
                            "parameter_mmax": 10.0,
                            "parameter_mmin": -70.0,
                            "parameter_modmode": 3,
                            "parameter_shortname": "1:",
                            "parameter_type": 0,
                            "parameter_unitstyle": 4
                        }
                    },
                    "showname": 0,
                    "shownumber": 0,
                    "thickness": 7,
                    "tricolor": [ 0.85, 0.85, 0.85, 1.0 ],
                    "valuepopup": 1,
                    "valuepopuplabel": 4,
                    "varname": "live.gain~"
                }
            },
            {
                "box": {
                    "id": "obj-3",
                    "maxclass": "newobj",
                    "numinlets": 1,
                    "numoutlets": 1,
                    "outlettype": [ "signal" ],
                    "patching_rect": [ 369.5, 331.0, 52.0, 22.0 ],
                    "text": "adc~ #1"
                }
            },
            {
                "box": {
                    "id": "obj-2",
                    "maxclass": "comment",
                    "numinlets": 1,
                    "numoutlets": 0,
                    "patching_rect": [ 2.0, 13.0, 54.0, 20.0 ],
                    "text": "mixer in:"
                }
            }
        ],
        "lines": [
            {
                "patchline": {
                    "destination": [ "obj-4", 0 ],
                    "source": [ "obj-1", 0 ]
                }
            },
            {
                "patchline": {
                    "destination": [ "obj-15", 0 ],
                    "order": 1,
                    "source": [ "obj-11", 0 ]
                }
            },
            {
                "patchline": {
                    "destination": [ "obj-9", 0 ],
                    "order": 0,
                    "source": [ "obj-11", 0 ]
                }
            },
            {
                "patchline": {
                    "destination": [ "obj-16", 0 ],
                    "source": [ "obj-12", 0 ]
                }
            },
            {
                "patchline": {
                    "destination": [ "obj-14", 0 ],
                    "source": [ "obj-13", 0 ]
                }
            },
            {
                "patchline": {
                    "destination": [ "obj-174", 0 ],
                    "source": [ "obj-14", 0 ]
                }
            },
            {
                "patchline": {
                    "destination": [ "obj-12", 0 ],
                    "source": [ "obj-15", 0 ]
                }
            },
            {
                "patchline": {
                    "destination": [ "obj-7", 0 ],
                    "source": [ "obj-16", 0 ]
                }
            },
            {
                "patchline": {
                    "destination": [ "obj-12", 0 ],
                    "source": [ "obj-17", 0 ]
                }
            },
            {
                "patchline": {
                    "destination": [ "obj-10", 0 ],
                    "source": [ "obj-174", 0 ]
                }
            },
            {
                "patchline": {
                    "destination": [ "obj-7", 1 ],
                    "source": [ "obj-3", 0 ]
                }
            },
            {
                "patchline": {
                    "destination": [ "obj-10", 0 ],
                    "source": [ "obj-4", 0 ]
                }
            },
            {
                "patchline": {
                    "destination": [ "obj-174", 0 ],
                    "source": [ "obj-4880", 0 ]
                }
            },
            {
                "patchline": {
                    "destination": [ "obj-12", 0 ],
                    "source": [ "obj-4881", 0 ]
                }
            },
            {
                "patchline": {
                    "destination": [ "obj-6", 0 ],
                    "source": [ "obj-5", 0 ]
                }
            },
            {
                "patchline": {
                    "destination": [ "obj-12", 0 ],
                    "source": [ "obj-5451", 0 ]
                }
            },
            {
                "patchline": {
                    "destination": [ "obj-174", 0 ],
                    "source": [ "obj-5452", 0 ]
                }
            },
            {
                "patchline": {
                    "destination": [ "obj-5451", 0 ],
                    "order": 0,
                    "source": [ "obj-6", 0 ]
                }
            },
            {
                "patchline": {
                    "destination": [ "obj-5452", 0 ],
                    "order": 1,
                    "source": [ "obj-6", 0 ]
                }
            },
            {
                "patchline": {
                    "destination": [ "obj-174", 0 ],
                    "source": [ "obj-7", 0 ]
                }
            },
            {
                "patchline": {
                    "destination": [ "obj-7", 2 ],
                    "source": [ "obj-8", 0 ]
                }
            },
            {
                "patchline": {
                    "destination": [ "obj-8", 0 ],
                    "source": [ "obj-9", 0 ]
                }
            }
        ]
    }
}