{
    "patcher": {
        "fileversion": 1,
        "appversion": {
            "major": 9,
            "minor": 1,
            "revision": 1,
            "architecture": "x64",
            "modernui": 1
        },
        "classnamespace": "box",
        "rect": [ 64.0, 1018.0, 1282.0, 376.0 ],
        "boxes": [
            {
                "box": {
                    "id": "obj-72",
                    "maxclass": "newobj",
                    "numinlets": 1,
                    "numoutlets": 3,
                    "outlettype": [ "float", "float", "float" ],
                    "patching_rect": [ 1584.0, 257.0, 87.0, 22.0 ],
                    "text": "unpack 0. 0. 0."
                }
            },
            {
                "box": {
                    "id": "obj-71",
                    "maxclass": "newobj",
                    "numinlets": 1,
                    "numoutlets": 3,
                    "outlettype": [ "float", "float", "float" ],
                    "patching_rect": [ 1478.0, 257.0, 87.0, 22.0 ],
                    "text": "unpack 0. 0. 0."
                }
            },
            {
                "box": {
                    "id": "obj-70",
                    "maxclass": "button",
                    "numinlets": 1,
                    "numoutlets": 1,
                    "outlettype": [ "bang" ],
                    "parameter_enable": 0,
                    "patching_rect": [ 1765.0, 71.0, 24.0, 24.0 ]
                }
            },
            {
                "box": {
                    "bgcolor": [ 0.0, 0.0, 0.0, 1.0 ],
                    "color": [ 0.996078431372549, 1.0, 0.047058823529411764, 1.0 ],
                    "id": "obj-68",
                    "maxclass": "newobj",
                    "numinlets": 0,
                    "numoutlets": 1,
                    "outlettype": [ "" ],
                    "patching_rect": [ 1757.0, 21.0, 82.0, 22.0 ],
                    "text": "r global_clock"
                }
            },
            {
                "box": {
                    "id": "obj-66",
                    "maxclass": "newobj",
                    "numinlets": 2,
                    "numoutlets": 1,
                    "outlettype": [ "float" ],
                    "patching_rect": [ 254.0, 342.5, 36.0, 22.0 ],
                    "text": "+ 90."
                }
            },
            {
                "box": {
                    "color": [ 0.996078431372549, 1.0, 0.047058823529411764, 1.0 ],
                    "id": "obj-65",
                    "maxclass": "newobj",
                    "numinlets": 0,
                    "numoutlets": 1,
                    "outlettype": [ "" ],
                    "patching_rect": [ 1109.5, 405.5, 111.0, 22.0 ],
                    "text": "r global_clock_stop"
                }
            },
            {
                "box": {
                    "id": "obj-58",
                    "maxclass": "newobj",
                    "numinlets": 1,
                    "numoutlets": 3,
                    "outlettype": [ "int", "int", "int" ],
                    "patching_rect": [ 1430.0, 109.0, 40.0, 22.0 ],
                    "text": "t i i i"
                }
            },
            {
                "box": {
                    "id": "obj-57",
                    "maxclass": "button",
                    "numinlets": 1,
                    "numoutlets": 1,
                    "outlettype": [ "bang" ],
                    "parameter_enable": 0,
                    "patching_rect": [ 1686.0, 43.0, 24.0, 24.0 ]
                }
            },
            {
                "box": {
                    "id": "obj-53",
                    "maxclass": "newobj",
                    "numinlets": 1,
                    "numoutlets": 2,
                    "outlettype": [ "bang", "int" ],
                    "patching_rect": [ 1517.0, 55.0, 29.5, 22.0 ],
                    "text": "t b i"
                }
            },
            {
                "box": {
                    "id": "obj-48",
                    "maxclass": "newobj",
                    "numinlets": 1,
                    "numoutlets": 1,
                    "outlettype": [ "" ],
                    "patching_rect": [ 1517.0, 29.0, 83.0, 22.0 ],
                    "text": "v space-count"
                }
            },
            {
                "box": {
                    "id": "obj-51",
                    "maxclass": "newobj",
                    "numinlets": 2,
                    "numoutlets": 3,
                    "outlettype": [ "bang", "bang", "int" ],
                    "patching_rect": [ 1517.0, 88.0, 40.0, 22.0 ],
                    "text": "uzi"
                }
            },
            {
                "box": {
                    "id": "obj-47",
                    "maxclass": "newobj",
                    "numinlets": 11,
                    "numoutlets": 1,
                    "outlettype": [ "" ],
                    "patching_rect": [ 1409.0, 323.0, 338.0, 22.0 ],
                    "text": "sprintf /space/state space-%i %s %f %f %f %f %f %f %f %f %f"
                }
            },
            {
                "box": {
                    "color": [ 0.023529411764706, 0.0, 1.0, 1.0 ],
                    "id": "obj-46",
                    "maxclass": "newobj",
                    "numinlets": 1,
                    "numoutlets": 4,
                    "outlettype": [ "", "", "", "" ],
                    "patching_rect": [ 1589.25, 213.0, 85.0, 22.0 ],
                    "saved_object_attributes": {
                        "embed": 0,
                        "precision": 6
                    },
                    "text": "coll space-dim"
                }
            },
            {
                "box": {
                    "color": [ 0.023529411764706, 0.0, 1.0, 1.0 ],
                    "id": "obj-92",
                    "maxclass": "newobj",
                    "numinlets": 1,
                    "numoutlets": 4,
                    "outlettype": [ "", "", "", "" ],
                    "patching_rect": [ 1690.25, 213.0, 80.0, 22.0 ],
                    "saved_object_attributes": {
                        "embed": 0,
                        "precision": 6
                    },
                    "text": "coll space-rot"
                }
            },
            {
                "box": {
                    "color": [ 0.023529411764706, 0.0, 1.0, 1.0 ],
                    "id": "obj-49",
                    "maxclass": "newobj",
                    "numinlets": 1,
                    "numoutlets": 4,
                    "outlettype": [ "", "", "", "" ],
                    "patching_rect": [ 1485.25, 209.0, 85.0, 22.0 ],
                    "saved_object_attributes": {
                        "embed": 0,
                        "precision": 6
                    },
                    "text": "coll space-pos"
                }
            },
            {
                "box": {
                    "id": "obj-45",
                    "maxclass": "newobj",
                    "numinlets": 1,
                    "numoutlets": 4,
                    "outlettype": [ "bang", "bang", "bang", "bang" ],
                    "patching_rect": [ 1026.0, 68.0, 52.0, 22.0 ],
                    "text": "t b b b b"
                }
            },
            {
                "box": {
                    "bgcolor": [ 0.0, 0.0, 0.0, 1.0 ],
                    "color": [ 0.996078431372549, 1.0, 0.047058823529411764, 1.0 ],
                    "id": "obj-43",
                    "maxclass": "newobj",
                    "numinlets": 0,
                    "numoutlets": 1,
                    "outlettype": [ "" ],
                    "patching_rect": [ 1026.0, 35.0, 112.0, 22.0 ],
                    "text": "r global_clock_start"
                }
            },
            {
                "box": {
                    "id": "obj-102",
                    "maxclass": "newobj",
                    "numinlets": 1,
                    "numoutlets": 1,
                    "outlettype": [ "" ],
                    "patching_rect": [ 1230.0, 139.0, 79.0, 22.0 ],
                    "text": "v vase-z-size"
                }
            },
            {
                "box": {
                    "id": "obj-106",
                    "maxclass": "newobj",
                    "numinlets": 1,
                    "numoutlets": 1,
                    "outlettype": [ "" ],
                    "patching_rect": [ 1140.0, 139.0, 79.0, 22.0 ],
                    "text": "v vase-y-size"
                }
            },
            {
                "box": {
                    "id": "obj-109",
                    "maxclass": "newobj",
                    "numinlets": 1,
                    "numoutlets": 1,
                    "outlettype": [ "" ],
                    "patching_rect": [ 1052.0, 139.0, 79.0, 22.0 ],
                    "text": "v vase-x-size"
                }
            },
            {
                "box": {
                    "id": "obj-41",
                    "maxclass": "comment",
                    "numinlets": 1,
                    "numoutlets": 0,
                    "patching_rect": [ 1290.5, 451.0, 98.0, 20.0 ],
                    "text": "Delete all agents"
                }
            },
            {
                "box": {
                    "id": "obj-40",
                    "maxclass": "message",
                    "numinlets": 2,
                    "numoutlets": 1,
                    "outlettype": [ "" ],
                    "patching_rect": [ 1109.5, 445.0, 79.0, 22.0 ],
                    "text": "/spaces/clear"
                }
            },
            {
                "box": {
                    "id": "obj-33",
                    "maxclass": "comment",
                    "numinlets": 1,
                    "numoutlets": 0,
                    "patching_rect": [ 1242.0, 341.0, 351.0, 20.0 ],
                    "text": "Delete agent on remote side (most likely will only ever use clear)"
                }
            },
            {
                "box": {
                    "id": "obj-29",
                    "maxclass": "newobj",
                    "numinlets": 1,
                    "numoutlets": 1,
                    "outlettype": [ "" ],
                    "patching_rect": [ 1061.0, 340.0, 176.0, 22.0 ],
                    "text": "sprintf /space/remove space-%i"
                }
            },
            {
                "box": {
                    "id": "obj-26",
                    "maxclass": "comment",
                    "numinlets": 1,
                    "numoutlets": 0,
                    "patching_rect": [ 1593.0, 110.0, 321.0, 20.0 ],
                    "text": "/space/state id name x y z width height depth yaw pitch roll"
                }
            },
            {
                "box": {
                    "id": "obj-15",
                    "maxclass": "comment",
                    "numinlets": 1,
                    "numoutlets": 0,
                    "patching_rect": [ 1233.0, 211.0, 66.0, 20.0 ],
                    "text": "VASE Size"
                }
            },
            {
                "box": {
                    "id": "obj-11",
                    "maxclass": "newobj",
                    "numinlets": 3,
                    "numoutlets": 1,
                    "outlettype": [ "" ],
                    "patching_rect": [ 1070.0, 210.0, 158.0, 22.0 ],
                    "text": "sprintf /world/state %f %f %f"
                }
            },
            {
                "box": {
                    "id": "obj-12",
                    "maxclass": "comment",
                    "numinlets": 1,
                    "numoutlets": 0,
                    "patching_rect": [ 188.0, 14.0, 155.0, 20.0 ],
                    "text": "Receive remote player data"
                }
            },
            {
                "box": {
                    "id": "obj-10",
                    "maxclass": "newobj",
                    "numinlets": 2,
                    "numoutlets": 1,
                    "outlettype": [ "" ],
                    "patching_rect": [ 39.0, 101.0, 52.0, 22.0 ],
                    "text": "gate 1 1"
                }
            },
            {
                "box": {
                    "comment": "",
                    "id": "obj-6",
                    "index": 2,
                    "maxclass": "inlet",
                    "numinlets": 0,
                    "numoutlets": 1,
                    "outlettype": [ "int" ],
                    "patching_rect": [ 490.0, 20.0, 30.0, 30.0 ]
                }
            },
            {
                "box": {
                    "comment": "",
                    "id": "obj-4",
                    "index": 1,
                    "maxclass": "inlet",
                    "numinlets": 0,
                    "numoutlets": 1,
                    "outlettype": [ "int" ],
                    "patching_rect": [ 147.0, 12.0, 30.0, 30.0 ]
                }
            },
            {
                "box": {
                    "id": "obj-54",
                    "linecount": 2,
                    "maxclass": "comment",
                    "numinlets": 1,
                    "numoutlets": 0,
                    "patching_rect": [ 234.0, 265.0, 151.0, 33.0 ],
                    "text": "May need smoother interp here."
                }
            },
            {
                "box": {
                    "id": "obj-52",
                    "maxclass": "message",
                    "numinlets": 2,
                    "numoutlets": 1,
                    "outlettype": [ "" ],
                    "patching_rect": [ 59.0, 429.0, 130.0, 22.0 ],
                    "text": "1 2.76 1.83 5."
                }
            },
            {
                "box": {
                    "id": "obj-50",
                    "maxclass": "newobj",
                    "numinlets": 3,
                    "numoutlets": 1,
                    "outlettype": [ "" ],
                    "patcher": {
                        "fileversion": 1,
                        "appversion": {
                            "major": 9,
                            "minor": 1,
                            "revision": 1,
                            "architecture": "x64",
                            "modernui": 1
                        },
                        "classnamespace": "box",
                        "rect": [ 1141.0, 353.0, 403.0, 318.0 ],
                        "boxes": [
                            {
                                "box": {
                                    "comment": "",
                                    "id": "obj-1",
                                    "index": 1,
                                    "maxclass": "outlet",
                                    "numinlets": 1,
                                    "numoutlets": 0,
                                    "patching_rect": [ 50.0, 258.0, 30.0, 30.0 ]
                                }
                            },
                            {
                                "box": {
                                    "id": "obj-45",
                                    "maxclass": "newobj",
                                    "numinlets": 3,
                                    "numoutlets": 1,
                                    "outlettype": [ "" ],
                                    "patching_rect": [ 50.0, 156.0, 74.0, 22.0 ],
                                    "text": "pack 0. 0. 0."
                                }
                            },
                            {
                                "box": {
                                    "bgcolor": [ 0.0, 0.0, 0.0, 1.0 ],
                                    "color": [ 0.996078431372549, 1.0, 0.047058823529411764, 1.0 ],
                                    "id": "obj-4",
                                    "maxclass": "newobj",
                                    "numinlets": 0,
                                    "numoutlets": 1,
                                    "outlettype": [ "" ],
                                    "patching_rect": [ 192.0, 101.0, 112.0, 22.0 ],
                                    "text": "r global_clock_start"
                                }
                            },
                            {
                                "box": {
                                    "id": "obj-43",
                                    "maxclass": "button",
                                    "numinlets": 1,
                                    "numoutlets": 1,
                                    "outlettype": [ "bang" ],
                                    "parameter_enable": 0,
                                    "patching_rect": [ 192.0, 137.0, 24.0, 24.0 ]
                                }
                            },
                            {
                                "box": {
                                    "id": "obj-47",
                                    "maxclass": "newobj",
                                    "numinlets": 1,
                                    "numoutlets": 1,
                                    "outlettype": [ "" ],
                                    "patching_rect": [ 192.0, 173.0, 87.0, 22.0 ],
                                    "text": "v vase-size-list"
                                }
                            },
                            {
                                "box": {
                                    "id": "obj-26",
                                    "maxclass": "newobj",
                                    "numinlets": 2,
                                    "numoutlets": 1,
                                    "outlettype": [ "" ],
                                    "patching_rect": [ 50.0, 208.0, 86.0, 22.0 ],
                                    "text": "vexpr $f1 * $f2"
                                }
                            },
                            {
                                "box": {
                                    "comment": "",
                                    "id": "obj-46",
                                    "index": 1,
                                    "maxclass": "inlet",
                                    "numinlets": 0,
                                    "numoutlets": 1,
                                    "outlettype": [ "float" ],
                                    "patching_rect": [ 49.99999857142857, 40.0, 30.0, 30.0 ]
                                }
                            },
                            {
                                "box": {
                                    "comment": "",
                                    "id": "obj-48",
                                    "index": 2,
                                    "maxclass": "inlet",
                                    "numinlets": 0,
                                    "numoutlets": 1,
                                    "outlettype": [ "float" ],
                                    "patching_rect": [ 84.99999857142856, 40.0, 30.0, 30.0 ]
                                }
                            },
                            {
                                "box": {
                                    "comment": "",
                                    "id": "obj-49",
                                    "index": 3,
                                    "maxclass": "inlet",
                                    "numinlets": 0,
                                    "numoutlets": 1,
                                    "outlettype": [ "float" ],
                                    "patching_rect": [ 119.99999857142856, 40.0, 30.0, 30.0 ]
                                }
                            }
                        ],
                        "lines": [
                            {
                                "patchline": {
                                    "destination": [ "obj-1", 0 ],
                                    "source": [ "obj-26", 0 ]
                                }
                            },
                            {
                                "patchline": {
                                    "destination": [ "obj-43", 0 ],
                                    "source": [ "obj-4", 0 ]
                                }
                            },
                            {
                                "patchline": {
                                    "destination": [ "obj-47", 0 ],
                                    "source": [ "obj-43", 0 ]
                                }
                            },
                            {
                                "patchline": {
                                    "destination": [ "obj-26", 0 ],
                                    "source": [ "obj-45", 0 ]
                                }
                            },
                            {
                                "patchline": {
                                    "destination": [ "obj-45", 0 ],
                                    "source": [ "obj-46", 0 ]
                                }
                            },
                            {
                                "patchline": {
                                    "destination": [ "obj-26", 1 ],
                                    "source": [ "obj-47", 0 ]
                                }
                            },
                            {
                                "patchline": {
                                    "destination": [ "obj-45", 1 ],
                                    "source": [ "obj-48", 0 ]
                                }
                            },
                            {
                                "patchline": {
                                    "destination": [ "obj-45", 2 ],
                                    "source": [ "obj-49", 0 ]
                                }
                            }
                        ]
                    },
                    "patching_rect": [ 81.0, 323.0, 95.0, 22.0 ],
                    "text": "p scale_to_vase"
                }
            },
            {
                "box": {
                    "id": "obj-24",
                    "linecount": 4,
                    "maxclass": "comment",
                    "numinlets": 1,
                    "numoutlets": 0,
                    "patching_rect": [ 871.0, 456.5, 150.0, 60.0 ],
                    "text": "Need to add on web:\norigin coords\n\ncolor match players",
                    "textcolor": [ 1.0, 0.0, 0.0, 1.0 ]
                }
            },
            {
                "box": {
                    "id": "obj-22",
                    "maxclass": "newobj",
                    "numinlets": 2,
                    "numoutlets": 1,
                    "outlettype": [ "float" ],
                    "patching_rect": [ 315.0, 313.0, 31.0, 22.0 ],
                    "text": "* -1."
                }
            },
            {
                "box": {
                    "id": "obj-21",
                    "maxclass": "newobj",
                    "numinlets": 2,
                    "numoutlets": 1,
                    "outlettype": [ "float" ],
                    "patching_rect": [ 254.0, 313.0, 31.0, 22.0 ],
                    "text": "* -1."
                }
            },
            {
                "box": {
                    "id": "obj-20",
                    "maxclass": "newobj",
                    "numinlets": 4,
                    "numoutlets": 1,
                    "outlettype": [ "" ],
                    "patching_rect": [ 224.0, 380.0, 110.0, 22.0 ],
                    "text": "sprintf %i %f %f %f"
                }
            },
            {
                "box": {
                    "id": "obj-18",
                    "maxclass": "newobj",
                    "numinlets": 4,
                    "numoutlets": 1,
                    "outlettype": [ "" ],
                    "patching_rect": [ 39.0, 380.0, 110.0, 22.0 ],
                    "text": "sprintf %i %f %f %f"
                }
            },
            {
                "box": {
                    "id": "obj-17",
                    "maxclass": "newobj",
                    "numinlets": 2,
                    "numoutlets": 2,
                    "outlettype": [ "", "" ],
                    "patching_rect": [ 376.0, 450.0, 55.0, 22.0 ],
                    "text": "zl.slice 3"
                }
            },
            {
                "box": {
                    "color": [ 0.10588235294117647, 0.0, 1.0, 1.0 ],
                    "id": "obj-1",
                    "maxclass": "newobj",
                    "numinlets": 1,
                    "numoutlets": 4,
                    "outlettype": [ "", "", "", "" ],
                    "patching_rect": [ 224.0, 463.0, 81.0, 22.0 ],
                    "saved_object_attributes": {
                        "embed": 0,
                        "precision": 6
                    },
                    "text": "coll player-rot"
                }
            },
            {
                "box": {
                    "color": [ 0.10588235294117647, 0.0, 1.0, 1.0 ],
                    "id": "obj-8",
                    "maxclass": "newobj",
                    "numinlets": 1,
                    "numoutlets": 4,
                    "outlettype": [ "", "", "", "" ],
                    "patching_rect": [ 39.0, 463.0, 86.0, 22.0 ],
                    "saved_object_attributes": {
                        "embed": 0,
                        "precision": 6
                    },
                    "text": "coll player-pos"
                }
            },
            {
                "box": {
                    "id": "obj-3",
                    "maxclass": "newobj",
                    "numinlets": 1,
                    "numoutlets": 8,
                    "outlettype": [ "float", "", "float", "float", "float", "float", "float", "float" ],
                    "patching_rect": [ 39.0, 248.0, 150.0, 22.0 ],
                    "text": "unpack 0. s 0. 0. 0. 0. 0. 0."
                }
            },
            {
                "box": {
                    "id": "obj-44",
                    "maxclass": "comment",
                    "numinlets": 1,
                    "numoutlets": 0,
                    "patching_rect": [ 525.0, 30.0, 199.0, 20.0 ],
                    "text": "Relay all positons to remote players"
                }
            },
            {
                "box": {
                    "id": "obj-39",
                    "maxclass": "newobj",
                    "numinlets": 2,
                    "numoutlets": 1,
                    "outlettype": [ "" ],
                    "patching_rect": [ 504.0, 236.5, 52.0, 22.0 ],
                    "text": "gate 1 1"
                }
            },
            {
                "box": {
                    "id": "obj-38",
                    "linecount": 2,
                    "maxclass": "comment",
                    "numinlets": 1,
                    "numoutlets": 0,
                    "patching_rect": [ 813.0, 236.5, 150.0, 33.0 ],
                    "text": "Tester for sending 2nd player to remote controls"
                }
            },
            {
                "box": {
                    "id": "obj-36",
                    "maxclass": "newobj",
                    "numinlets": 1,
                    "numoutlets": 2,
                    "outlettype": [ "bang", "float" ],
                    "patching_rect": [ 750.0, 195.5, 29.5, 22.0 ],
                    "text": "t b f"
                }
            },
            {
                "box": {
                    "id": "obj-35",
                    "maxclass": "newobj",
                    "numinlets": 1,
                    "numoutlets": 2,
                    "outlettype": [ "bang", "float" ],
                    "patching_rect": [ 679.0, 195.5, 29.5, 22.0 ],
                    "text": "t b f"
                }
            },
            {
                "box": {
                    "format": 6,
                    "id": "obj-34",
                    "maxclass": "flonum",
                    "numinlets": 1,
                    "numoutlets": 2,
                    "outlettype": [ "", "bang" ],
                    "parameter_enable": 0,
                    "patching_rect": [ 750.0, 166.5, 50.0, 22.0 ]
                }
            },
            {
                "box": {
                    "format": 6,
                    "id": "obj-32",
                    "maxclass": "flonum",
                    "numinlets": 1,
                    "numoutlets": 2,
                    "outlettype": [ "", "bang" ],
                    "parameter_enable": 0,
                    "patching_rect": [ 679.0, 166.5, 50.0, 22.0 ]
                }
            },
            {
                "box": {
                    "format": 6,
                    "id": "obj-30",
                    "maxclass": "flonum",
                    "numinlets": 1,
                    "numoutlets": 2,
                    "outlettype": [ "", "bang" ],
                    "parameter_enable": 0,
                    "patching_rect": [ 608.0, 166.5, 50.0, 22.0 ]
                }
            },
            {
                "box": {
                    "id": "obj-28",
                    "maxclass": "newobj",
                    "numinlets": 3,
                    "numoutlets": 1,
                    "outlettype": [ "" ],
                    "patching_rect": [ 608.0, 241.5, 172.0, 22.0 ],
                    "text": "sprintf 2. Test %f %f %f 0. 0. 0."
                }
            },
            {
                "box": {
                    "id": "obj-27",
                    "linecount": 2,
                    "maxclass": "message",
                    "numinlets": 2,
                    "numoutlets": 1,
                    "outlettype": [ "" ],
                    "patching_rect": [ 71.0, 187.0, 172.0, 35.0 ],
                    "text": "1. Rory 0.276 0.183 0.5 0. 0. 0."
                }
            },
            {
                "box": {
                    "id": "obj-25",
                    "linecount": 2,
                    "maxclass": "comment",
                    "numinlets": 1,
                    "numoutlets": 0,
                    "patching_rect": [ 526.0, 483.5, 313.0, 33.0 ],
                    "text": "Running server.js locally using node in terminal - needs to use tunneling to send HTTPS data to remote players"
                }
            },
            {
                "box": {
                    "id": "obj-19",
                    "maxclass": "newobj",
                    "numinlets": 8,
                    "numoutlets": 1,
                    "outlettype": [ "" ],
                    "patching_rect": [ 577.0, 405.5, 251.0, 22.0 ],
                    "text": "sprintf /player/state %f %s %f %f %f %f %f %f"
                }
            },
            {
                "box": {
                    "id": "obj-14",
                    "maxclass": "newobj",
                    "numinlets": 2,
                    "numoutlets": 2,
                    "outlettype": [ "", "" ],
                    "patching_rect": [ 39.0, 143.0, 105.0, 22.0 ],
                    "text": "route /player/input"
                }
            },
            {
                "box": {
                    "id": "obj-9",
                    "maxclass": "comment",
                    "numinlets": 1,
                    "numoutlets": 0,
                    "patching_rect": [ 599.0, 343.5, 212.0, 20.0 ],
                    "text": "Relay all messages to remote players:"
                }
            },
            {
                "box": {
                    "id": "obj-7",
                    "maxclass": "comment",
                    "numinlets": 1,
                    "numoutlets": 0,
                    "patching_rect": [ 599.0, 365.5, 330.0, 20.0 ],
                    "text": "/player/state playerNumber name x y z azimuth elevation roll"
                }
            },
            {
                "box": {
                    "id": "obj-5",
                    "maxclass": "newobj",
                    "numinlets": 1,
                    "numoutlets": 0,
                    "patching_rect": [ 577.0, 453.5, 138.0, 22.0 ],
                    "text": "udpsend 127.0.0.1 8001"
                }
            },
            {
                "box": {
                    "id": "obj-2",
                    "maxclass": "newobj",
                    "numinlets": 1,
                    "numoutlets": 1,
                    "outlettype": [ "" ],
                    "patching_rect": [ 28.0, 44.0, 97.0, 22.0 ],
                    "text": "udpreceive 8000"
                }
            }
        ],
        "lines": [
            {
                "patchline": {
                    "destination": [ "obj-14", 0 ],
                    "source": [ "obj-10", 0 ]
                }
            },
            {
                "patchline": {
                    "destination": [ "obj-11", 2 ],
                    "source": [ "obj-102", 0 ]
                }
            },
            {
                "patchline": {
                    "destination": [ "obj-11", 1 ],
                    "source": [ "obj-106", 0 ]
                }
            },
            {
                "patchline": {
                    "destination": [ "obj-11", 0 ],
                    "source": [ "obj-109", 0 ]
                }
            },
            {
                "patchline": {
                    "destination": [ "obj-5", 0 ],
                    "source": [ "obj-11", 0 ]
                }
            },
            {
                "patchline": {
                    "destination": [ "obj-27", 1 ],
                    "order": 1,
                    "source": [ "obj-14", 0 ]
                }
            },
            {
                "patchline": {
                    "destination": [ "obj-3", 0 ],
                    "order": 2,
                    "source": [ "obj-14", 0 ]
                }
            },
            {
                "patchline": {
                    "destination": [ "obj-39", 1 ],
                    "order": 0,
                    "source": [ "obj-14", 0 ]
                }
            },
            {
                "patchline": {
                    "destination": [ "obj-52", 1 ],
                    "order": 0,
                    "source": [ "obj-18", 0 ]
                }
            },
            {
                "patchline": {
                    "destination": [ "obj-8", 0 ],
                    "order": 1,
                    "source": [ "obj-18", 0 ]
                }
            },
            {
                "patchline": {
                    "destination": [ "obj-5", 0 ],
                    "source": [ "obj-19", 0 ]
                }
            },
            {
                "patchline": {
                    "destination": [ "obj-10", 1 ],
                    "source": [ "obj-2", 0 ]
                }
            },
            {
                "patchline": {
                    "destination": [ "obj-1", 0 ],
                    "source": [ "obj-20", 0 ]
                }
            },
            {
                "patchline": {
                    "destination": [ "obj-66", 0 ],
                    "source": [ "obj-21", 0 ]
                }
            },
            {
                "patchline": {
                    "destination": [ "obj-20", 3 ],
                    "source": [ "obj-22", 0 ]
                }
            },
            {
                "patchline": {
                    "destination": [ "obj-19", 0 ],
                    "source": [ "obj-28", 0 ]
                }
            },
            {
                "patchline": {
                    "destination": [ "obj-18", 0 ],
                    "order": 1,
                    "source": [ "obj-3", 0 ]
                }
            },
            {
                "patchline": {
                    "destination": [ "obj-20", 2 ],
                    "source": [ "obj-3", 6 ]
                }
            },
            {
                "patchline": {
                    "destination": [ "obj-20", 0 ],
                    "order": 0,
                    "source": [ "obj-3", 0 ]
                }
            },
            {
                "patchline": {
                    "destination": [ "obj-21", 0 ],
                    "source": [ "obj-3", 5 ]
                }
            },
            {
                "patchline": {
                    "destination": [ "obj-22", 0 ],
                    "source": [ "obj-3", 7 ]
                }
            },
            {
                "patchline": {
                    "destination": [ "obj-50", 2 ],
                    "source": [ "obj-3", 4 ]
                }
            },
            {
                "patchline": {
                    "destination": [ "obj-50", 1 ],
                    "source": [ "obj-3", 3 ]
                }
            },
            {
                "patchline": {
                    "destination": [ "obj-50", 0 ],
                    "source": [ "obj-3", 2 ]
                }
            },
            {
                "patchline": {
                    "destination": [ "obj-28", 0 ],
                    "source": [ "obj-30", 0 ]
                }
            },
            {
                "patchline": {
                    "destination": [ "obj-35", 0 ],
                    "source": [ "obj-32", 0 ]
                }
            },
            {
                "patchline": {
                    "destination": [ "obj-36", 0 ],
                    "source": [ "obj-34", 0 ]
                }
            },
            {
                "patchline": {
                    "destination": [ "obj-28", 1 ],
                    "source": [ "obj-35", 1 ]
                }
            },
            {
                "patchline": {
                    "destination": [ "obj-28", 0 ],
                    "source": [ "obj-35", 0 ]
                }
            },
            {
                "patchline": {
                    "destination": [ "obj-28", 2 ],
                    "source": [ "obj-36", 1 ]
                }
            },
            {
                "patchline": {
                    "destination": [ "obj-28", 0 ],
                    "source": [ "obj-36", 0 ]
                }
            },
            {
                "patchline": {
                    "destination": [ "obj-19", 0 ],
                    "source": [ "obj-39", 0 ]
                }
            },
            {
                "patchline": {
                    "destination": [ "obj-10", 0 ],
                    "source": [ "obj-4", 0 ]
                }
            },
            {
                "patchline": {
                    "destination": [ "obj-5", 0 ],
                    "source": [ "obj-40", 0 ]
                }
            },
            {
                "patchline": {
                    "destination": [ "obj-45", 0 ],
                    "source": [ "obj-43", 0 ]
                }
            },
            {
                "patchline": {
                    "destination": [ "obj-102", 0 ],
                    "source": [ "obj-45", 3 ]
                }
            },
            {
                "patchline": {
                    "destination": [ "obj-106", 0 ],
                    "source": [ "obj-45", 2 ]
                }
            },
            {
                "patchline": {
                    "destination": [ "obj-109", 0 ],
                    "source": [ "obj-45", 1 ]
                }
            },
            {
                "patchline": {
                    "destination": [ "obj-48", 0 ],
                    "source": [ "obj-45", 0 ]
                }
            },
            {
                "patchline": {
                    "destination": [ "obj-72", 0 ],
                    "source": [ "obj-46", 0 ]
                }
            },
            {
                "patchline": {
                    "destination": [ "obj-5", 0 ],
                    "source": [ "obj-47", 0 ]
                }
            },
            {
                "patchline": {
                    "destination": [ "obj-53", 0 ],
                    "source": [ "obj-48", 0 ]
                }
            },
            {
                "patchline": {
                    "destination": [ "obj-71", 0 ],
                    "source": [ "obj-49", 0 ]
                }
            },
            {
                "patchline": {
                    "destination": [ "obj-18", 1 ],
                    "source": [ "obj-50", 0 ]
                }
            },
            {
                "patchline": {
                    "destination": [ "obj-58", 0 ],
                    "source": [ "obj-51", 2 ]
                }
            },
            {
                "patchline": {
                    "destination": [ "obj-51", 1 ],
                    "source": [ "obj-53", 1 ]
                }
            },
            {
                "patchline": {
                    "destination": [ "obj-51", 0 ],
                    "source": [ "obj-53", 0 ]
                }
            },
            {
                "patchline": {
                    "destination": [ "obj-48", 0 ],
                    "source": [ "obj-57", 0 ]
                }
            },
            {
                "patchline": {
                    "destination": [ "obj-46", 0 ],
                    "order": 1,
                    "source": [ "obj-58", 2 ]
                }
            },
            {
                "patchline": {
                    "destination": [ "obj-47", 1 ],
                    "source": [ "obj-58", 1 ]
                }
            },
            {
                "patchline": {
                    "destination": [ "obj-47", 0 ],
                    "midpoints": [ 1439.5, 148.0, 1401.0, 148.0, 1401.0, 276.0, 1418.5, 276.0 ],
                    "source": [ "obj-58", 0 ]
                }
            },
            {
                "patchline": {
                    "destination": [ "obj-49", 0 ],
                    "order": 2,
                    "source": [ "obj-58", 2 ]
                }
            },
            {
                "patchline": {
                    "destination": [ "obj-92", 0 ],
                    "order": 0,
                    "source": [ "obj-58", 2 ]
                }
            },
            {
                "patchline": {
                    "destination": [ "obj-39", 0 ],
                    "source": [ "obj-6", 0 ]
                }
            },
            {
                "patchline": {
                    "destination": [ "obj-40", 0 ],
                    "source": [ "obj-65", 0 ]
                }
            },
            {
                "patchline": {
                    "destination": [ "obj-20", 1 ],
                    "source": [ "obj-66", 0 ]
                }
            },
            {
                "patchline": {
                    "destination": [ "obj-57", 0 ],
                    "order": 1,
                    "source": [ "obj-68", 0 ]
                }
            },
            {
                "patchline": {
                    "destination": [ "obj-70", 0 ],
                    "order": 0,
                    "source": [ "obj-68", 0 ]
                }
            },
            {
                "patchline": {
                    "destination": [ "obj-47", 4 ],
                    "source": [ "obj-71", 2 ]
                }
            },
            {
                "patchline": {
                    "destination": [ "obj-47", 3 ],
                    "source": [ "obj-71", 1 ]
                }
            },
            {
                "patchline": {
                    "destination": [ "obj-47", 2 ],
                    "source": [ "obj-71", 0 ]
                }
            },
            {
                "patchline": {
                    "destination": [ "obj-47", 7 ],
                    "source": [ "obj-72", 2 ]
                }
            },
            {
                "patchline": {
                    "destination": [ "obj-47", 5 ],
                    "source": [ "obj-72", 1 ]
                }
            },
            {
                "patchline": {
                    "destination": [ "obj-47", 6 ],
                    "source": [ "obj-72", 0 ]
                }
            },
            {
                "patchline": {
                    "destination": [ "obj-47", 8 ],
                    "source": [ "obj-92", 0 ]
                }
            }
        ]
    }
}