{
    "patcher": {
        "fileversion": 1,
        "appversion": {
            "major": 9,
            "minor": 1,
            "revision": 1,
            "architecture": "x64",
            "modernui": 1
        },
        "classnamespace": "box",
        "rect": [ 258.0, 333.0, 396.0, 268.0 ],
        "openinpresentation": 1,
        "toolbarvisible": 0,
        "enablehscroll": 0,
        "title": "Space Agent Preview",
        "boxes": [
            {
                "box": {
                    "id": "obj-14",
                    "maxclass": "message",
                    "numinlets": 2,
                    "numoutlets": 1,
                    "outlettype": [ "" ],
                    "patching_rect": [ 644.0, 301.0, 130.0, 22.0 ],
                    "text": "clear, append jongly.aif"
                }
            },
            {
                "box": {
                    "id": "obj-2",
                    "maxclass": "newobj",
                    "numinlets": 1,
                    "numoutlets": 1,
                    "outlettype": [ "bang" ],
                    "patching_rect": [ 644.0, 272.0, 58.0, 22.0 ],
                    "text": "loadbang"
                }
            },
            {
                "box": {
                    "fontname": "Arial",
                    "fontsize": 11.595187,
                    "id": "obj-295",
                    "maxclass": "message",
                    "numinlets": 2,
                    "numoutlets": 1,
                    "outlettype": [ "" ],
                    "patching_rect": [ 773.0, 680.0, 75.0, 21.0 ],
                    "text": "window exec"
                }
            },
            {
                "box": {
                    "fontname": "Arial",
                    "fontsize": 11.595187,
                    "id": "obj-294",
                    "maxclass": "message",
                    "numinlets": 2,
                    "numoutlets": 1,
                    "outlettype": [ "" ],
                    "patching_rect": [ 842.0, 637.0, 103.0, 21.0 ],
                    "text": "window flags float"
                }
            },
            {
                "box": {
                    "id": "obj-992",
                    "maxclass": "message",
                    "numinlets": 2,
                    "numoutlets": 1,
                    "outlettype": [ "" ],
                    "patching_rect": [ 803.0, 552.0, 45.0, 22.0 ],
                    "text": "wclose"
                }
            },
            {
                "box": {
                    "id": "obj-991",
                    "maxclass": "newobj",
                    "numinlets": 3,
                    "numoutlets": 3,
                    "outlettype": [ "bang", "bang", "" ],
                    "patching_rect": [ 771.0, 495.0, 44.0, 22.0 ],
                    "text": "sel 1 0"
                }
            },
            {
                "box": {
                    "id": "obj-990",
                    "maxclass": "newobj",
                    "numinlets": 1,
                    "numoutlets": 0,
                    "patching_rect": [ 890.0, 735.0, 98.0, 22.0 ],
                    "text": "s preview-closed"
                }
            },
            {
                "box": {
                    "id": "obj-989",
                    "maxclass": "newobj",
                    "numinlets": 1,
                    "numoutlets": 1,
                    "outlettype": [ "bang" ],
                    "patching_rect": [ 890.0, 702.0, 63.0, 22.0 ],
                    "text": "closebang"
                }
            },
            {
                "box": {
                    "id": "obj-988",
                    "maxclass": "message",
                    "numinlets": 2,
                    "numoutlets": 1,
                    "outlettype": [ "" ],
                    "patching_rect": [ 754.0, 552.0, 33.0, 22.0 ],
                    "text": "front"
                }
            },
            {
                "box": {
                    "comment": "",
                    "id": "obj-986",
                    "index": 1,
                    "maxclass": "inlet",
                    "numinlets": 0,
                    "numoutlets": 1,
                    "outlettype": [ "" ],
                    "patching_rect": [ 773.0, 449.0, 30.0, 30.0 ]
                }
            },
            {
                "box": {
                    "id": "obj-21",
                    "maxclass": "button",
                    "numinlets": 1,
                    "numoutlets": 1,
                    "outlettype": [ "bang" ],
                    "parameter_enable": 0,
                    "patching_rect": [ 579.0, 271.0, 24.0, 24.0 ]
                }
            },
            {
                "box": {
                    "id": "obj-18",
                    "maxclass": "message",
                    "numinlets": 2,
                    "numoutlets": 1,
                    "outlettype": [ "" ],
                    "patching_rect": [ 579.0, 307.0, 35.0, 22.0 ],
                    "text": "clear"
                }
            },
            {
                "box": {
                    "id": "obj-16",
                    "maxclass": "newobj",
                    "numinlets": 1,
                    "numoutlets": 1,
                    "outlettype": [ "" ],
                    "patching_rect": [ 468.0, 301.0, 96.0, 22.0 ],
                    "text": "prepend append"
                }
            },
            {
                "box": {
                    "id": "obj-11",
                    "maxclass": "comment",
                    "numinlets": 1,
                    "numoutlets": 0,
                    "patching_rect": [ 548.0, 155.5, 113.0, 20.0 ],
                    "presentation": 1,
                    "presentation_rect": [ 122.0, 126.0, 113.0, 20.0 ],
                    "text": "Drop audio file here"
                }
            },
            {
                "box": {
                    "id": "obj-7",
                    "maxclass": "dropfile",
                    "numinlets": 1,
                    "numoutlets": 2,
                    "outlettype": [ "", "" ],
                    "patching_rect": [ 519.0, 147.5, 171.0, 35.0 ],
                    "presentation": 1,
                    "presentation_rect": [ 93.0, 118.0, 171.0, 35.0 ]
                }
            },
            {
                "box": {
                    "clipheight": 29.0,
                    "data": {
                        "clips": [
                            {
                                "absolutepath": "jongly.aif",
                                "filename": "jongly.aif",
                                "filekind": "audiofile",
                                "id": "u769004047",
                                "loop": 0,
                                "content_state": {                                }
                            }
                        ]
                    },
                    "id": "obj-6",
                    "maxclass": "playlist~",
                    "mode": "basic",
                    "numinlets": 1,
                    "numoutlets": 5,
                    "outlettype": [ "signal", "signal", "signal", "", "dictionary" ],
                    "parameter_enable": 0,
                    "patching_rect": [ 579.0, 342.0, 150.0, 30.0 ],
                    "presentation": 1,
                    "presentation_rect": [ 104.0, 158.0, 150.0, 30.0 ],
                    "quality": "basic",
                    "saved_attribute_attributes": {
                        "candicane2": {
                            "expression": ""
                        },
                        "candicane3": {
                            "expression": ""
                        },
                        "candicane4": {
                            "expression": ""
                        },
                        "candicane5": {
                            "expression": ""
                        },
                        "candicane6": {
                            "expression": ""
                        },
                        "candicane7": {
                            "expression": ""
                        },
                        "candicane8": {
                            "expression": ""
                        }
                    }
                }
            },
            {
                "box": {
                    "id": "obj-37",
                    "linecount": 3,
                    "maxclass": "comment",
                    "numinlets": 1,
                    "numoutlets": 0,
                    "patching_rect": [ 493.0, 639.0, 150.0, 47.0 ],
                    "text": "how does this work if plugging in other effects other than ircamverb?..."
                }
            },
            {
                "box": {
                    "id": "obj-35",
                    "maxclass": "comment",
                    "numinlets": 1,
                    "numoutlets": 0,
                    "patching_rect": [ 713.0, 49.0, 95.0, 20.0 ],
                    "presentation": 1,
                    "presentation_rect": [ 93.0, 47.0, 95.0, 20.0 ],
                    "text": "Reverb Controls"
                }
            },
            {
                "box": {
                    "id": "obj-31",
                    "maxclass": "button",
                    "numinlets": 1,
                    "numoutlets": 1,
                    "outlettype": [ "bang" ],
                    "parameter_enable": 0,
                    "patching_rect": [ 189.0, 272.0, 24.0, 24.0 ]
                }
            },
            {
                "box": {
                    "id": "obj-28",
                    "maxclass": "comment",
                    "numinlets": 1,
                    "numoutlets": 0,
                    "patching_rect": [ 164.0, 43.5, 169.0, 20.0 ],
                    "presentation": 1,
                    "presentation_rect": [ 81.0, 16.0, 169.0, 20.0 ],
                    "text": "Target space agent to preview"
                }
            },
            {
                "box": {
                    "id": "obj-13",
                    "lastchannelcount": 0,
                    "maxclass": "live.gain~",
                    "numinlets": 2,
                    "numoutlets": 5,
                    "outlettype": [ "signal", "signal", "", "float", "list" ],
                    "parameter_enable": 1,
                    "patching_rect": [ 47.0, 386.0, 48.0, 136.0 ],
                    "presentation": 1,
                    "presentation_rect": [ 28.0, 47.0, 48.0, 136.0 ],
                    "saved_attribute_attributes": {
                        "valueof": {
                            "parameter_longname": "live.gain~[18]",
                            "parameter_mmax": 6.0,
                            "parameter_mmin": -70.0,
                            "parameter_modmode": 3,
                            "parameter_shortname": "live.gain~",
                            "parameter_type": 0,
                            "parameter_unitstyle": 4
                        }
                    },
                    "varname": "live.gain~"
                }
            },
            {
                "box": {
                    "id": "obj-65",
                    "maxclass": "newobj",
                    "numinlets": 0,
                    "numoutlets": 1,
                    "outlettype": [ "" ],
                    "patcher": {
                        "fileversion": 1,
                        "appversion": {
                            "major": 9,
                            "minor": 1,
                            "revision": 1,
                            "architecture": "x64",
                            "modernui": 1
                        },
                        "classnamespace": "box",
                        "rect": [ 59.0, 104.0, 841.0, 343.0 ],
                        "default_fontsize": 11.0,
                        "gridonopen": 2,
                        "gridsize": [ 10.0, 10.0 ],
                        "gridsnaponopen": 2,
                        "toolbarvisible": 0,
                        "boxes": [
                            {
                                "box": {
                                    "bubble": 1,
                                    "bubbleside": 2,
                                    "fontname": "Arial",
                                    "fontsize": 11.0,
                                    "id": "obj-16",
                                    "linecount": 4,
                                    "maxclass": "comment",
                                    "numinlets": 1,
                                    "numoutlets": 0,
                                    "patching_rect": [ 536.25, 23.0, 101.75, 75.0 ],
                                    "text": "sets the type of interpolation for variable/fractional delays",
                                    "textjustification": 1
                                }
                            },
                            {
                                "box": {
                                    "bubble": 1,
                                    "bubbleside": 2,
                                    "fontname": "Arial",
                                    "fontsize": 11.0,
                                    "id": "obj-2",
                                    "linecount": 4,
                                    "maxclass": "comment",
                                    "numinlets": 1,
                                    "numoutlets": 0,
                                    "patching_rect": [ 276.25, 23.0, 101.75, 75.0 ],
                                    "text": "sets the type of interpolation for variable/fractional delays",
                                    "textjustification": 1
                                }
                            },
                            {
                                "box": {
                                    "bubble": 1,
                                    "bubbleside": 2,
                                    "fontname": "Arial",
                                    "fontsize": 11.0,
                                    "id": "obj-37",
                                    "linecount": 4,
                                    "maxclass": "comment",
                                    "numinlets": 1,
                                    "numoutlets": 0,
                                    "patching_rect": [ 7.75, 23.0, 101.75, 75.0 ],
                                    "text": "sets the type of interpolation for variable/fractional delays",
                                    "textjustification": 1
                                }
                            },
                            {
                                "box": {
                                    "bubble": 1,
                                    "bubbleside": 2,
                                    "id": "obj-10",
                                    "linecount": 3,
                                    "maxclass": "comment",
                                    "numinlets": 1,
                                    "numoutlets": 0,
                                    "patching_rect": [ 640.0, 23.0, 155.0, 62.0 ],
                                    "text": "sets the interpolation time constant used when ramping the delay time",
                                    "textjustification": 1
                                }
                            },
                            {
                                "box": {
                                    "id": "obj-11",
                                    "maxclass": "newobj",
                                    "numinlets": 1,
                                    "numoutlets": 2,
                                    "outlettype": [ "", "" ],
                                    "patching_rect": [ 570.5, 179.0, 138.0, 21.0 ],
                                    "text": "spat5.osc.prepend /reverb"
                                }
                            },
                            {
                                "box": {
                                    "focusbordercolor": [ 0.0, 0.019608, 0.078431, 0.0 ],
                                    "id": "obj-12",
                                    "maxclass": "live.dial",
                                    "numinlets": 1,
                                    "numoutlets": 2,
                                    "outlettype": [ "", "float" ],
                                    "parameter_enable": 1,
                                    "patching_rect": [ 695.5, 73.5, 44.0, 48.0 ],
                                    "saved_attribute_attributes": {
                                        "focusbordercolor": {
                                            "expression": ""
                                        },
                                        "valueof": {
                                            "parameter_initial": [ 30.0 ],
                                            "parameter_initial_enable": 1,
                                            "parameter_longname": "live.dial[30]",
                                            "parameter_mmax": 1000.0,
                                            "parameter_modmode": 0,
                                            "parameter_shortname": " ",
                                            "parameter_type": 0,
                                            "parameter_unitstyle": 2
                                        }
                                    },
                                    "varname": "live.dial[2]"
                                }
                            },
                            {
                                "box": {
                                    "fontname": "Arial",
                                    "fontsize": 11.0,
                                    "id": "obj-13",
                                    "maxclass": "message",
                                    "numinlets": 2,
                                    "numoutlets": 1,
                                    "outlettype": [ "" ],
                                    "patching_rect": [ 695.5, 128.0, 113.0, 21.0 ],
                                    "text": "/interpolation/time $1"
                                }
                            },
                            {
                                "box": {
                                    "id": "obj-14",
                                    "maxclass": "live.menu",
                                    "numinlets": 1,
                                    "numoutlets": 3,
                                    "outlettype": [ "", "", "float" ],
                                    "parameter_enable": 1,
                                    "patching_rect": [ 570.5, 98.0, 100.0, 15.0 ],
                                    "saved_attribute_attributes": {
                                        "valueof": {
                                            "parameter_enum": [ "nearest", "linear", "lagrange3", "allpass", "nearestXfade", "hermite3", "watte3", "bspline3", "parabolic" ],
                                            "parameter_longname": "live.menu[36]",
                                            "parameter_mmax": 8,
                                            "parameter_modmode": 0,
                                            "parameter_shortname": "live.menu",
                                            "parameter_type": 2
                                        }
                                    },
                                    "varname": "live.menu[2]"
                                }
                            },
                            {
                                "box": {
                                    "fontname": "Arial",
                                    "fontsize": 11.0,
                                    "id": "obj-15",
                                    "maxclass": "message",
                                    "numinlets": 2,
                                    "numoutlets": 1,
                                    "outlettype": [ "" ],
                                    "patching_rect": [ 570.5, 128.0, 119.0, 21.0 ],
                                    "text": "/interpolation/mode $1"
                                }
                            },
                            {
                                "box": {
                                    "bubble": 1,
                                    "bubbleside": 2,
                                    "id": "obj-4",
                                    "linecount": 3,
                                    "maxclass": "comment",
                                    "numinlets": 1,
                                    "numoutlets": 0,
                                    "patching_rect": [ 380.0, 23.0, 155.0, 62.0 ],
                                    "text": "sets the interpolation time constant used when ramping the delay time",
                                    "textjustification": 1
                                }
                            },
                            {
                                "box": {
                                    "id": "obj-5",
                                    "maxclass": "newobj",
                                    "numinlets": 1,
                                    "numoutlets": 2,
                                    "outlettype": [ "", "" ],
                                    "patching_rect": [ 310.5, 179.0, 138.0, 21.0 ],
                                    "text": "spat5.osc.prepend /cluster"
                                }
                            },
                            {
                                "box": {
                                    "focusbordercolor": [ 0.0, 0.019608, 0.078431, 0.0 ],
                                    "id": "obj-6",
                                    "maxclass": "live.dial",
                                    "numinlets": 1,
                                    "numoutlets": 2,
                                    "outlettype": [ "", "float" ],
                                    "parameter_enable": 1,
                                    "patching_rect": [ 435.5, 73.5, 44.0, 48.0 ],
                                    "saved_attribute_attributes": {
                                        "focusbordercolor": {
                                            "expression": ""
                                        },
                                        "valueof": {
                                            "parameter_initial": [ 30.0 ],
                                            "parameter_initial_enable": 1,
                                            "parameter_longname": "live.dial[29]",
                                            "parameter_mmax": 1000.0,
                                            "parameter_modmode": 0,
                                            "parameter_shortname": " ",
                                            "parameter_type": 0,
                                            "parameter_unitstyle": 2
                                        }
                                    },
                                    "varname": "live.dial[1]"
                                }
                            },
                            {
                                "box": {
                                    "fontname": "Arial",
                                    "fontsize": 11.0,
                                    "id": "obj-7",
                                    "maxclass": "message",
                                    "numinlets": 2,
                                    "numoutlets": 1,
                                    "outlettype": [ "" ],
                                    "patching_rect": [ 435.5, 128.0, 113.0, 21.0 ],
                                    "text": "/interpolation/time $1"
                                }
                            },
                            {
                                "box": {
                                    "id": "obj-8",
                                    "maxclass": "live.menu",
                                    "numinlets": 1,
                                    "numoutlets": 3,
                                    "outlettype": [ "", "", "float" ],
                                    "parameter_enable": 1,
                                    "patching_rect": [ 310.5, 98.0, 100.0, 15.0 ],
                                    "saved_attribute_attributes": {
                                        "valueof": {
                                            "parameter_enum": [ "nearest", "linear", "lagrange3", "allpass", "nearestXfade", "hermite3", "watte3", "bspline3", "parabolic" ],
                                            "parameter_longname": "live.menu[35]",
                                            "parameter_mmax": 8,
                                            "parameter_modmode": 0,
                                            "parameter_shortname": "live.menu",
                                            "parameter_type": 2
                                        }
                                    },
                                    "varname": "live.menu[1]"
                                }
                            },
                            {
                                "box": {
                                    "fontname": "Arial",
                                    "fontsize": 11.0,
                                    "id": "obj-9",
                                    "maxclass": "message",
                                    "numinlets": 2,
                                    "numoutlets": 1,
                                    "outlettype": [ "" ],
                                    "patching_rect": [ 310.5, 128.0, 119.0, 21.0 ],
                                    "text": "/interpolation/mode $1"
                                }
                            },
                            {
                                "box": {
                                    "id": "obj-3",
                                    "maxclass": "newobj",
                                    "numinlets": 1,
                                    "numoutlets": 1,
                                    "outlettype": [ "" ],
                                    "patching_rect": [ 42.0, 240.0, 27.0, 21.0 ],
                                    "text": "thru"
                                }
                            },
                            {
                                "box": {
                                    "comment": "",
                                    "id": "obj-1",
                                    "index": 1,
                                    "maxclass": "outlet",
                                    "numinlets": 1,
                                    "numoutlets": 0,
                                    "patching_rect": [ 42.0, 280.0, 30.0, 30.0 ]
                                }
                            },
                            {
                                "box": {
                                    "bubble": 1,
                                    "bubbleside": 2,
                                    "id": "obj-24",
                                    "linecount": 3,
                                    "maxclass": "comment",
                                    "numinlets": 1,
                                    "numoutlets": 0,
                                    "patching_rect": [ 111.5, 23.0, 155.0, 62.0 ],
                                    "text": "sets the interpolation time constant used when ramping the delay time",
                                    "textjustification": 1
                                }
                            },
                            {
                                "box": {
                                    "id": "obj-55",
                                    "maxclass": "newobj",
                                    "numinlets": 1,
                                    "numoutlets": 2,
                                    "outlettype": [ "", "" ],
                                    "patching_rect": [ 42.0, 179.0, 129.0, 21.0 ],
                                    "text": "spat5.osc.prepend /early"
                                }
                            },
                            {
                                "box": {
                                    "focusbordercolor": [ 0.0, 0.019608, 0.078431, 0.0 ],
                                    "id": "obj-57",
                                    "maxclass": "live.dial",
                                    "numinlets": 1,
                                    "numoutlets": 2,
                                    "outlettype": [ "", "float" ],
                                    "parameter_enable": 1,
                                    "patching_rect": [ 167.0, 73.5, 44.0, 48.0 ],
                                    "saved_attribute_attributes": {
                                        "focusbordercolor": {
                                            "expression": ""
                                        },
                                        "valueof": {
                                            "parameter_initial": [ 30.0 ],
                                            "parameter_initial_enable": 1,
                                            "parameter_longname": "live.dial[28]",
                                            "parameter_mmax": 1000.0,
                                            "parameter_modmode": 0,
                                            "parameter_shortname": " ",
                                            "parameter_type": 0,
                                            "parameter_unitstyle": 2
                                        }
                                    },
                                    "varname": "live.dial[9]"
                                }
                            },
                            {
                                "box": {
                                    "fontname": "Arial",
                                    "fontsize": 11.0,
                                    "id": "obj-58",
                                    "maxclass": "message",
                                    "numinlets": 2,
                                    "numoutlets": 1,
                                    "outlettype": [ "" ],
                                    "patching_rect": [ 167.0, 128.0, 113.0, 21.0 ],
                                    "text": "/interpolation/time $1"
                                }
                            },
                            {
                                "box": {
                                    "id": "obj-63",
                                    "maxclass": "live.menu",
                                    "numinlets": 1,
                                    "numoutlets": 3,
                                    "outlettype": [ "", "", "float" ],
                                    "parameter_enable": 1,
                                    "patching_rect": [ 42.0, 98.0, 100.0, 15.0 ],
                                    "saved_attribute_attributes": {
                                        "valueof": {
                                            "parameter_enum": [ "nearest", "linear", "lagrange3", "allpass", "nearestXfade", "hermite3", "watte3", "bspline3", "parabolic" ],
                                            "parameter_longname": "live.menu[34]",
                                            "parameter_mmax": 8,
                                            "parameter_modmode": 0,
                                            "parameter_shortname": "live.menu",
                                            "parameter_type": 2
                                        }
                                    },
                                    "varname": "live.menu"
                                }
                            },
                            {
                                "box": {
                                    "fontname": "Arial",
                                    "fontsize": 11.0,
                                    "id": "obj-64",
                                    "maxclass": "message",
                                    "numinlets": 2,
                                    "numoutlets": 1,
                                    "outlettype": [ "" ],
                                    "patching_rect": [ 42.0, 128.0, 119.0, 21.0 ],
                                    "text": "/interpolation/mode $1"
                                }
                            }
                        ],
                        "lines": [
                            {
                                "patchline": {
                                    "destination": [ "obj-3", 0 ],
                                    "midpoints": [ 580.0, 219.5, 51.5, 219.5 ],
                                    "source": [ "obj-11", 0 ]
                                }
                            },
                            {
                                "patchline": {
                                    "destination": [ "obj-13", 0 ],
                                    "source": [ "obj-12", 0 ]
                                }
                            },
                            {
                                "patchline": {
                                    "destination": [ "obj-11", 0 ],
                                    "midpoints": [ 705.0, 163.5, 580.0, 163.5 ],
                                    "source": [ "obj-13", 0 ]
                                }
                            },
                            {
                                "patchline": {
                                    "destination": [ "obj-15", 0 ],
                                    "source": [ "obj-14", 1 ]
                                }
                            },
                            {
                                "patchline": {
                                    "destination": [ "obj-11", 0 ],
                                    "midpoints": [ 580.0, 163.5, 580.0, 163.5 ],
                                    "source": [ "obj-15", 0 ]
                                }
                            },
                            {
                                "patchline": {
                                    "destination": [ "obj-1", 0 ],
                                    "source": [ "obj-3", 0 ]
                                }
                            },
                            {
                                "patchline": {
                                    "destination": [ "obj-3", 0 ],
                                    "midpoints": [ 320.0, 219.5, 51.5, 219.5 ],
                                    "source": [ "obj-5", 0 ]
                                }
                            },
                            {
                                "patchline": {
                                    "destination": [ "obj-3", 0 ],
                                    "source": [ "obj-55", 0 ]
                                }
                            },
                            {
                                "patchline": {
                                    "destination": [ "obj-58", 0 ],
                                    "source": [ "obj-57", 0 ]
                                }
                            },
                            {
                                "patchline": {
                                    "destination": [ "obj-55", 0 ],
                                    "midpoints": [ 176.5, 163.5, 51.5, 163.5 ],
                                    "source": [ "obj-58", 0 ]
                                }
                            },
                            {
                                "patchline": {
                                    "destination": [ "obj-7", 0 ],
                                    "source": [ "obj-6", 0 ]
                                }
                            },
                            {
                                "patchline": {
                                    "destination": [ "obj-64", 0 ],
                                    "source": [ "obj-63", 1 ]
                                }
                            },
                            {
                                "patchline": {
                                    "destination": [ "obj-55", 0 ],
                                    "midpoints": [ 51.5, 163.5, 51.5, 163.5 ],
                                    "source": [ "obj-64", 0 ]
                                }
                            },
                            {
                                "patchline": {
                                    "destination": [ "obj-5", 0 ],
                                    "midpoints": [ 445.0, 163.5, 320.0, 163.5 ],
                                    "source": [ "obj-7", 0 ]
                                }
                            },
                            {
                                "patchline": {
                                    "destination": [ "obj-9", 0 ],
                                    "source": [ "obj-8", 1 ]
                                }
                            },
                            {
                                "patchline": {
                                    "destination": [ "obj-5", 0 ],
                                    "midpoints": [ 320.0, 163.5, 320.0, 163.5 ],
                                    "source": [ "obj-9", 0 ]
                                }
                            }
                        ],
                        "styles": [
                            {
                                "name": "AudioStatus_Menu",
                                "default": {
                                    "bgfillcolor": {
                                        "angle": 270.0,
                                        "autogradient": 0,
                                        "color": [ 0.294118, 0.313726, 0.337255, 1 ],
                                        "color1": [ 0.454902, 0.462745, 0.482353, 0.0 ],
                                        "color2": [ 0.290196, 0.309804, 0.301961, 1.0 ],
                                        "proportion": 0.39,
                                        "type": "color"
                                    }
                                },
                                "parentstyle": "",
                                "multi": 0
                            },
                            {
                                "name": "Default 11Bold Poletti",
                                "default": {
                                    "fontsize": [ 11.0 ]
                                },
                                "parentstyle": "",
                                "multi": 0
                            },
                            {
                                "name": "Default M4L",
                                "default": {
                                    "fontname": [ "Arial Bold" ],
                                    "fontsize": [ 11.0 ],
                                    "patchlinecolor": [ 0.290196, 0.309804, 0.301961, 0.85 ]
                                },
                                "parentstyle": "",
                                "multi": 0
                            },
                            {
                                "name": "Default M4L Poletti",
                                "default": {
                                    "fontname": [ "Arial Bold" ],
                                    "fontsize": [ 10.0 ],
                                    "patchlinecolor": [ 0.290196, 0.309804, 0.301961, 0.85 ]
                                },
                                "parentstyle": "",
                                "multi": 0
                            },
                            {
                                "name": "Default M4L-1",
                                "default": {
                                    "bgfillcolor": {
                                        "angle": 270.0,
                                        "color": [ 0.290196, 0.309804, 0.301961, 1.0 ],
                                        "color1": [ 0.376471, 0.384314, 0.4, 1.0 ],
                                        "color2": [ 0.290196, 0.309804, 0.301961, 1.0 ],
                                        "proportion": 0.39,
                                        "type": "gradient"
                                    },
                                    "fontface": [ 1 ],
                                    "fontname": [ "Arial" ],
                                    "fontsize": [ 11.0 ]
                                },
                                "parentstyle": "",
                                "multi": 0
                            },
                            {
                                "name": "Default Max7 Poletti",
                                "default": {
                                    "bgfillcolor": {
                                        "angle": 270.0,
                                        "color": [ 0.290196, 0.309804, 0.301961, 1.0 ],
                                        "color1": [ 0.376471, 0.384314, 0.4, 1.0 ],
                                        "color2": [ 0.290196, 0.309804, 0.301961, 1.0 ],
                                        "proportion": 0.39,
                                        "type": "gradient"
                                    }
                                },
                                "parentstyle": "",
                                "multi": 0
                            },
                            {
                                "name": "jbb",
                                "default": {
                                    "bgfillcolor": {
                                        "angle": 270.0,
                                        "color": [ 0.290196, 0.309804, 0.301961, 1.0 ],
                                        "color1": [ 0.376471, 0.384314, 0.4, 1.0 ],
                                        "color2": [ 0.290196, 0.309804, 0.301961, 1.0 ],
                                        "proportion": 0.39,
                                        "type": "gradient"
                                    },
                                    "fontname": [ "Arial" ],
                                    "fontsize": [ 9.0 ]
                                },
                                "parentstyle": "",
                                "multi": 0
                            },
                            {
                                "name": "ksliderWhite",
                                "default": {
                                    "color": [ 1.0, 1.0, 1.0, 1.0 ]
                                },
                                "parentstyle": "",
                                "multi": 0
                            },
                            {
                                "name": "newobjBlue-1",
                                "default": {
                                    "accentcolor": [ 0.317647, 0.654902, 0.976471, 1.0 ]
                                },
                                "parentstyle": "",
                                "multi": 0
                            },
                            {
                                "name": "newobjGreen-1",
                                "default": {
                                    "accentcolor": [ 0.0, 0.533333, 0.168627, 1.0 ]
                                },
                                "parentstyle": "",
                                "multi": 0
                            },
                            {
                                "name": "numberGold-1",
                                "default": {
                                    "accentcolor": [ 0.764706, 0.592157, 0.101961, 1.0 ]
                                },
                                "parentstyle": "",
                                "multi": 0
                            }
                        ]
                    },
                    "patching_rect": [ 1148.0, 245.0, 125.0, 22.0 ],
                    "saved_object_attributes": {
                        "fontsize": 11.0
                    },
                    "text": "p delays_interpolation"
                }
            },
            {
                "box": {
                    "bgmode": 0,
                    "border": 0,
                    "clickthrough": 0,
                    "enablehscroll": 0,
                    "enablevscroll": 0,
                    "id": "obj-76",
                    "lockeddragscroll": 0,
                    "lockedsize": 0,
                    "maxclass": "bpatcher",
                    "name": "spat5.gui.control.maxpat",
                    "numinlets": 1,
                    "numoutlets": 1,
                    "offset": [ 0.0, 0.0 ],
                    "outlettype": [ "" ],
                    "patching_rect": [ 713.0, 74.0, 292.0, 39.5 ],
                    "presentation": 1,
                    "presentation_rect": [ 93.0, 72.0, 292.0, 39.5 ],
                    "viewvisibility": 1
                }
            },
            {
                "box": {
                    "id": "obj-33",
                    "maxclass": "newobj",
                    "numinlets": 1,
                    "numoutlets": 3,
                    "outlettype": [ "", "", "" ],
                    "patching_rect": [ 803.0, 126.0, 340.0, 22.0 ],
                    "saved_object_attributes": {
                        "parameter_enable": 0
                    },
                    "text": "spat5.viewer @initwith \"/source/number 1, /speaker/number 1\"",
                    "varname": "spat5.viewer"
                }
            },
            {
                "box": {
                    "fontname": "Arial",
                    "fontsize": 11.0,
                    "id": "obj-34",
                    "maxclass": "newobj",
                    "numinlets": 1,
                    "numoutlets": 1,
                    "outlettype": [ "" ],
                    "patching_rect": [ 803.0, 320.0, 29.0, 21.0 ],
                    "text": "thru"
                }
            },
            {
                "box": {
                    "fontname": "Arial",
                    "fontsize": 11.0,
                    "id": "obj-39",
                    "maxclass": "newobj",
                    "numinlets": 1,
                    "numoutlets": 1,
                    "outlettype": [ "" ],
                    "patching_rect": [ 803.0, 197.0, 29.0, 21.0 ],
                    "text": "thru"
                }
            },
            {
                "box": {
                    "fontname": "Arial",
                    "fontsize": 11.0,
                    "id": "obj-40",
                    "maxclass": "newobj",
                    "numinlets": 1,
                    "numoutlets": 2,
                    "outlettype": [ "", "" ],
                    "patching_rect": [ 803.0, 244.0, 329.0, 21.0 ],
                    "saved_object_attributes": {
                        "parameter_enable": 0
                    },
                    "text": "spat5.ircamverb @initwith \"/source/number 1, /speaker/number 1\"",
                    "varname": "spat5.ircamverb"
                }
            },
            {
                "box": {
                    "fontname": "Arial",
                    "fontsize": 11.0,
                    "id": "obj-41",
                    "maxclass": "newobj",
                    "numinlets": 1,
                    "numoutlets": 2,
                    "outlettype": [ "signal", "" ],
                    "patching_rect": [ 804.0, 390.0, 288.0, 21.0 ],
                    "saved_object_attributes": {
                        "parameter_enable": 0
                    },
                    "text": "spat5.ircamverb~ @sources 1 @speakers 1 @internals 8"
                }
            },
            {
                "box": {
                    "id": "obj-26",
                    "maxclass": "number",
                    "numinlets": 1,
                    "numoutlets": 2,
                    "outlettype": [ "", "bang" ],
                    "parameter_enable": 0,
                    "patching_rect": [ 110.0, 42.5, 50.0, 22.0 ],
                    "presentation": 1,
                    "presentation_rect": [ 27.0, 15.0, 50.0, 22.0 ]
                }
            },
            {
                "box": {
                    "id": "obj-24",
                    "maxclass": "newobj",
                    "numinlets": 1,
                    "numoutlets": 0,
                    "patching_rect": [ 55.0, 277.5, 32.0, 22.0 ],
                    "text": "print"
                }
            },
            {
                "box": {
                    "id": "obj-23",
                    "maxclass": "message",
                    "numinlets": 2,
                    "numoutlets": 1,
                    "outlettype": [ "" ],
                    "patching_rect": [ 59.0, 154.5, 39.0, 22.0 ],
                    "text": "dump"
                }
            },
            {
                "box": {
                    "id": "obj-19",
                    "maxclass": "newobj",
                    "numinlets": 1,
                    "numoutlets": 1,
                    "outlettype": [ "" ],
                    "patching_rect": [ 110.0, 107.5, 167.0, 22.0 ],
                    "text": "sprintf refer %i_room_params"
                }
            },
            {
                "box": {
                    "id": "obj-80",
                    "maxclass": "newobj",
                    "numinlets": 1,
                    "numoutlets": 4,
                    "outlettype": [ "", "", "", "" ],
                    "patching_rect": [ 110.0, 198.5, 50.5, 22.0 ],
                    "saved_object_attributes": {
                        "embed": 0,
                        "precision": 6
                    },
                    "text": "coll"
                }
            },
            {
                "box": {
                    "id": "obj-30",
                    "maxclass": "spat5.osc.view",
                    "numinlets": 1,
                    "numoutlets": 3,
                    "outlettype": [ "", "int", "" ],
                    "parameter_enable": 0,
                    "patching_rect": [ 1116.0, 361.0, 415.0, 324.0 ]
                }
            },
            {
                "box": {
                    "id": "obj-12",
                    "linecount": 3,
                    "maxclass": "comment",
                    "numinlets": 1,
                    "numoutlets": 0,
                    "patching_rect": [ 238.0, 537.0, 158.0, 47.0 ],
                    "presentation": 1,
                    "presentation_linecount": 3,
                    "presentation_rect": [ 87.0, 206.0, 158.0, 47.0 ],
                    "text": "Enter channel numbers for 2-channel output monitoring\n(Defaults to 1 & 2)"
                }
            },
            {
                "box": {
                    "id": "obj-10",
                    "maxclass": "message",
                    "numinlets": 2,
                    "numoutlets": 1,
                    "outlettype": [ "" ],
                    "patching_rect": [ 156.0, 509.0, 45.0, 22.0 ],
                    "text": "set 1 2"
                }
            },
            {
                "box": {
                    "format": 8,
                    "id": "obj-8",
                    "maxclass": "number",
                    "numinlets": 1,
                    "numoutlets": 2,
                    "outlettype": [ "", "bang" ],
                    "parameter_enable": 0,
                    "patching_rect": [ 156.0, 549.0, 80.0, 22.0 ],
                    "presentation": 1,
                    "presentation_rect": [ 23.0, 219.0, 58.0, 22.0 ]
                }
            },
            {
                "box": {
                    "id": "obj-5",
                    "maxclass": "newobj",
                    "numinlets": 2,
                    "numoutlets": 0,
                    "patching_rect": [ 47.0, 602.0, 55.0, 22.0 ],
                    "text": "dac~ 1 2"
                }
            },
            {
                "box": {
                    "id": "obj-4",
                    "maxclass": "newobj",
                    "numinlets": 1,
                    "numoutlets": 1,
                    "outlettype": [ "bang" ],
                    "patching_rect": [ 529.0, 468.0, 58.0, 22.0 ],
                    "text": "loadbang"
                }
            },
            {
                "box": {
                    "id": "obj-3",
                    "maxclass": "message",
                    "numinlets": 2,
                    "numoutlets": 1,
                    "outlettype": [ "" ],
                    "patching_rect": [ 529.0, 503.0, 145.0, 22.0 ],
                    "text": "title Space Agent Preview"
                }
            },
            {
                "box": {
                    "id": "obj-1",
                    "maxclass": "newobj",
                    "numinlets": 1,
                    "numoutlets": 2,
                    "outlettype": [ "", "" ],
                    "patching_rect": [ 842.0, 824.0, 67.0, 22.0 ],
                    "save": [ "#N", "thispatcher", ";", "#Q", "end", ";" ],
                    "text": "thispatcher"
                }
            }
        ],
        "lines": [
            {
                "patchline": {
                    "destination": [ "obj-8", 0 ],
                    "source": [ "obj-10", 0 ]
                }
            },
            {
                "patchline": {
                    "destination": [ "obj-5", 1 ],
                    "source": [ "obj-13", 1 ]
                }
            },
            {
                "patchline": {
                    "destination": [ "obj-5", 0 ],
                    "source": [ "obj-13", 0 ]
                }
            },
            {
                "patchline": {
                    "destination": [ "obj-6", 0 ],
                    "source": [ "obj-14", 0 ]
                }
            },
            {
                "patchline": {
                    "destination": [ "obj-6", 0 ],
                    "source": [ "obj-16", 0 ]
                }
            },
            {
                "patchline": {
                    "destination": [ "obj-6", 0 ],
                    "source": [ "obj-18", 0 ]
                }
            },
            {
                "patchline": {
                    "destination": [ "obj-23", 0 ],
                    "order": 1,
                    "source": [ "obj-19", 0 ]
                }
            },
            {
                "patchline": {
                    "destination": [ "obj-80", 0 ],
                    "order": 0,
                    "source": [ "obj-19", 0 ]
                }
            },
            {
                "patchline": {
                    "destination": [ "obj-14", 0 ],
                    "source": [ "obj-2", 0 ]
                }
            },
            {
                "patchline": {
                    "destination": [ "obj-18", 0 ],
                    "source": [ "obj-21", 0 ]
                }
            },
            {
                "patchline": {
                    "destination": [ "obj-80", 0 ],
                    "source": [ "obj-23", 0 ]
                }
            },
            {
                "patchline": {
                    "destination": [ "obj-19", 0 ],
                    "source": [ "obj-26", 0 ]
                }
            },
            {
                "patchline": {
                    "destination": [ "obj-1", 0 ],
                    "source": [ "obj-294", 0 ]
                }
            },
            {
                "patchline": {
                    "destination": [ "obj-1", 0 ],
                    "source": [ "obj-295", 0 ]
                }
            },
            {
                "patchline": {
                    "destination": [ "obj-1", 0 ],
                    "source": [ "obj-3", 0 ]
                }
            },
            {
                "patchline": {
                    "destination": [ "obj-40", 0 ],
                    "source": [ "obj-31", 0 ]
                }
            },
            {
                "patchline": {
                    "destination": [ "obj-39", 0 ],
                    "source": [ "obj-33", 0 ]
                }
            },
            {
                "patchline": {
                    "destination": [ "obj-30", 0 ],
                    "order": 0,
                    "source": [ "obj-34", 0 ]
                }
            },
            {
                "patchline": {
                    "destination": [ "obj-41", 0 ],
                    "order": 1,
                    "source": [ "obj-34", 0 ]
                }
            },
            {
                "patchline": {
                    "destination": [ "obj-40", 0 ],
                    "source": [ "obj-39", 0 ]
                }
            },
            {
                "patchline": {
                    "destination": [ "obj-10", 0 ],
                    "order": 1,
                    "source": [ "obj-4", 0 ]
                }
            },
            {
                "patchline": {
                    "destination": [ "obj-3", 0 ],
                    "order": 0,
                    "source": [ "obj-4", 0 ]
                }
            },
            {
                "patchline": {
                    "destination": [ "obj-34", 0 ],
                    "source": [ "obj-40", 0 ]
                }
            },
            {
                "patchline": {
                    "destination": [ "obj-13", 1 ],
                    "order": 0,
                    "source": [ "obj-41", 0 ]
                }
            },
            {
                "patchline": {
                    "destination": [ "obj-13", 0 ],
                    "order": 1,
                    "source": [ "obj-41", 0 ]
                }
            },
            {
                "patchline": {
                    "destination": [ "obj-41", 0 ],
                    "source": [ "obj-6", 0 ]
                }
            },
            {
                "patchline": {
                    "destination": [ "obj-34", 0 ],
                    "source": [ "obj-65", 0 ]
                }
            },
            {
                "patchline": {
                    "destination": [ "obj-16", 0 ],
                    "order": 1,
                    "source": [ "obj-7", 0 ]
                }
            },
            {
                "patchline": {
                    "destination": [ "obj-21", 0 ],
                    "order": 0,
                    "source": [ "obj-7", 0 ]
                }
            },
            {
                "patchline": {
                    "destination": [ "obj-39", 0 ],
                    "source": [ "obj-76", 0 ]
                }
            },
            {
                "patchline": {
                    "destination": [ "obj-5", 0 ],
                    "source": [ "obj-8", 0 ]
                }
            },
            {
                "patchline": {
                    "destination": [ "obj-24", 0 ],
                    "order": 1,
                    "source": [ "obj-80", 0 ]
                }
            },
            {
                "patchline": {
                    "destination": [ "obj-31", 0 ],
                    "source": [ "obj-80", 3 ]
                }
            },
            {
                "patchline": {
                    "destination": [ "obj-40", 0 ],
                    "order": 0,
                    "source": [ "obj-80", 0 ]
                }
            },
            {
                "patchline": {
                    "destination": [ "obj-991", 0 ],
                    "source": [ "obj-986", 0 ]
                }
            },
            {
                "patchline": {
                    "destination": [ "obj-1", 0 ],
                    "source": [ "obj-988", 0 ]
                }
            },
            {
                "patchline": {
                    "destination": [ "obj-990", 0 ],
                    "source": [ "obj-989", 0 ]
                }
            },
            {
                "patchline": {
                    "destination": [ "obj-294", 0 ],
                    "order": 0,
                    "source": [ "obj-991", 0 ]
                }
            },
            {
                "patchline": {
                    "destination": [ "obj-295", 0 ],
                    "order": 1,
                    "source": [ "obj-991", 0 ]
                }
            },
            {
                "patchline": {
                    "destination": [ "obj-988", 0 ],
                    "order": 2,
                    "source": [ "obj-991", 0 ]
                }
            },
            {
                "patchline": {
                    "destination": [ "obj-992", 0 ],
                    "source": [ "obj-991", 1 ]
                }
            },
            {
                "patchline": {
                    "destination": [ "obj-1", 0 ],
                    "source": [ "obj-992", 0 ]
                }
            }
        ]
    }
}