{
    "patcher": {
        "fileversion": 1,
        "appversion": {
            "major": 9,
            "minor": 1,
            "revision": 1,
            "architecture": "x64",
            "modernui": 1
        },
        "classnamespace": "box",
        "rect": [ 302.0, 574.0, 1568.0, 758.0 ],
        "boxes": [
            {
                "box": {
                    "id": "obj-28",
                    "maxclass": "newobj",
                    "numinlets": 1,
                    "numoutlets": 1,
                    "outlettype": [ "" ],
                    "patching_rect": [ 732.0, 537.0, 36.0, 22.0 ],
                    "text": "defer"
                }
            },
            {
                "box": {
                    "id": "obj-27",
                    "maxclass": "message",
                    "numinlets": 2,
                    "numoutlets": 1,
                    "outlettype": [ "" ],
                    "patching_rect": [ 732.0, 578.0, 50.0, 22.0 ],
                    "text": "dispose"
                }
            },
            {
                "box": {
                    "id": "obj-8",
                    "maxclass": "message",
                    "numinlets": 2,
                    "numoutlets": 1,
                    "outlettype": [ "" ],
                    "patching_rect": [ 928.0, 417.0, 50.0, 22.0 ],
                    "text": "#1"
                }
            },
            {
                "box": {
                    "id": "obj-7",
                    "maxclass": "newobj",
                    "numinlets": 1,
                    "numoutlets": 1,
                    "outlettype": [ "" ],
                    "patching_rect": [ 917.0, 517.0, 141.0, 22.0 ],
                    "text": "sprintf event_ubutton_%i"
                }
            },
            {
                "box": {
                    "id": "obj-2",
                    "maxclass": "newobj",
                    "numinlets": 1,
                    "numoutlets": 1,
                    "outlettype": [ "" ],
                    "patching_rect": [ 928.0, 474.0, 130.0, 22.0 ],
                    "text": "sprintf event_panel_%i"
                }
            },
            {
                "box": {
                    "color": [ 1.0, 0.0, 1.0, 1.0 ],
                    "id": "obj-543",
                    "maxclass": "newobj",
                    "numinlets": 1,
                    "numoutlets": 0,
                    "patching_rect": [ 903.0, 563.0, 68.0, 22.0 ],
                    "text": "s event_kill"
                }
            },
            {
                "box": {
                    "id": "obj-25",
                    "maxclass": "message",
                    "numinlets": 2,
                    "numoutlets": 1,
                    "outlettype": [ "" ],
                    "patching_rect": [ 1077.0, 417.0, 50.0, 22.0 ],
                    "text": "#1"
                }
            },
            {
                "box": {
                    "id": "obj-18",
                    "maxclass": "newobj",
                    "numinlets": 1,
                    "numoutlets": 1,
                    "outlettype": [ "" ],
                    "patching_rect": [ 161.0, 541.0, 140.0, 22.0 ],
                    "text": "sprintf remove_subevent"
                }
            },
            {
                "box": {
                    "id": "obj-16",
                    "maxclass": "newobj",
                    "numinlets": 1,
                    "numoutlets": 1,
                    "outlettype": [ "" ],
                    "patching_rect": [ 1077.0, 452.0, 166.0, 22.0 ],
                    "text": "sprintf delete_event event_%i"
                }
            },
            {
                "box": {
                    "id": "obj-14",
                    "maxclass": "newobj",
                    "numinlets": 1,
                    "numoutlets": 1,
                    "outlettype": [ "" ],
                    "patching_rect": [ 979.0, 300.0, 77.0, 22.0 ],
                    "text": "loadmess #1"
                }
            },
            {
                "box": {
                    "id": "obj-12",
                    "maxclass": "newobj",
                    "numinlets": 1,
                    "numoutlets": 3,
                    "outlettype": [ "bang", "bang", "bang" ],
                    "patching_rect": [ 1007.0, 366.0, 42.0, 22.0 ],
                    "text": "t b b b"
                }
            },
            {
                "box": {
                    "id": "obj-89",
                    "maxclass": "message",
                    "numinlets": 2,
                    "numoutlets": 1,
                    "outlettype": [ "" ],
                    "patching_rect": [ 1450.0, 357.0, 50.0, 22.0 ],
                    "text": "bang"
                }
            },
            {
                "box": {
                    "id": "obj-87",
                    "maxclass": "message",
                    "numinlets": 2,
                    "numoutlets": 1,
                    "outlettype": [ "" ],
                    "patching_rect": [ 1248.0, 344.0, 50.0, 22.0 ]
                }
            },
            {
                "box": {
                    "id": "obj-85",
                    "maxclass": "message",
                    "numinlets": 2,
                    "numoutlets": 1,
                    "outlettype": [ "" ],
                    "patching_rect": [ 1112.0, 351.0, 50.0, 22.0 ],
                    "text": "bang"
                }
            },
            {
                "box": {
                    "id": "obj-83",
                    "linecount": 2,
                    "maxclass": "newobj",
                    "numinlets": 2,
                    "numoutlets": 3,
                    "outlettype": [ "", "bang", "bang" ],
                    "patching_rect": [ 1090.0, 300.0, 397.0, 35.0 ],
                    "text": "dialog Are you sure you'd like to delete this event from the composition? THIS CANNOT BE UNDONE! @mode 4"
                }
            },
            {
                "box": {
                    "activebgcolor": [ 1.0, 0.349019607843137, 0.372549019607843, 1.0 ],
                    "activetextcolor": [ 0.079348079365577, 0.07934804057877, 0.079348050547289, 1.0 ],
                    "bgcolor": [ 0.0, 0.854901960784314, 0.282352941176471, 1.0 ],
                    "hint": "Delete this event from the timeline.",
                    "id": "obj-80",
                    "maxclass": "live.text",
                    "mode": 0,
                    "numinlets": 1,
                    "numoutlets": 2,
                    "outlettype": [ "", "" ],
                    "parameter_enable": 1,
                    "patching_rect": [ 1090.0, 257.0, 39.0, 25.0 ],
                    "presentation": 1,
                    "presentation_rect": [ 290.0, 19.5, 39.0, 21.0 ],
                    "saved_attribute_attributes": {
                        "activebgcolor": {
                            "expression": "themecolor.live_record"
                        },
                        "activetextcolor": {
                            "expression": "themecolor.live_meter_bg"
                        },
                        "bgcolor": {
                            "expression": "themecolor.live_macro_assignment"
                        },
                        "valueof": {
                            "parameter_enum": [ "val1", "val2" ],
                            "parameter_longname": "live.text[6]",
                            "parameter_mmax": 1,
                            "parameter_modmode": 0,
                            "parameter_shortname": "live.text[13]",
                            "parameter_type": 2
                        }
                    },
                    "text": "Delete",
                    "texton": "Presets",
                    "varname": "live.text[1]"
                }
            },
            {
                "box": {
                    "color": [ 1.0, 0.0, 1.0, 1.0 ],
                    "id": "obj-526",
                    "maxclass": "newobj",
                    "numinlets": 1,
                    "numoutlets": 0,
                    "patching_rect": [ 1077.0, 493.0, 97.0, 22.0 ],
                    "text": "s event_updates"
                }
            },
            {
                "box": {
                    "id": "obj-6",
                    "linecount": 2,
                    "maxclass": "comment",
                    "numinlets": 1,
                    "numoutlets": 0,
                    "patching_rect": [ 280.0, 234.0, 221.0, 33.0 ],
                    "text": "need logic here to spawn all subevents at a given event for a composition "
                }
            },
            {
                "box": {
                    "id": "obj-5",
                    "maxclass": "newobj",
                    "numinlets": 1,
                    "numoutlets": 1,
                    "outlettype": [ "bang" ],
                    "patching_rect": [ 1063.0, 613.0, 58.0, 22.0 ],
                    "text": "loadbang"
                }
            },
            {
                "box": {
                    "id": "obj-4",
                    "maxclass": "comment",
                    "numinlets": 1,
                    "numoutlets": 0,
                    "patching_rect": [ 914.0, 664.0, 207.0, 20.0 ],
                    "text": "when new or clicked on, bring to front"
                }
            },
            {
                "box": {
                    "comment": "",
                    "id": "obj-1",
                    "index": 0,
                    "maxclass": "inlet",
                    "numinlets": 0,
                    "numoutlets": 1,
                    "outlettype": [ "" ],
                    "patching_rect": [ 1150.0, 609.0, 30.0, 30.0 ]
                }
            },
            {
                "box": {
                    "id": "obj-31",
                    "maxclass": "message",
                    "numinlets": 2,
                    "numoutlets": 1,
                    "outlettype": [ "" ],
                    "patching_rect": [ 1150.0, 663.0, 33.0, 22.0 ],
                    "text": "front"
                }
            },
            {
                "box": {
                    "id": "obj-26",
                    "maxclass": "comment",
                    "numinlets": 1,
                    "numoutlets": 0,
                    "patching_rect": [ 723.0, 29.0, 347.0, 20.0 ],
                    "text": "can change event time inside of event, update visual on change"
                }
            },
            {
                "box": {
                    "id": "obj-24",
                    "maxclass": "comment",
                    "numinlets": 1,
                    "numoutlets": 0,
                    "patching_rect": [ 667.0, 10.0, 24.0, 20.0 ],
                    "presentation": 1,
                    "presentation_rect": [ 255.0, 3.0, 24.0, 20.0 ],
                    "text": "ms"
                }
            },
            {
                "box": {
                    "id": "obj-23",
                    "maxclass": "comment",
                    "numinlets": 1,
                    "numoutlets": 0,
                    "patching_rect": [ 620.0, 10.0, 19.0, 20.0 ],
                    "presentation": 1,
                    "presentation_rect": [ 212.0, 3.0, 19.0, 20.0 ],
                    "text": "s"
                }
            },
            {
                "box": {
                    "id": "obj-22",
                    "maxclass": "comment",
                    "numinlets": 1,
                    "numoutlets": 0,
                    "patching_rect": [ 568.0, 10.0, 19.0, 20.0 ],
                    "presentation": 1,
                    "presentation_rect": [ 160.0, 3.0, 19.0, 20.0 ],
                    "text": "m"
                }
            },
            {
                "box": {
                    "id": "obj-21",
                    "maxclass": "comment",
                    "numinlets": 1,
                    "numoutlets": 0,
                    "patching_rect": [ 516.0, 10.0, 19.0, 20.0 ],
                    "presentation": 1,
                    "presentation_rect": [ 109.0, 3.0, 19.0, 20.0 ],
                    "text": "h"
                }
            },
            {
                "box": {
                    "id": "obj-19",
                    "maxclass": "number",
                    "numinlets": 1,
                    "numoutlets": 2,
                    "outlettype": [ "", "bang" ],
                    "parameter_enable": 0,
                    "patching_rect": [ 641.0, 28.0, 50.0, 22.0 ],
                    "presentation": 1,
                    "presentation_rect": [ 229.0, 19.0, 50.0, 22.0 ]
                }
            },
            {
                "box": {
                    "id": "obj-17",
                    "maxclass": "number",
                    "numinlets": 1,
                    "numoutlets": 2,
                    "outlettype": [ "", "bang" ],
                    "parameter_enable": 0,
                    "patching_rect": [ 589.0, 28.0, 50.0, 22.0 ],
                    "presentation": 1,
                    "presentation_rect": [ 177.0, 19.0, 50.0, 22.0 ]
                }
            },
            {
                "box": {
                    "id": "obj-15",
                    "maxclass": "number",
                    "numinlets": 1,
                    "numoutlets": 2,
                    "outlettype": [ "", "bang" ],
                    "parameter_enable": 0,
                    "patching_rect": [ 537.0, 28.0, 50.0, 22.0 ],
                    "presentation": 1,
                    "presentation_rect": [ 125.0, 19.0, 50.0, 22.0 ]
                }
            },
            {
                "box": {
                    "id": "obj-13",
                    "maxclass": "number",
                    "numinlets": 1,
                    "numoutlets": 2,
                    "outlettype": [ "", "bang" ],
                    "parameter_enable": 0,
                    "patching_rect": [ 485.0, 28.0, 50.0, 22.0 ],
                    "presentation": 1,
                    "presentation_rect": [ 73.0, 19.0, 50.0, 22.0 ]
                }
            },
            {
                "box": {
                    "id": "obj-11",
                    "maxclass": "comment",
                    "numinlets": 1,
                    "numoutlets": 0,
                    "patching_rect": [ 445.0, 29.0, 38.0, 20.0 ],
                    "presentation": 1,
                    "presentation_rect": [ 33.0, 20.0, 38.0, 20.0 ],
                    "text": "Time:"
                }
            },
            {
                "box": {
                    "id": "obj-9",
                    "maxclass": "newobj",
                    "numinlets": 1,
                    "numoutlets": 2,
                    "outlettype": [ "", "" ],
                    "patching_rect": [ 1183.0, 711.0, 67.0, 22.0 ],
                    "save": [ "#N", "thispatcher", ";", "#Q", "end", ";" ],
                    "text": "thispatcher"
                }
            },
            {
                "box": {
                    "id": "obj-49",
                    "maxclass": "message",
                    "numinlets": 2,
                    "numoutlets": 1,
                    "outlettype": [ "" ],
                    "patching_rect": [ 1236.0, 546.0, 38.0, 22.0 ],
                    "text": "event"
                }
            },
            {
                "box": {
                    "id": "obj-237",
                    "maxclass": "newobj",
                    "numinlets": 1,
                    "numoutlets": 1,
                    "outlettype": [ "" ],
                    "patching_rect": [ 1118.0, 546.0, 105.0, 22.0 ],
                    "text": "loadmess compile"
                }
            },
            {
                "box": {
                    "id": "obj-137",
                    "maxclass": "newobj",
                    "numinlets": 1,
                    "numoutlets": 1,
                    "outlettype": [ "" ],
                    "patching_rect": [ 1236.0, 601.0, 133.0, 22.0 ],
                    "text": "prepend deleteByPrefix"
                }
            },
            {
                "box": {
                    "filename": "prefix_scripting.js",
                    "id": "obj-72",
                    "maxclass": "newobj",
                    "numinlets": 1,
                    "numoutlets": 1,
                    "outlettype": [ "" ],
                    "patching_rect": [ 1236.0, 639.0, 117.0, 22.0 ],
                    "saved_object_attributes": {
                        "parameter_enable": 0
                    },
                    "text": "v8 prefix_scripting.js",
                    "textfile": {
                        "filename": "prefix_scripting.js",
                        "flags": 0,
                        "embed": 0,
                        "autowatch": 1
                    }
                }
            },
            {
                "box": {
                    "id": "obj-173",
                    "maxclass": "comment",
                    "numinlets": 1,
                    "numoutlets": 0,
                    "patching_rect": [ 1269.0, 495.0, 111.0, 20.0 ],
                    "text": "Kill scripted objects"
                }
            },
            {
                "box": {
                    "bgcolor": [ 1.0, 0.0, 0.0, 1.0 ],
                    "id": "obj-56",
                    "maxclass": "button",
                    "numinlets": 1,
                    "numoutlets": 1,
                    "outlettype": [ "bang" ],
                    "parameter_enable": 0,
                    "patching_rect": [ 1236.0, 492.0, 24.0, 24.0 ]
                }
            },
            {
                "box": {
                    "id": "obj-110",
                    "maxclass": "newobj",
                    "numinlets": 4,
                    "numoutlets": 1,
                    "outlettype": [ "" ],
                    "patching_rect": [ 25.0, 438.0, 792.0, 22.0 ],
                    "text": "sprintf script newdefault event_%i 0 %i bpatcher timeline_event_sub @args %i @clickthrough 1 @presentation 1 @presentation_rect 0. %i 248. 70."
                }
            },
            {
                "box": {
                    "activebgcolor": [ 0.57636836783545, 0.576368229540612, 0.576368265679262, 1.0 ],
                    "activetextcolor": [ 0.079348079365577, 0.07934804057877, 0.079348050547289, 1.0 ],
                    "annotation": "",
                    "bgcolor": [ 0.0, 0.854901960784314, 0.282352941176471, 1.0 ],
                    "fontsize": 13.0,
                    "hint": "Create new sub-event.",
                    "id": "obj-52",
                    "maxclass": "live.text",
                    "mode": 0,
                    "numinlets": 1,
                    "numoutlets": 2,
                    "outlettype": [ "", "" ],
                    "parameter_enable": 1,
                    "patching_rect": [ 12.0, 65.0, 18.0, 15.0 ],
                    "presentation": 1,
                    "presentation_rect": [ 5.0, 19.0, 21.0, 20.0 ],
                    "saved_attribute_attributes": {
                        "activebgcolor": {
                            "expression": "themecolor.live_control_fill_handle"
                        },
                        "activetextcolor": {
                            "expression": "themecolor.live_meter_bg"
                        },
                        "bgcolor": {
                            "expression": "themecolor.live_macro_assignment"
                        },
                        "valueof": {
                            "parameter_enum": [ "val1", "val2" ],
                            "parameter_longname": "live.text[8]",
                            "parameter_mmax": 1,
                            "parameter_modmode": 0,
                            "parameter_shortname": "live.text[13]",
                            "parameter_type": 2
                        }
                    },
                    "text": "+",
                    "texton": "-",
                    "varname": "live.text[4]"
                }
            },
            {
                "box": {
                    "id": "obj-3",
                    "linecount": 3,
                    "maxclass": "comment",
                    "numinlets": 1,
                    "numoutlets": 0,
                    "patching_rect": [ 6.0, 10.0, 403.0, 47.0 ],
                    "text": "A timeline event instance has:\n- Start time\n- sub events - list of multiple elements which may happen in this one event"
                }
            }
        ],
        "lines": [
            {
                "patchline": {
                    "destination": [ "obj-31", 0 ],
                    "source": [ "obj-1", 0 ]
                }
            },
            {
                "patchline": {
                    "destination": [ "obj-25", 0 ],
                    "source": [ "obj-12", 2 ]
                }
            },
            {
                "patchline": {
                    "destination": [ "obj-28", 0 ],
                    "source": [ "obj-12", 0 ]
                }
            },
            {
                "patchline": {
                    "destination": [ "obj-8", 0 ],
                    "source": [ "obj-12", 1 ]
                }
            },
            {
                "patchline": {
                    "destination": [ "obj-72", 0 ],
                    "source": [ "obj-137", 0 ]
                }
            },
            {
                "patchline": {
                    "destination": [ "obj-25", 1 ],
                    "order": 0,
                    "source": [ "obj-14", 0 ]
                }
            },
            {
                "patchline": {
                    "destination": [ "obj-8", 1 ],
                    "order": 1,
                    "source": [ "obj-14", 0 ]
                }
            },
            {
                "patchline": {
                    "destination": [ "obj-526", 0 ],
                    "source": [ "obj-16", 0 ]
                }
            },
            {
                "patchline": {
                    "destination": [ "obj-543", 0 ],
                    "source": [ "obj-2", 0 ]
                }
            },
            {
                "patchline": {
                    "destination": [ "obj-72", 0 ],
                    "source": [ "obj-237", 0 ]
                }
            },
            {
                "patchline": {
                    "destination": [ "obj-16", 0 ],
                    "source": [ "obj-25", 0 ]
                }
            },
            {
                "patchline": {
                    "destination": [ "obj-9", 0 ],
                    "source": [ "obj-27", 0 ]
                }
            },
            {
                "patchline": {
                    "destination": [ "obj-27", 0 ],
                    "source": [ "obj-28", 0 ]
                }
            },
            {
                "patchline": {
                    "destination": [ "obj-9", 0 ],
                    "source": [ "obj-31", 0 ]
                }
            },
            {
                "patchline": {
                    "destination": [ "obj-137", 0 ],
                    "source": [ "obj-49", 0 ]
                }
            },
            {
                "patchline": {
                    "destination": [ "obj-31", 0 ],
                    "source": [ "obj-5", 0 ]
                }
            },
            {
                "patchline": {
                    "destination": [ "obj-49", 0 ],
                    "source": [ "obj-56", 0 ]
                }
            },
            {
                "patchline": {
                    "destination": [ "obj-543", 0 ],
                    "source": [ "obj-7", 0 ]
                }
            },
            {
                "patchline": {
                    "destination": [ "obj-9", 0 ],
                    "source": [ "obj-72", 0 ]
                }
            },
            {
                "patchline": {
                    "destination": [ "obj-2", 0 ],
                    "order": 0,
                    "source": [ "obj-8", 0 ]
                }
            },
            {
                "patchline": {
                    "destination": [ "obj-7", 0 ],
                    "order": 1,
                    "source": [ "obj-8", 0 ]
                }
            },
            {
                "patchline": {
                    "destination": [ "obj-83", 0 ],
                    "source": [ "obj-80", 0 ]
                }
            },
            {
                "patchline": {
                    "destination": [ "obj-12", 0 ],
                    "order": 1,
                    "source": [ "obj-83", 0 ]
                }
            },
            {
                "patchline": {
                    "destination": [ "obj-85", 1 ],
                    "order": 0,
                    "source": [ "obj-83", 0 ]
                }
            },
            {
                "patchline": {
                    "destination": [ "obj-87", 1 ],
                    "source": [ "obj-83", 1 ]
                }
            },
            {
                "patchline": {
                    "destination": [ "obj-89", 1 ],
                    "source": [ "obj-83", 2 ]
                }
            }
        ],
        "parameters": {
            "obj-52": [ "live.text[8]", "live.text[13]", 0 ],
            "obj-80": [ "live.text[6]", "live.text[13]", 0 ],
            "parameterbanks": {
                "0": {
                    "index": 0,
                    "name": "",
                    "parameters": [ "-", "-", "-", "-", "-", "-", "-", "-" ],
                    "buttons": [ "-", "-", "-", "-", "-", "-", "-", "-" ]
                }
            },
            "inherited_shortname": 1
        },
        "autosave": 0
    }
}