{
    "patcher": {
        "fileversion": 1,
        "appversion": {
            "major": 9,
            "minor": 1,
            "revision": 1,
            "architecture": "x64",
            "modernui": 1
        },
        "classnamespace": "box",
        "rect": [ 399.0, 447.0, 1225.0, 914.0 ],
        "default_fontsize": 10.0,
        "subpatcher_template": "bigpatcher",
        "boxes": [
            {
                "box": {
                    "fontsize": 49.369033929223555,
                    "id": "obj-43",
                    "maxclass": "comment",
                    "numinlets": 1,
                    "numoutlets": 0,
                    "patching_rect": [ 940.0, 169.0, 110.0, 62.0 ],
                    "text": "OLD"
                }
            },
            {
                "box": {
                    "id": "obj-41",
                    "maxclass": "newobj",
                    "numinlets": 1,
                    "numoutlets": 1,
                    "outlettype": [ "bang" ],
                    "patching_rect": [ 580.0, 95.0, 50.0, 20.0 ],
                    "text": "loadbang"
                }
            },
            {
                "box": {
                    "id": "obj-39",
                    "maxclass": "newobj",
                    "numinlets": 1,
                    "numoutlets": 2,
                    "outlettype": [ "bang", "float" ],
                    "patching_rect": [ 590.0, 607.0, 29.5, 20.0 ],
                    "text": "t b f"
                }
            },
            {
                "box": {
                    "id": "obj-38",
                    "maxclass": "newobj",
                    "numinlets": 1,
                    "numoutlets": 2,
                    "outlettype": [ "bang", "float" ],
                    "patching_rect": [ 689.0, 618.0, 29.5, 20.0 ],
                    "text": "t b f"
                }
            },
            {
                "box": {
                    "id": "obj-37",
                    "maxclass": "button",
                    "numinlets": 1,
                    "numoutlets": 1,
                    "outlettype": [ "bang" ],
                    "parameter_enable": 0,
                    "patching_rect": [ 423.0, 582.0, 24.0, 24.0 ]
                }
            },
            {
                "box": {
                    "id": "obj-35",
                    "maxclass": "newobj",
                    "numinlets": 2,
                    "numoutlets": 1,
                    "outlettype": [ "int" ],
                    "patching_rect": [ 685.0, 394.0, 29.5, 20.0 ],
                    "text": "* #3"
                }
            },
            {
                "box": {
                    "id": "obj-34",
                    "maxclass": "newobj",
                    "numinlets": 2,
                    "numoutlets": 1,
                    "outlettype": [ "int" ],
                    "patching_rect": [ 586.0, 399.0, 29.5, 20.0 ],
                    "text": "* #1"
                }
            },
            {
                "box": {
                    "id": "obj-33",
                    "maxclass": "newobj",
                    "numinlets": 2,
                    "numoutlets": 1,
                    "outlettype": [ "int" ],
                    "patching_rect": [ 479.0, 399.0, 29.5, 20.0 ],
                    "text": "* #2"
                }
            },
            {
                "box": {
                    "id": "obj-26",
                    "maxclass": "comment",
                    "numinlets": 1,
                    "numoutlets": 0,
                    "patching_rect": [ 716.0, 539.0, 17.0, 18.0 ],
                    "text": "z"
                }
            },
            {
                "box": {
                    "id": "obj-27",
                    "maxclass": "comment",
                    "numinlets": 1,
                    "numoutlets": 0,
                    "patching_rect": [ 631.0, 536.0, 17.0, 18.0 ],
                    "text": "y"
                }
            },
            {
                "box": {
                    "id": "obj-29",
                    "maxclass": "comment",
                    "numinlets": 1,
                    "numoutlets": 0,
                    "patching_rect": [ 525.0, 536.0, 17.0, 18.0 ],
                    "text": "x"
                }
            },
            {
                "box": {
                    "format": 6,
                    "id": "obj-30",
                    "maxclass": "flonum",
                    "numinlets": 1,
                    "numoutlets": 2,
                    "outlettype": [ "", "bang" ],
                    "parameter_enable": 0,
                    "patching_rect": [ 688.0, 559.0, 50.0, 20.0 ]
                }
            },
            {
                "box": {
                    "format": 6,
                    "id": "obj-31",
                    "maxclass": "flonum",
                    "numinlets": 1,
                    "numoutlets": 2,
                    "outlettype": [ "", "bang" ],
                    "parameter_enable": 0,
                    "patching_rect": [ 596.0, 559.0, 50.0, 20.0 ]
                }
            },
            {
                "box": {
                    "format": 6,
                    "id": "obj-32",
                    "maxclass": "flonum",
                    "numinlets": 1,
                    "numoutlets": 2,
                    "outlettype": [ "", "bang" ],
                    "parameter_enable": 0,
                    "patching_rect": [ 502.0, 559.0, 50.0, 20.0 ]
                }
            },
            {
                "box": {
                    "id": "obj-24",
                    "maxclass": "button",
                    "numinlets": 1,
                    "numoutlets": 1,
                    "outlettype": [ "bang" ],
                    "parameter_enable": 0,
                    "patching_rect": [ 580.0, 146.0, 24.0, 24.0 ]
                }
            },
            {
                "box": {
                    "id": "obj-16",
                    "maxclass": "newobj",
                    "numinlets": 1,
                    "numoutlets": 1,
                    "outlettype": [ "" ],
                    "patching_rect": [ 523.0, 273.0, 21.0, 20.0 ],
                    "text": "v x"
                }
            },
            {
                "box": {
                    "id": "obj-17",
                    "maxclass": "newobj",
                    "numinlets": 1,
                    "numoutlets": 1,
                    "outlettype": [ "" ],
                    "patching_rect": [ 590.0, 273.0, 21.0, 20.0 ],
                    "text": "v y"
                }
            },
            {
                "box": {
                    "id": "obj-19",
                    "maxclass": "newobj",
                    "numinlets": 1,
                    "numoutlets": 1,
                    "outlettype": [ "" ],
                    "patching_rect": [ 685.0, 273.0, 21.0, 20.0 ],
                    "text": "v z"
                }
            },
            {
                "box": {
                    "id": "obj-15",
                    "maxclass": "newobj",
                    "numinlets": 0,
                    "numoutlets": 1,
                    "outlettype": [ "" ],
                    "patching_rect": [ 327.0, 9.0, 93.0, 20.0 ],
                    "text": "r vase-size-change"
                }
            },
            {
                "box": {
                    "id": "obj-14",
                    "maxclass": "message",
                    "numinlets": 2,
                    "numoutlets": 1,
                    "outlettype": [ "" ],
                    "patching_rect": [ 183.0, 226.0, 29.5, 20.0 ],
                    "text": "0"
                }
            },
            {
                "box": {
                    "id": "obj-13",
                    "maxclass": "message",
                    "numinlets": 2,
                    "numoutlets": 1,
                    "outlettype": [ "" ],
                    "patching_rect": [ 145.0, 226.0, 29.5, 20.0 ],
                    "text": "0"
                }
            },
            {
                "box": {
                    "id": "obj-12",
                    "maxclass": "message",
                    "numinlets": 2,
                    "numoutlets": 1,
                    "outlettype": [ "" ],
                    "patching_rect": [ 94.0, 226.0, 29.5, 20.0 ],
                    "text": "0"
                }
            },
            {
                "box": {
                    "id": "obj-121",
                    "maxclass": "newobj",
                    "numinlets": 1,
                    "numoutlets": 1,
                    "outlettype": [ "" ],
                    "patching_rect": [ 247.0, 181.0, 79.0, 20.0 ],
                    "text": "v vase-z-size"
                }
            },
            {
                "box": {
                    "id": "obj-124",
                    "maxclass": "newobj",
                    "numinlets": 1,
                    "numoutlets": 1,
                    "outlettype": [ "" ],
                    "patching_rect": [ 158.0, 181.0, 79.0, 20.0 ],
                    "text": "v vase-y-size"
                }
            },
            {
                "box": {
                    "id": "obj-125",
                    "maxclass": "newobj",
                    "numinlets": 1,
                    "numoutlets": 1,
                    "outlettype": [ "" ],
                    "patching_rect": [ 69.0, 181.0, 79.0, 20.0 ],
                    "text": "v vase-x-size"
                }
            },
            {
                "box": {
                    "id": "obj-9",
                    "maxclass": "newobj",
                    "numinlets": 3,
                    "numoutlets": 3,
                    "outlettype": [ "bang", "bang", "" ],
                    "patching_rect": [ 247.0, 135.0, 41.0, 20.0 ],
                    "text": "sel 1 -1"
                }
            },
            {
                "box": {
                    "id": "obj-8",
                    "maxclass": "newobj",
                    "numinlets": 3,
                    "numoutlets": 3,
                    "outlettype": [ "bang", "bang", "" ],
                    "patching_rect": [ 158.0, 135.0, 41.0, 20.0 ],
                    "text": "sel 1 -1"
                }
            },
            {
                "box": {
                    "id": "obj-3",
                    "maxclass": "newobj",
                    "numinlets": 3,
                    "numoutlets": 3,
                    "outlettype": [ "bang", "bang", "" ],
                    "patching_rect": [ 69.0, 135.0, 41.0, 20.0 ],
                    "text": "sel 1 -1"
                }
            },
            {
                "box": {
                    "id": "obj-6",
                    "maxclass": "newobj",
                    "numinlets": 3,
                    "numoutlets": 1,
                    "outlettype": [ "" ],
                    "patching_rect": [ 854.0, 507.0, 205.0, 20.0 ],
                    "text": "pak 0. 0. 0."
                }
            },
            {
                "box": {
                    "id": "obj-4",
                    "maxclass": "newobj",
                    "numinlets": 2,
                    "numoutlets": 1,
                    "outlettype": [ "float" ],
                    "patching_rect": [ 1040.0, 344.0, 29.5, 20.0 ],
                    "text": "* -1."
                }
            },
            {
                "box": {
                    "id": "obj-1",
                    "maxclass": "newobj",
                    "numinlets": 1,
                    "numoutlets": 3,
                    "outlettype": [ "float", "float", "float" ],
                    "patching_rect": [ 327.0, 73.0, 74.0, 20.0 ],
                    "text": "unpack 0. 0. 0."
                }
            },
            {
                "box": {
                    "id": "obj-2",
                    "maxclass": "newobj",
                    "numinlets": 1,
                    "numoutlets": 1,
                    "outlettype": [ "" ],
                    "patching_rect": [ 327.0, 43.0, 93.0, 20.0 ],
                    "text": "loadmess #1 #2 #3"
                }
            },
            {
                "box": {
                    "id": "obj-25",
                    "maxclass": "message",
                    "numinlets": 2,
                    "numoutlets": 1,
                    "outlettype": [ "" ],
                    "patching_rect": [ 265.5, 579.0, 52.0, 20.0 ],
                    "text": "enable $1"
                }
            },
            {
                "box": {
                    "id": "obj-22",
                    "maxclass": "newobj",
                    "numinlets": 0,
                    "numoutlets": 1,
                    "outlettype": [ "" ],
                    "patching_rect": [ 265.5, 550.0, 62.0, 20.0 ],
                    "text": "r legend-tog"
                }
            },
            {
                "box": {
                    "id": "obj-21",
                    "maxclass": "newobj",
                    "numinlets": 1,
                    "numoutlets": 1,
                    "outlettype": [ "bang" ],
                    "patching_rect": [ 240.0, 747.0, 50.0, 20.0 ],
                    "text": "loadbang"
                }
            },
            {
                "box": {
                    "id": "obj-20",
                    "maxclass": "message",
                    "numinlets": 2,
                    "numoutlets": 1,
                    "outlettype": [ "" ],
                    "patching_rect": [ 240.0, 803.0, 99.0, 20.0 ],
                    "text": "gl_color $1 $2 $3 $4"
                }
            },
            {
                "box": {
                    "id": "obj-18",
                    "maxclass": "message",
                    "numinlets": 2,
                    "numoutlets": 1,
                    "outlettype": [ "" ],
                    "patching_rect": [ 240.0, 776.0, 103.0, 20.0 ],
                    "text": "1. 0.9375 0. 1."
                }
            },
            {
                "box": {
                    "id": "obj-28",
                    "maxclass": "newobj",
                    "numinlets": 1,
                    "numoutlets": 1,
                    "outlettype": [ "" ],
                    "patching_rect": [ 854.0, 211.0, 62.0, 20.0 ],
                    "text": "loadmess 0."
                }
            },
            {
                "box": {
                    "id": "obj-7",
                    "maxclass": "newobj",
                    "numinlets": 3,
                    "numoutlets": 1,
                    "outlettype": [ "" ],
                    "patching_rect": [ 69.0, 256.0, 115.0, 20.0 ],
                    "text": "sprintf text \\\"%i\\, %i\\, %i\\\""
                }
            },
            {
                "box": {
                    "id": "obj-105",
                    "maxclass": "comment",
                    "numinlets": 1,
                    "numoutlets": 0,
                    "patching_rect": [ 1068.0, 277.0, 17.0, 18.0 ],
                    "text": "z"
                }
            },
            {
                "box": {
                    "id": "obj-104",
                    "maxclass": "comment",
                    "numinlets": 1,
                    "numoutlets": 0,
                    "patching_rect": [ 983.0, 274.0, 17.0, 18.0 ],
                    "text": "y"
                }
            },
            {
                "box": {
                    "id": "obj-103",
                    "maxclass": "comment",
                    "numinlets": 1,
                    "numoutlets": 0,
                    "patching_rect": [ 877.0, 274.0, 17.0, 18.0 ],
                    "text": "x"
                }
            },
            {
                "box": {
                    "id": "obj-183",
                    "maxclass": "newobj",
                    "numinlets": 1,
                    "numoutlets": 2,
                    "outlettype": [ "bang", "bang" ],
                    "patching_rect": [ 1084.0, 224.0, 29.5, 20.0 ],
                    "text": "t b b"
                }
            },
            {
                "box": {
                    "id": "obj-181",
                    "maxclass": "newobj",
                    "numinlets": 0,
                    "numoutlets": 1,
                    "outlettype": [ "" ],
                    "patching_rect": [ 1084.0, 192.0, 66.0, 20.0 ],
                    "text": "r dimChange"
                }
            },
            {
                "box": {
                    "id": "obj-168",
                    "maxclass": "newobj",
                    "numinlets": 1,
                    "numoutlets": 1,
                    "outlettype": [ "" ],
                    "patching_rect": [ 91.0, 526.0, 62.0, 20.0 ],
                    "text": "loadmess 1."
                }
            },
            {
                "box": {
                    "format": 6,
                    "id": "obj-167",
                    "maxclass": "flonum",
                    "numinlets": 1,
                    "numoutlets": 2,
                    "outlettype": [ "", "bang" ],
                    "parameter_enable": 0,
                    "patching_rect": [ 91.0, 555.0, 50.0, 20.0 ]
                }
            },
            {
                "box": {
                    "id": "obj-165",
                    "maxclass": "newobj",
                    "numinlets": 3,
                    "numoutlets": 1,
                    "outlettype": [ "" ],
                    "patching_rect": [ 91.0, 600.0, 105.0, 20.0 ],
                    "text": "sprintf scale %f %f %f"
                }
            },
            {
                "box": {
                    "id": "obj-163",
                    "maxclass": "newobj",
                    "numinlets": 1,
                    "numoutlets": 2,
                    "outlettype": [ "float", "bang" ],
                    "patching_rect": [ 1040.0, 376.0, 29.5, 20.0 ],
                    "text": "t f b"
                }
            },
            {
                "box": {
                    "format": 6,
                    "id": "obj-164",
                    "maxclass": "flonum",
                    "numinlets": 1,
                    "numoutlets": 2,
                    "outlettype": [ "", "bang" ],
                    "parameter_enable": 0,
                    "patching_rect": [ 1040.0, 297.0, 50.0, 20.0 ]
                }
            },
            {
                "box": {
                    "id": "obj-161",
                    "maxclass": "newobj",
                    "numinlets": 1,
                    "numoutlets": 2,
                    "outlettype": [ "float", "bang" ],
                    "patching_rect": [ 948.0, 344.0, 29.5, 20.0 ],
                    "text": "t f b"
                }
            },
            {
                "box": {
                    "format": 6,
                    "id": "obj-162",
                    "maxclass": "flonum",
                    "numinlets": 1,
                    "numoutlets": 2,
                    "outlettype": [ "", "bang" ],
                    "parameter_enable": 0,
                    "patching_rect": [ 948.0, 297.0, 50.0, 20.0 ]
                }
            },
            {
                "box": {
                    "id": "obj-160",
                    "maxclass": "newobj",
                    "numinlets": 1,
                    "numoutlets": 2,
                    "outlettype": [ "float", "bang" ],
                    "patching_rect": [ 854.0, 344.0, 29.5, 20.0 ],
                    "text": "t f b"
                }
            },
            {
                "box": {
                    "id": "obj-157",
                    "maxclass": "newobj",
                    "numinlets": 2,
                    "numoutlets": 1,
                    "outlettype": [ "float" ],
                    "patching_rect": [ 879.0, 392.0, 29.5, 20.0 ],
                    "text": "* -1."
                }
            },
            {
                "box": {
                    "id": "obj-158",
                    "maxclass": "newobj",
                    "numinlets": 1,
                    "numoutlets": 1,
                    "outlettype": [ "" ],
                    "patching_rect": [ 909.0, 344.0, 21.0, 20.0 ],
                    "text": "v x"
                }
            },
            {
                "box": {
                    "id": "obj-159",
                    "maxclass": "newobj",
                    "numinlets": 6,
                    "numoutlets": 1,
                    "outlettype": [ "" ],
                    "patching_rect": [ 854.0, 439.0, 80.0, 20.0 ],
                    "text": "scale -1. 1. 0. 1."
                }
            },
            {
                "box": {
                    "id": "obj-154",
                    "maxclass": "newobj",
                    "numinlets": 2,
                    "numoutlets": 1,
                    "outlettype": [ "float" ],
                    "patching_rect": [ 973.0, 392.0, 29.5, 20.0 ],
                    "text": "* -1."
                }
            },
            {
                "box": {
                    "id": "obj-155",
                    "maxclass": "newobj",
                    "numinlets": 1,
                    "numoutlets": 1,
                    "outlettype": [ "" ],
                    "patching_rect": [ 1003.0, 344.0, 21.0, 20.0 ],
                    "text": "v y"
                }
            },
            {
                "box": {
                    "id": "obj-156",
                    "maxclass": "newobj",
                    "numinlets": 6,
                    "numoutlets": 1,
                    "outlettype": [ "" ],
                    "patching_rect": [ 948.0, 439.0, 80.0, 20.0 ],
                    "text": "scale -1. 1. 0. 1."
                }
            },
            {
                "box": {
                    "id": "obj-153",
                    "maxclass": "newobj",
                    "numinlets": 2,
                    "numoutlets": 1,
                    "outlettype": [ "float" ],
                    "patching_rect": [ 1071.0, 404.0, 29.5, 20.0 ],
                    "text": "* -1."
                }
            },
            {
                "box": {
                    "id": "obj-150",
                    "maxclass": "newobj",
                    "numinlets": 1,
                    "numoutlets": 1,
                    "outlettype": [ "" ],
                    "patching_rect": [ 1098.0, 344.0, 21.0, 20.0 ],
                    "text": "v z"
                }
            },
            {
                "box": {
                    "id": "obj-138",
                    "maxclass": "newobj",
                    "numinlets": 6,
                    "numoutlets": 1,
                    "outlettype": [ "" ],
                    "patching_rect": [ 1040.0, 439.0, 91.5, 20.0 ],
                    "text": "scale -1. 1. 0. 1."
                }
            },
            {
                "box": {
                    "format": 6,
                    "id": "obj-135",
                    "maxclass": "flonum",
                    "numinlets": 1,
                    "numoutlets": 2,
                    "outlettype": [ "", "bang" ],
                    "parameter_enable": 0,
                    "patching_rect": [ 854.0, 297.0, 50.0, 20.0 ]
                }
            },
            {
                "box": {
                    "id": "obj-123",
                    "maxclass": "newobj",
                    "numinlets": 3,
                    "numoutlets": 1,
                    "outlettype": [ "" ],
                    "patching_rect": [ 513.0, 676.0, 116.0, 20.0 ],
                    "text": "sprintf position %f %f %f"
                }
            },
            {
                "box": {
                    "fontname": "Arial",
                    "fontsize": 13.0,
                    "id": "obj-5",
                    "maxclass": "newobj",
                    "numinlets": 1,
                    "numoutlets": 2,
                    "outlettype": [ "", "" ],
                    "patching_rect": [ 38.0, 745.0, 146.0, 23.0 ],
                    "text": "jit.gl.text2d @antialias 1"
                }
            }
        ],
        "lines": [
            {
                "patchline": {
                    "destination": [ "obj-3", 0 ],
                    "source": [ "obj-1", 0 ]
                }
            },
            {
                "patchline": {
                    "destination": [ "obj-8", 0 ],
                    "source": [ "obj-1", 1 ]
                }
            },
            {
                "patchline": {
                    "destination": [ "obj-9", 0 ],
                    "source": [ "obj-1", 2 ]
                }
            },
            {
                "patchline": {
                    "destination": [ "obj-7", 0 ],
                    "source": [ "obj-12", 0 ]
                }
            },
            {
                "patchline": {
                    "destination": [ "obj-7", 2 ],
                    "source": [ "obj-121", 0 ]
                }
            },
            {
                "patchline": {
                    "destination": [ "obj-5", 0 ],
                    "source": [ "obj-123", 0 ]
                }
            },
            {
                "patchline": {
                    "destination": [ "obj-7", 1 ],
                    "source": [ "obj-124", 0 ]
                }
            },
            {
                "patchline": {
                    "destination": [ "obj-7", 0 ],
                    "source": [ "obj-125", 0 ]
                }
            },
            {
                "patchline": {
                    "destination": [ "obj-7", 1 ],
                    "source": [ "obj-13", 0 ]
                }
            },
            {
                "patchline": {
                    "destination": [ "obj-160", 0 ],
                    "source": [ "obj-135", 0 ]
                }
            },
            {
                "patchline": {
                    "destination": [ "obj-6", 2 ],
                    "source": [ "obj-138", 0 ]
                }
            },
            {
                "patchline": {
                    "destination": [ "obj-7", 2 ],
                    "source": [ "obj-14", 0 ]
                }
            },
            {
                "patchline": {
                    "destination": [ "obj-2", 0 ],
                    "source": [ "obj-15", 0 ]
                }
            },
            {
                "patchline": {
                    "destination": [ "obj-138", 4 ],
                    "order": 0,
                    "source": [ "obj-150", 0 ]
                }
            },
            {
                "patchline": {
                    "destination": [ "obj-153", 0 ],
                    "order": 1,
                    "source": [ "obj-150", 0 ]
                }
            },
            {
                "patchline": {
                    "destination": [ "obj-138", 3 ],
                    "source": [ "obj-153", 0 ]
                }
            },
            {
                "patchline": {
                    "destination": [ "obj-156", 3 ],
                    "source": [ "obj-154", 0 ]
                }
            },
            {
                "patchline": {
                    "destination": [ "obj-154", 0 ],
                    "order": 1,
                    "source": [ "obj-155", 0 ]
                }
            },
            {
                "patchline": {
                    "destination": [ "obj-156", 4 ],
                    "order": 0,
                    "source": [ "obj-155", 0 ]
                }
            },
            {
                "patchline": {
                    "destination": [ "obj-6", 1 ],
                    "source": [ "obj-156", 0 ]
                }
            },
            {
                "patchline": {
                    "destination": [ "obj-159", 3 ],
                    "source": [ "obj-157", 0 ]
                }
            },
            {
                "patchline": {
                    "destination": [ "obj-157", 0 ],
                    "order": 1,
                    "source": [ "obj-158", 0 ]
                }
            },
            {
                "patchline": {
                    "destination": [ "obj-159", 4 ],
                    "order": 0,
                    "source": [ "obj-158", 0 ]
                }
            },
            {
                "patchline": {
                    "destination": [ "obj-6", 0 ],
                    "source": [ "obj-159", 0 ]
                }
            },
            {
                "patchline": {
                    "destination": [ "obj-34", 0 ],
                    "source": [ "obj-16", 0 ]
                }
            },
            {
                "patchline": {
                    "destination": [ "obj-158", 0 ],
                    "source": [ "obj-160", 1 ]
                }
            },
            {
                "patchline": {
                    "destination": [ "obj-159", 0 ],
                    "source": [ "obj-160", 0 ]
                }
            },
            {
                "patchline": {
                    "destination": [ "obj-155", 0 ],
                    "source": [ "obj-161", 1 ]
                }
            },
            {
                "patchline": {
                    "destination": [ "obj-156", 0 ],
                    "source": [ "obj-161", 0 ]
                }
            },
            {
                "patchline": {
                    "destination": [ "obj-161", 0 ],
                    "source": [ "obj-162", 0 ]
                }
            },
            {
                "patchline": {
                    "destination": [ "obj-138", 0 ],
                    "source": [ "obj-163", 0 ]
                }
            },
            {
                "patchline": {
                    "destination": [ "obj-150", 0 ],
                    "source": [ "obj-163", 1 ]
                }
            },
            {
                "patchline": {
                    "destination": [ "obj-4", 0 ],
                    "source": [ "obj-164", 0 ]
                }
            },
            {
                "patchline": {
                    "destination": [ "obj-5", 0 ],
                    "source": [ "obj-165", 0 ]
                }
            },
            {
                "patchline": {
                    "destination": [ "obj-165", 2 ],
                    "order": 0,
                    "source": [ "obj-167", 0 ]
                }
            },
            {
                "patchline": {
                    "destination": [ "obj-165", 1 ],
                    "order": 1,
                    "source": [ "obj-167", 0 ]
                }
            },
            {
                "patchline": {
                    "destination": [ "obj-165", 0 ],
                    "order": 2,
                    "source": [ "obj-167", 0 ]
                }
            },
            {
                "patchline": {
                    "destination": [ "obj-167", 0 ],
                    "source": [ "obj-168", 0 ]
                }
            },
            {
                "patchline": {
                    "destination": [ "obj-33", 0 ],
                    "source": [ "obj-17", 0 ]
                }
            },
            {
                "patchline": {
                    "destination": [ "obj-20", 0 ],
                    "source": [ "obj-18", 0 ]
                }
            },
            {
                "patchline": {
                    "destination": [ "obj-183", 0 ],
                    "source": [ "obj-181", 0 ]
                }
            },
            {
                "patchline": {
                    "destination": [ "obj-135", 0 ],
                    "midpoints": [ 1093.5, 264.0, 869.5, 264.0, 869.5, 297.0, 863.5, 297.0 ],
                    "order": 2,
                    "source": [ "obj-183", 0 ]
                }
            },
            {
                "patchline": {
                    "destination": [ "obj-150", 0 ],
                    "midpoints": [ 1104.0, 330.0, 1107.5, 330.0 ],
                    "order": 0,
                    "source": [ "obj-183", 1 ]
                }
            },
            {
                "patchline": {
                    "destination": [ "obj-155", 0 ],
                    "midpoints": [ 1104.0, 270.0, 1012.5, 270.0 ],
                    "order": 1,
                    "source": [ "obj-183", 1 ]
                }
            },
            {
                "patchline": {
                    "destination": [ "obj-158", 0 ],
                    "midpoints": [ 1104.0, 264.0, 918.5, 264.0 ],
                    "order": 2,
                    "source": [ "obj-183", 1 ]
                }
            },
            {
                "patchline": {
                    "destination": [ "obj-162", 0 ],
                    "midpoints": [ 1093.5, 264.0, 957.5, 264.0 ],
                    "order": 1,
                    "source": [ "obj-183", 0 ]
                }
            },
            {
                "patchline": {
                    "destination": [ "obj-164", 0 ],
                    "midpoints": [ 1093.5, 270.0, 1049.5, 270.0 ],
                    "order": 0,
                    "source": [ "obj-183", 0 ]
                }
            },
            {
                "patchline": {
                    "destination": [ "obj-35", 0 ],
                    "source": [ "obj-19", 0 ]
                }
            },
            {
                "patchline": {
                    "destination": [ "obj-1", 0 ],
                    "source": [ "obj-2", 0 ]
                }
            },
            {
                "patchline": {
                    "destination": [ "obj-5", 0 ],
                    "source": [ "obj-20", 0 ]
                }
            },
            {
                "patchline": {
                    "destination": [ "obj-18", 0 ],
                    "source": [ "obj-21", 0 ]
                }
            },
            {
                "patchline": {
                    "destination": [ "obj-25", 0 ],
                    "source": [ "obj-22", 0 ]
                }
            },
            {
                "patchline": {
                    "destination": [ "obj-16", 0 ],
                    "order": 2,
                    "source": [ "obj-24", 0 ]
                }
            },
            {
                "patchline": {
                    "destination": [ "obj-17", 0 ],
                    "order": 1,
                    "source": [ "obj-24", 0 ]
                }
            },
            {
                "patchline": {
                    "destination": [ "obj-19", 0 ],
                    "order": 0,
                    "source": [ "obj-24", 0 ]
                }
            },
            {
                "patchline": {
                    "destination": [ "obj-5", 0 ],
                    "source": [ "obj-25", 0 ]
                }
            },
            {
                "patchline": {
                    "destination": [ "obj-135", 0 ],
                    "order": 2,
                    "source": [ "obj-28", 0 ]
                }
            },
            {
                "patchline": {
                    "destination": [ "obj-162", 0 ],
                    "order": 1,
                    "source": [ "obj-28", 0 ]
                }
            },
            {
                "patchline": {
                    "destination": [ "obj-164", 0 ],
                    "order": 0,
                    "source": [ "obj-28", 0 ]
                }
            },
            {
                "patchline": {
                    "destination": [ "obj-12", 0 ],
                    "source": [ "obj-3", 1 ]
                }
            },
            {
                "patchline": {
                    "destination": [ "obj-125", 0 ],
                    "source": [ "obj-3", 0 ]
                }
            },
            {
                "patchline": {
                    "destination": [ "obj-38", 0 ],
                    "source": [ "obj-30", 0 ]
                }
            },
            {
                "patchline": {
                    "destination": [ "obj-39", 0 ],
                    "source": [ "obj-31", 0 ]
                }
            },
            {
                "patchline": {
                    "destination": [ "obj-123", 0 ],
                    "source": [ "obj-32", 0 ]
                }
            },
            {
                "patchline": {
                    "destination": [ "obj-32", 0 ],
                    "source": [ "obj-33", 0 ]
                }
            },
            {
                "patchline": {
                    "destination": [ "obj-30", 0 ],
                    "source": [ "obj-34", 0 ]
                }
            },
            {
                "patchline": {
                    "destination": [ "obj-31", 0 ],
                    "source": [ "obj-35", 0 ]
                }
            },
            {
                "patchline": {
                    "destination": [ "obj-123", 0 ],
                    "source": [ "obj-37", 0 ]
                }
            },
            {
                "patchline": {
                    "destination": [ "obj-123", 2 ],
                    "source": [ "obj-38", 1 ]
                }
            },
            {
                "patchline": {
                    "destination": [ "obj-123", 0 ],
                    "source": [ "obj-38", 0 ]
                }
            },
            {
                "patchline": {
                    "destination": [ "obj-123", 1 ],
                    "source": [ "obj-39", 1 ]
                }
            },
            {
                "patchline": {
                    "destination": [ "obj-123", 0 ],
                    "source": [ "obj-39", 0 ]
                }
            },
            {
                "patchline": {
                    "destination": [ "obj-163", 0 ],
                    "source": [ "obj-4", 0 ]
                }
            },
            {
                "patchline": {
                    "destination": [ "obj-24", 0 ],
                    "source": [ "obj-41", 0 ]
                }
            },
            {
                "patchline": {
                    "destination": [ "obj-5", 0 ],
                    "midpoints": [ 78.5, 403.5, 47.5, 403.5 ],
                    "source": [ "obj-7", 0 ]
                }
            },
            {
                "patchline": {
                    "destination": [ "obj-124", 0 ],
                    "source": [ "obj-8", 0 ]
                }
            },
            {
                "patchline": {
                    "destination": [ "obj-13", 0 ],
                    "source": [ "obj-8", 1 ]
                }
            },
            {
                "patchline": {
                    "destination": [ "obj-121", 0 ],
                    "source": [ "obj-9", 0 ]
                }
            },
            {
                "patchline": {
                    "destination": [ "obj-14", 0 ],
                    "source": [ "obj-9", 1 ]
                }
            }
        ]
    }
}