{
    "patcher": {
        "fileversion": 1,
        "appversion": {
            "major": 9,
            "minor": 1,
            "revision": 1,
            "architecture": "x64",
            "modernui": 1
        },
        "classnamespace": "box",
        "rect": [ 425.0, 240.0, 528.0, 545.0 ],
        "default_fontsize": 10.0,
        "subpatcher_template": "bigpatcher",
        "boxes": [
            {
                "box": {
                    "id": "obj-4",
                    "maxclass": "newobj",
                    "numinlets": 2,
                    "numoutlets": 1,
                    "outlettype": [ "float" ],
                    "patching_rect": [ 400.0, 262.0, 29.5, 20.0 ],
                    "text": "* -1."
                }
            },
            {
                "box": {
                    "id": "obj-8",
                    "maxclass": "button",
                    "numinlets": 1,
                    "numoutlets": 1,
                    "outlettype": [ "bang" ],
                    "parameter_enable": 0,
                    "patching_rect": [ 15.5, 35.0, 24.0, 24.0 ]
                }
            },
            {
                "box": {
                    "id": "obj-34",
                    "maxclass": "newobj",
                    "numinlets": 0,
                    "numoutlets": 1,
                    "outlettype": [ "" ],
                    "patching_rect": [ 15.5, 8.0, 75.0, 20.0 ],
                    "text": "r coord-sys-tog"
                }
            },
            {
                "box": {
                    "id": "obj-3",
                    "maxclass": "newobj",
                    "numinlets": 2,
                    "numoutlets": 2,
                    "outlettype": [ "", "" ],
                    "patcher": {
                        "fileversion": 1,
                        "appversion": {
                            "major": 9,
                            "minor": 1,
                            "revision": 1,
                            "architecture": "x64",
                            "modernui": 1
                        },
                        "classnamespace": "box",
                        "rect": [ 54.0, 79.0, 506.0, 352.0 ],
                        "default_fontsize": 10.0,
                        "subpatcher_template": "bigpatcher",
                        "boxes": [
                            {
                                "box": {
                                    "id": "obj-18",
                                    "maxclass": "newobj",
                                    "numinlets": 2,
                                    "numoutlets": 1,
                                    "outlettype": [ "int" ],
                                    "patching_rect": [ 21.0, 78.0, 29.5, 20.0 ],
                                    "text": "+ 1"
                                }
                            },
                            {
                                "box": {
                                    "id": "obj-17",
                                    "maxclass": "comment",
                                    "numinlets": 1,
                                    "numoutlets": 0,
                                    "patching_rect": [ 218.0, 285.0, 51.0, 18.0 ],
                                    "text": "to jitter Z"
                                }
                            },
                            {
                                "box": {
                                    "id": "obj-16",
                                    "maxclass": "comment",
                                    "numinlets": 1,
                                    "numoutlets": 0,
                                    "patching_rect": [ 118.0, 285.0, 51.0, 18.0 ],
                                    "text": "to jitter Y"
                                }
                            },
                            {
                                "box": {
                                    "comment": "",
                                    "id": "obj-14",
                                    "index": 2,
                                    "maxclass": "outlet",
                                    "numinlets": 1,
                                    "numoutlets": 0,
                                    "patching_rect": [ 213.0, 230.0, 30.0, 30.0 ]
                                }
                            },
                            {
                                "box": {
                                    "id": "obj-13",
                                    "linecount": 5,
                                    "maxclass": "comment",
                                    "numinlets": 1,
                                    "numoutlets": 0,
                                    "patching_rect": [ 278.0, 86.0, 150.0, 62.0 ],
                                    "text": "Gate 1 - Jitter orientation - Y as height\n\nGate 2 - Spat orientation - Z as height"
                                }
                            },
                            {
                                "box": {
                                    "comment": "",
                                    "id": "obj-11",
                                    "index": 1,
                                    "maxclass": "outlet",
                                    "numinlets": 1,
                                    "numoutlets": 0,
                                    "patching_rect": [ 139.0, 230.0, 30.0, 30.0 ]
                                }
                            },
                            {
                                "box": {
                                    "id": "obj-10",
                                    "maxclass": "comment",
                                    "numinlets": 1,
                                    "numoutlets": 0,
                                    "patching_rect": [ 267.0, 38.0, 17.0, 18.0 ],
                                    "text": "Z"
                                }
                            },
                            {
                                "box": {
                                    "id": "obj-8",
                                    "maxclass": "comment",
                                    "numinlets": 1,
                                    "numoutlets": 0,
                                    "patching_rect": [ 108.0, 38.0, 17.0, 18.0 ],
                                    "text": "Y"
                                }
                            },
                            {
                                "box": {
                                    "comment": "",
                                    "id": "obj-4",
                                    "index": 2,
                                    "maxclass": "inlet",
                                    "numinlets": 0,
                                    "numoutlets": 1,
                                    "outlettype": [ "float" ],
                                    "patching_rect": [ 224.0, 32.0, 30.0, 30.0 ]
                                }
                            },
                            {
                                "box": {
                                    "comment": "",
                                    "id": "obj-1",
                                    "index": 1,
                                    "maxclass": "inlet",
                                    "numinlets": 0,
                                    "numoutlets": 1,
                                    "outlettype": [ "float" ],
                                    "patching_rect": [ 139.0, 32.0, 30.0, 30.0 ]
                                }
                            },
                            {
                                "box": {
                                    "id": "obj-3",
                                    "maxclass": "newobj",
                                    "numinlets": 2,
                                    "numoutlets": 2,
                                    "outlettype": [ "", "" ],
                                    "patching_rect": [ 213.0, 145.0, 45.0, 20.0 ],
                                    "text": "gate 2 2"
                                }
                            },
                            {
                                "box": {
                                    "id": "obj-34",
                                    "maxclass": "newobj",
                                    "numinlets": 0,
                                    "numoutlets": 1,
                                    "outlettype": [ "" ],
                                    "patching_rect": [ 21.0, 38.0, 75.0, 20.0 ],
                                    "text": "r coord-sys-tog"
                                }
                            },
                            {
                                "box": {
                                    "id": "obj-2",
                                    "maxclass": "newobj",
                                    "numinlets": 2,
                                    "numoutlets": 2,
                                    "outlettype": [ "", "" ],
                                    "patching_rect": [ 139.0, 145.0, 45.0, 20.0 ],
                                    "text": "gate 2 2"
                                }
                            }
                        ],
                        "lines": [
                            {
                                "patchline": {
                                    "destination": [ "obj-2", 1 ],
                                    "source": [ "obj-1", 0 ]
                                }
                            },
                            {
                                "patchline": {
                                    "destination": [ "obj-2", 0 ],
                                    "order": 1,
                                    "source": [ "obj-18", 0 ]
                                }
                            },
                            {
                                "patchline": {
                                    "destination": [ "obj-3", 0 ],
                                    "order": 0,
                                    "source": [ "obj-18", 0 ]
                                }
                            },
                            {
                                "patchline": {
                                    "destination": [ "obj-11", 0 ],
                                    "source": [ "obj-2", 0 ]
                                }
                            },
                            {
                                "patchline": {
                                    "destination": [ "obj-14", 0 ],
                                    "source": [ "obj-2", 1 ]
                                }
                            },
                            {
                                "patchline": {
                                    "destination": [ "obj-11", 0 ],
                                    "source": [ "obj-3", 1 ]
                                }
                            },
                            {
                                "patchline": {
                                    "destination": [ "obj-14", 0 ],
                                    "source": [ "obj-3", 0 ]
                                }
                            },
                            {
                                "patchline": {
                                    "destination": [ "obj-18", 0 ],
                                    "source": [ "obj-34", 0 ]
                                }
                            },
                            {
                                "patchline": {
                                    "destination": [ "obj-3", 1 ],
                                    "source": [ "obj-4", 0 ]
                                }
                            }
                        ],
                        "bgcolor": [ 1.0, 1.0, 1.0, 1.0 ]
                    },
                    "patching_rect": [ 219.0, 68.0, 105.0, 20.0 ],
                    "saved_object_attributes": {
                        "fontsize": 10.0,
                        "locked_bgcolor": [ 1.0, 1.0, 1.0, 1.0 ]
                    },
                    "text": "p coord-system-gates"
                }
            },
            {
                "box": {
                    "id": "obj-1",
                    "maxclass": "newobj",
                    "numinlets": 1,
                    "numoutlets": 3,
                    "outlettype": [ "float", "float", "float" ],
                    "patching_rect": [ 171.0, 37.0, 74.0, 20.0 ],
                    "text": "unpack 0. 0. 0."
                }
            },
            {
                "box": {
                    "id": "obj-2",
                    "maxclass": "newobj",
                    "numinlets": 1,
                    "numoutlets": 1,
                    "outlettype": [ "" ],
                    "patching_rect": [ 171.0, 8.0, 93.0, 20.0 ],
                    "text": "loadmess #1 #2 #3"
                }
            },
            {
                "box": {
                    "id": "obj-25",
                    "maxclass": "message",
                    "numinlets": 2,
                    "numoutlets": 1,
                    "outlettype": [ "" ],
                    "patching_rect": [ 214.0, 457.0, 52.0, 20.0 ],
                    "text": "enable $1"
                }
            },
            {
                "box": {
                    "id": "obj-22",
                    "maxclass": "newobj",
                    "numinlets": 0,
                    "numoutlets": 1,
                    "outlettype": [ "" ],
                    "patching_rect": [ 214.0, 428.0, 62.0, 20.0 ],
                    "text": "r legend-tog"
                }
            },
            {
                "box": {
                    "id": "obj-21",
                    "maxclass": "newobj",
                    "numinlets": 1,
                    "numoutlets": 1,
                    "outlettype": [ "bang" ],
                    "patching_rect": [ 15.5, 104.0, 50.0, 20.0 ],
                    "text": "loadbang"
                }
            },
            {
                "box": {
                    "id": "obj-20",
                    "maxclass": "message",
                    "numinlets": 2,
                    "numoutlets": 1,
                    "outlettype": [ "" ],
                    "patching_rect": [ 15.5, 160.0, 99.0, 20.0 ],
                    "text": "gl_color $1 $2 $3 $4"
                }
            },
            {
                "box": {
                    "id": "obj-18",
                    "maxclass": "message",
                    "numinlets": 2,
                    "numoutlets": 1,
                    "outlettype": [ "" ],
                    "patching_rect": [ 15.5, 133.0, 103.0, 20.0 ],
                    "text": "1. 0.9375 0. 1."
                }
            },
            {
                "box": {
                    "id": "obj-28",
                    "maxclass": "newobj",
                    "numinlets": 1,
                    "numoutlets": 1,
                    "outlettype": [ "" ],
                    "patching_rect": [ 214.0, 129.0, 62.0, 20.0 ],
                    "text": "loadmess 0."
                }
            },
            {
                "box": {
                    "id": "obj-7",
                    "maxclass": "newobj",
                    "numinlets": 3,
                    "numoutlets": 1,
                    "outlettype": [ "" ],
                    "patching_rect": [ 171.0, 98.0, 115.0, 20.0 ],
                    "text": "sprintf text \\\"%i\\, %i\\, %i\\\""
                }
            },
            {
                "box": {
                    "id": "obj-10",
                    "maxclass": "comment",
                    "numinlets": 1,
                    "numoutlets": 0,
                    "patching_rect": [ 185.0, 191.5, 27.0, 18.0 ],
                    "text": "Pos"
                }
            },
            {
                "box": {
                    "id": "obj-105",
                    "maxclass": "comment",
                    "numinlets": 1,
                    "numoutlets": 0,
                    "patching_rect": [ 428.375, 195.0, 17.0, 18.0 ],
                    "text": "z"
                }
            },
            {
                "box": {
                    "id": "obj-104",
                    "maxclass": "comment",
                    "numinlets": 1,
                    "numoutlets": 0,
                    "patching_rect": [ 343.375, 191.5, 17.0, 18.0 ],
                    "text": "y"
                }
            },
            {
                "box": {
                    "id": "obj-103",
                    "maxclass": "comment",
                    "numinlets": 1,
                    "numoutlets": 0,
                    "patching_rect": [ 236.5, 191.5, 17.0, 18.0 ],
                    "text": "x"
                }
            },
            {
                "box": {
                    "id": "obj-183",
                    "maxclass": "newobj",
                    "numinlets": 1,
                    "numoutlets": 2,
                    "outlettype": [ "bang", "bang" ],
                    "patching_rect": [ 444.20000000000005, 142.0, 29.5, 20.0 ],
                    "text": "t b b"
                }
            },
            {
                "box": {
                    "id": "obj-181",
                    "maxclass": "newobj",
                    "numinlets": 0,
                    "numoutlets": 1,
                    "outlettype": [ "" ],
                    "patching_rect": [ 444.20000000000005, 110.0, 66.0, 20.0 ],
                    "text": "r dimChange"
                }
            },
            {
                "box": {
                    "id": "obj-168",
                    "maxclass": "newobj",
                    "numinlets": 1,
                    "numoutlets": 1,
                    "outlettype": [ "" ],
                    "patching_rect": [ 103.0, 313.0, 62.0, 20.0 ],
                    "text": "loadmess 1."
                }
            },
            {
                "box": {
                    "format": 6,
                    "id": "obj-167",
                    "maxclass": "flonum",
                    "numinlets": 1,
                    "numoutlets": 2,
                    "outlettype": [ "", "bang" ],
                    "parameter_enable": 0,
                    "patching_rect": [ 103.0, 342.0, 50.0, 20.0 ]
                }
            },
            {
                "box": {
                    "id": "obj-165",
                    "maxclass": "newobj",
                    "numinlets": 3,
                    "numoutlets": 1,
                    "outlettype": [ "" ],
                    "patching_rect": [ 103.0, 387.0, 105.0, 20.0 ],
                    "text": "sprintf scale %f %f %f"
                }
            },
            {
                "box": {
                    "id": "obj-163",
                    "maxclass": "newobj",
                    "numinlets": 1,
                    "numoutlets": 2,
                    "outlettype": [ "float", "bang" ],
                    "patching_rect": [ 400.0, 294.0, 29.5, 20.0 ],
                    "text": "t f b"
                }
            },
            {
                "box": {
                    "format": 6,
                    "id": "obj-164",
                    "maxclass": "flonum",
                    "numinlets": 1,
                    "numoutlets": 2,
                    "outlettype": [ "", "bang" ],
                    "parameter_enable": 0,
                    "patching_rect": [ 400.0, 215.0, 50.0, 20.0 ]
                }
            },
            {
                "box": {
                    "id": "obj-161",
                    "maxclass": "newobj",
                    "numinlets": 1,
                    "numoutlets": 2,
                    "outlettype": [ "float", "bang" ],
                    "patching_rect": [ 308.0, 262.0, 29.5, 20.0 ],
                    "text": "t f b"
                }
            },
            {
                "box": {
                    "format": 6,
                    "id": "obj-162",
                    "maxclass": "flonum",
                    "numinlets": 1,
                    "numoutlets": 2,
                    "outlettype": [ "", "bang" ],
                    "parameter_enable": 0,
                    "patching_rect": [ 308.0, 215.0, 50.0, 20.0 ]
                }
            },
            {
                "box": {
                    "id": "obj-160",
                    "maxclass": "newobj",
                    "numinlets": 1,
                    "numoutlets": 2,
                    "outlettype": [ "float", "bang" ],
                    "patching_rect": [ 214.0, 262.0, 29.5, 20.0 ],
                    "text": "t f b"
                }
            },
            {
                "box": {
                    "id": "obj-157",
                    "maxclass": "newobj",
                    "numinlets": 2,
                    "numoutlets": 1,
                    "outlettype": [ "float" ],
                    "patching_rect": [ 255.20000000000005, 294.0, 29.5, 20.0 ],
                    "text": "* -1."
                }
            },
            {
                "box": {
                    "id": "obj-158",
                    "maxclass": "newobj",
                    "numinlets": 1,
                    "numoutlets": 1,
                    "outlettype": [ "" ],
                    "patching_rect": [ 269.0, 262.0, 21.0, 20.0 ],
                    "text": "v x"
                }
            },
            {
                "box": {
                    "id": "obj-159",
                    "maxclass": "newobj",
                    "numinlets": 6,
                    "numoutlets": 1,
                    "outlettype": [ "" ],
                    "patching_rect": [ 214.0, 323.0, 80.0, 20.0 ],
                    "text": "scale -1. 1. 0. 1."
                }
            },
            {
                "box": {
                    "id": "obj-154",
                    "maxclass": "newobj",
                    "numinlets": 2,
                    "numoutlets": 1,
                    "outlettype": [ "float" ],
                    "patching_rect": [ 349.20000000000005, 294.0, 29.5, 20.0 ],
                    "text": "* -1."
                }
            },
            {
                "box": {
                    "id": "obj-155",
                    "maxclass": "newobj",
                    "numinlets": 1,
                    "numoutlets": 1,
                    "outlettype": [ "" ],
                    "patching_rect": [ 363.0, 262.0, 21.0, 20.0 ],
                    "text": "v y"
                }
            },
            {
                "box": {
                    "id": "obj-156",
                    "maxclass": "newobj",
                    "numinlets": 6,
                    "numoutlets": 1,
                    "outlettype": [ "" ],
                    "patching_rect": [ 308.0, 323.0, 80.0, 20.0 ],
                    "text": "scale -1. 1. 0. 1."
                }
            },
            {
                "box": {
                    "id": "obj-153",
                    "maxclass": "newobj",
                    "numinlets": 2,
                    "numoutlets": 1,
                    "outlettype": [ "float" ],
                    "patching_rect": [ 444.20000000000005, 294.0, 29.5, 20.0 ],
                    "text": "* -1."
                }
            },
            {
                "box": {
                    "id": "obj-150",
                    "maxclass": "newobj",
                    "numinlets": 1,
                    "numoutlets": 1,
                    "outlettype": [ "" ],
                    "patching_rect": [ 458.0, 262.0, 21.0, 20.0 ],
                    "text": "v z"
                }
            },
            {
                "box": {
                    "id": "obj-140",
                    "maxclass": "newobj",
                    "numinlets": 1,
                    "numoutlets": 2,
                    "outlettype": [ "bang", "float" ],
                    "patching_rect": [ 400.0, 349.0, 29.5, 20.0 ],
                    "text": "t b f"
                }
            },
            {
                "box": {
                    "id": "obj-139",
                    "maxclass": "newobj",
                    "numinlets": 1,
                    "numoutlets": 2,
                    "outlettype": [ "bang", "float" ],
                    "patching_rect": [ 308.0, 349.0, 29.5, 20.0 ],
                    "text": "t b f"
                }
            },
            {
                "box": {
                    "id": "obj-138",
                    "maxclass": "newobj",
                    "numinlets": 6,
                    "numoutlets": 1,
                    "outlettype": [ "" ],
                    "patching_rect": [ 400.0, 323.0, 91.5, 20.0 ],
                    "text": "scale -1. 1. 0. 1."
                }
            },
            {
                "box": {
                    "format": 6,
                    "id": "obj-135",
                    "maxclass": "flonum",
                    "numinlets": 1,
                    "numoutlets": 2,
                    "outlettype": [ "", "bang" ],
                    "parameter_enable": 0,
                    "patching_rect": [ 214.0, 215.0, 50.0, 20.0 ]
                }
            },
            {
                "box": {
                    "id": "obj-123",
                    "maxclass": "newobj",
                    "numinlets": 3,
                    "numoutlets": 1,
                    "outlettype": [ "" ],
                    "patching_rect": [ 214.0, 387.0, 116.0, 20.0 ],
                    "text": "sprintf position %f %f %f"
                }
            },
            {
                "box": {
                    "fontname": "Arial",
                    "fontsize": 13.0,
                    "id": "obj-5",
                    "maxclass": "newobj",
                    "numinlets": 1,
                    "numoutlets": 2,
                    "outlettype": [ "", "" ],
                    "patching_rect": [ 15.5, 509.0, 71.0, 23.0 ],
                    "text": "jit.gl.text2d"
                }
            }
        ],
        "lines": [
            {
                "patchline": {
                    "destination": [ "obj-135", 0 ],
                    "order": 0,
                    "source": [ "obj-1", 0 ]
                }
            },
            {
                "patchline": {
                    "destination": [ "obj-162", 0 ],
                    "order": 0,
                    "source": [ "obj-1", 1 ]
                }
            },
            {
                "patchline": {
                    "destination": [ "obj-164", 0 ],
                    "order": 0,
                    "source": [ "obj-1", 2 ]
                }
            },
            {
                "patchline": {
                    "destination": [ "obj-3", 1 ],
                    "order": 1,
                    "source": [ "obj-1", 2 ]
                }
            },
            {
                "patchline": {
                    "destination": [ "obj-3", 0 ],
                    "order": 1,
                    "source": [ "obj-1", 1 ]
                }
            },
            {
                "patchline": {
                    "destination": [ "obj-7", 0 ],
                    "order": 1,
                    "source": [ "obj-1", 0 ]
                }
            },
            {
                "patchline": {
                    "destination": [ "obj-5", 0 ],
                    "source": [ "obj-123", 0 ]
                }
            },
            {
                "patchline": {
                    "destination": [ "obj-160", 0 ],
                    "source": [ "obj-135", 0 ]
                }
            },
            {
                "patchline": {
                    "destination": [ "obj-140", 0 ],
                    "source": [ "obj-138", 0 ]
                }
            },
            {
                "patchline": {
                    "destination": [ "obj-123", 1 ],
                    "source": [ "obj-139", 1 ]
                }
            },
            {
                "patchline": {
                    "destination": [ "obj-123", 0 ],
                    "source": [ "obj-139", 0 ]
                }
            },
            {
                "patchline": {
                    "destination": [ "obj-123", 2 ],
                    "source": [ "obj-140", 1 ]
                }
            },
            {
                "patchline": {
                    "destination": [ "obj-123", 0 ],
                    "source": [ "obj-140", 0 ]
                }
            },
            {
                "patchline": {
                    "destination": [ "obj-138", 4 ],
                    "order": 0,
                    "source": [ "obj-150", 0 ]
                }
            },
            {
                "patchline": {
                    "destination": [ "obj-153", 0 ],
                    "order": 1,
                    "source": [ "obj-150", 0 ]
                }
            },
            {
                "patchline": {
                    "destination": [ "obj-138", 3 ],
                    "source": [ "obj-153", 0 ]
                }
            },
            {
                "patchline": {
                    "destination": [ "obj-156", 3 ],
                    "source": [ "obj-154", 0 ]
                }
            },
            {
                "patchline": {
                    "destination": [ "obj-154", 0 ],
                    "order": 1,
                    "source": [ "obj-155", 0 ]
                }
            },
            {
                "patchline": {
                    "destination": [ "obj-156", 4 ],
                    "order": 0,
                    "source": [ "obj-155", 0 ]
                }
            },
            {
                "patchline": {
                    "destination": [ "obj-139", 0 ],
                    "source": [ "obj-156", 0 ]
                }
            },
            {
                "patchline": {
                    "destination": [ "obj-159", 3 ],
                    "source": [ "obj-157", 0 ]
                }
            },
            {
                "patchline": {
                    "destination": [ "obj-157", 0 ],
                    "order": 1,
                    "source": [ "obj-158", 0 ]
                }
            },
            {
                "patchline": {
                    "destination": [ "obj-159", 4 ],
                    "order": 0,
                    "source": [ "obj-158", 0 ]
                }
            },
            {
                "patchline": {
                    "destination": [ "obj-123", 0 ],
                    "source": [ "obj-159", 0 ]
                }
            },
            {
                "patchline": {
                    "destination": [ "obj-158", 0 ],
                    "source": [ "obj-160", 1 ]
                }
            },
            {
                "patchline": {
                    "destination": [ "obj-159", 0 ],
                    "source": [ "obj-160", 0 ]
                }
            },
            {
                "patchline": {
                    "destination": [ "obj-155", 0 ],
                    "source": [ "obj-161", 1 ]
                }
            },
            {
                "patchline": {
                    "destination": [ "obj-156", 0 ],
                    "source": [ "obj-161", 0 ]
                }
            },
            {
                "patchline": {
                    "destination": [ "obj-161", 0 ],
                    "source": [ "obj-162", 0 ]
                }
            },
            {
                "patchline": {
                    "destination": [ "obj-138", 0 ],
                    "source": [ "obj-163", 0 ]
                }
            },
            {
                "patchline": {
                    "destination": [ "obj-150", 0 ],
                    "source": [ "obj-163", 1 ]
                }
            },
            {
                "patchline": {
                    "destination": [ "obj-4", 0 ],
                    "source": [ "obj-164", 0 ]
                }
            },
            {
                "patchline": {
                    "destination": [ "obj-5", 0 ],
                    "source": [ "obj-165", 0 ]
                }
            },
            {
                "patchline": {
                    "destination": [ "obj-165", 2 ],
                    "order": 0,
                    "source": [ "obj-167", 0 ]
                }
            },
            {
                "patchline": {
                    "destination": [ "obj-165", 1 ],
                    "order": 1,
                    "source": [ "obj-167", 0 ]
                }
            },
            {
                "patchline": {
                    "destination": [ "obj-165", 0 ],
                    "order": 2,
                    "source": [ "obj-167", 0 ]
                }
            },
            {
                "patchline": {
                    "destination": [ "obj-167", 0 ],
                    "source": [ "obj-168", 0 ]
                }
            },
            {
                "patchline": {
                    "destination": [ "obj-20", 0 ],
                    "source": [ "obj-18", 0 ]
                }
            },
            {
                "patchline": {
                    "destination": [ "obj-183", 0 ],
                    "source": [ "obj-181", 0 ]
                }
            },
            {
                "patchline": {
                    "destination": [ "obj-135", 0 ],
                    "midpoints": [ 453.70000000000005, 182.0, 230.0, 182.0, 230.0, 215.0, 223.5, 215.0 ],
                    "order": 2,
                    "source": [ "obj-183", 0 ]
                }
            },
            {
                "patchline": {
                    "destination": [ "obj-150", 0 ],
                    "midpoints": [ 464.20000000000005, 248.0, 467.5, 248.0 ],
                    "order": 0,
                    "source": [ "obj-183", 1 ]
                }
            },
            {
                "patchline": {
                    "destination": [ "obj-155", 0 ],
                    "midpoints": [ 464.20000000000005, 188.0, 372.5, 188.0 ],
                    "order": 1,
                    "source": [ "obj-183", 1 ]
                }
            },
            {
                "patchline": {
                    "destination": [ "obj-158", 0 ],
                    "midpoints": [ 464.20000000000005, 182.0, 278.5, 182.0 ],
                    "order": 2,
                    "source": [ "obj-183", 1 ]
                }
            },
            {
                "patchline": {
                    "destination": [ "obj-162", 0 ],
                    "midpoints": [ 453.70000000000005, 182.0, 317.5, 182.0 ],
                    "order": 1,
                    "source": [ "obj-183", 0 ]
                }
            },
            {
                "patchline": {
                    "destination": [ "obj-164", 0 ],
                    "midpoints": [ 453.70000000000005, 188.0, 409.5, 188.0 ],
                    "order": 0,
                    "source": [ "obj-183", 0 ]
                }
            },
            {
                "patchline": {
                    "destination": [ "obj-1", 0 ],
                    "source": [ "obj-2", 0 ]
                }
            },
            {
                "patchline": {
                    "destination": [ "obj-5", 0 ],
                    "source": [ "obj-20", 0 ]
                }
            },
            {
                "patchline": {
                    "destination": [ "obj-18", 0 ],
                    "source": [ "obj-21", 0 ]
                }
            },
            {
                "patchline": {
                    "destination": [ "obj-25", 0 ],
                    "source": [ "obj-22", 0 ]
                }
            },
            {
                "patchline": {
                    "destination": [ "obj-5", 0 ],
                    "source": [ "obj-25", 0 ]
                }
            },
            {
                "patchline": {
                    "destination": [ "obj-135", 0 ],
                    "order": 2,
                    "source": [ "obj-28", 0 ]
                }
            },
            {
                "patchline": {
                    "destination": [ "obj-162", 0 ],
                    "order": 1,
                    "source": [ "obj-28", 0 ]
                }
            },
            {
                "patchline": {
                    "destination": [ "obj-164", 0 ],
                    "order": 0,
                    "source": [ "obj-28", 0 ]
                }
            },
            {
                "patchline": {
                    "destination": [ "obj-7", 2 ],
                    "source": [ "obj-3", 1 ]
                }
            },
            {
                "patchline": {
                    "destination": [ "obj-7", 1 ],
                    "source": [ "obj-3", 0 ]
                }
            },
            {
                "patchline": {
                    "destination": [ "obj-8", 0 ],
                    "source": [ "obj-34", 0 ]
                }
            },
            {
                "patchline": {
                    "destination": [ "obj-163", 0 ],
                    "source": [ "obj-4", 0 ]
                }
            },
            {
                "patchline": {
                    "destination": [ "obj-5", 0 ],
                    "midpoints": [ 180.5, 268.5, 25.0, 268.5 ],
                    "source": [ "obj-7", 0 ]
                }
            },
            {
                "patchline": {
                    "destination": [ "obj-2", 0 ],
                    "source": [ "obj-8", 0 ]
                }
            }
        ]
    }
}