{
    "patcher": {
        "fileversion": 1,
        "appversion": {
            "major": 9,
            "minor": 1,
            "revision": 1,
            "architecture": "x64",
            "modernui": 1
        },
        "classnamespace": "box",
        "rect": [ 59.0, 106.0, 673.0, 787.0 ],
        "boxes": [
            {
                "box": {
                    "id": "obj-100",
                    "maxclass": "newobj",
                    "numinlets": 6,
                    "numoutlets": 1,
                    "outlettype": [ "" ],
                    "patching_rect": [ 258.0, 471.0, 97.0, 22.0 ],
                    "text": "scale 0. 1. 0 127"
                }
            },
            {
                "box": {
                    "id": "obj-99",
                    "maxclass": "newobj",
                    "numinlets": 6,
                    "numoutlets": 1,
                    "outlettype": [ "" ],
                    "patching_rect": [ 483.0, 256.0, 97.0, 22.0 ],
                    "text": "scale 0 127 0. 1."
                }
            },
            {
                "box": {
                    "id": "obj-98",
                    "maxclass": "slider",
                    "numinlets": 1,
                    "numoutlets": 1,
                    "outlettype": [ "" ],
                    "parameter_enable": 0,
                    "patching_rect": [ 483.0, 94.0, 20.0, 140.0 ]
                }
            },
            {
                "box": {
                    "id": "obj-96",
                    "maxclass": "slider",
                    "numinlets": 1,
                    "numoutlets": 1,
                    "outlettype": [ "" ],
                    "parameter_enable": 0,
                    "patching_rect": [ 360.5, 548.0, 20.0, 140.0 ]
                }
            },
            {
                "box": {
                    "id": "obj-94",
                    "maxclass": "slider",
                    "numinlets": 1,
                    "numoutlets": 1,
                    "outlettype": [ "" ],
                    "parameter_enable": 0,
                    "patching_rect": [ 321.5, 548.0, 20.0, 140.0 ]
                }
            },
            {
                "box": {
                    "id": "obj-73",
                    "maxclass": "slider",
                    "numinlets": 1,
                    "numoutlets": 1,
                    "outlettype": [ "" ],
                    "parameter_enable": 0,
                    "patching_rect": [ 264.0, 502.0, 20.0, 140.0 ]
                }
            },
            {
                "box": {
                    "id": "obj-68",
                    "maxclass": "message",
                    "numinlets": 2,
                    "numoutlets": 1,
                    "outlettype": [ "" ],
                    "patching_rect": [ 447.0, 515.0, 34.0, 22.0 ],
                    "text": "1."
                }
            },
            {
                "box": {
                    "id": "obj-54",
                    "maxclass": "message",
                    "numinlets": 2,
                    "numoutlets": 1,
                    "outlettype": [ "" ],
                    "patching_rect": [ 384.0, 508.0, 50.0, 22.0 ],
                    "text": "1."
                }
            },
            {
                "box": {
                    "id": "obj-39",
                    "maxclass": "message",
                    "numinlets": 2,
                    "numoutlets": 1,
                    "outlettype": [ "" ],
                    "patching_rect": [ 328.0, 507.0, 50.0, 22.0 ],
                    "text": "1."
                }
            },
            {
                "box": {
                    "id": "obj-21",
                    "maxclass": "newobj",
                    "numinlets": 1,
                    "numoutlets": 3,
                    "outlettype": [ "float", "float", "float" ],
                    "patching_rect": [ 327.0, 428.0, 87.0, 22.0 ],
                    "text": "unpack 0. 0. 0."
                }
            },
            {
                "box": {
                    "id": "obj-6",
                    "linecount": 2,
                    "maxclass": "message",
                    "numinlets": 2,
                    "numoutlets": 1,
                    "outlettype": [ "" ],
                    "patching_rect": [ 35.0, 534.5, 189.0, 35.0 ],
                    "text": "\"mode changed to easeinout_elastic\""
                }
            },
            {
                "box": {
                    "id": "obj-1",
                    "maxclass": "newobj",
                    "numinlets": 1,
                    "numoutlets": 0,
                    "patching_rect": [ 18.0, 483.0, 32.0, 22.0 ],
                    "text": "print"
                }
            },
            {
                "box": {
                    "id": "obj-93",
                    "maxclass": "message",
                    "numinlets": 2,
                    "numoutlets": 1,
                    "outlettype": [ "" ],
                    "patching_rect": [ 9.0, 348.0, 50.0, 22.0 ],
                    "text": "compile"
                }
            },
            {
                "box": {
                    "id": "obj-90",
                    "maxclass": "message",
                    "numinlets": 2,
                    "numoutlets": 1,
                    "outlettype": [ "" ],
                    "patching_rect": [ 202.0, 290.0, 45.0, 22.0 ],
                    "text": "1. 1. 1."
                }
            },
            {
                "box": {
                    "id": "obj-83",
                    "maxclass": "message",
                    "numinlets": 2,
                    "numoutlets": 1,
                    "outlettype": [ "" ],
                    "patching_rect": [ 215.0, 320.0, 45.0, 22.0 ],
                    "text": "0. 0. 0."
                }
            },
            {
                "box": {
                    "id": "obj-72",
                    "maxclass": "comment",
                    "numinlets": 1,
                    "numoutlets": 0,
                    "patching_rect": [ 540.0, 311.0, 87.0, 20.0 ],
                    "text": "time (0.1 - 1.0)"
                }
            },
            {
                "box": {
                    "format": 6,
                    "id": "obj-70",
                    "maxclass": "flonum",
                    "maximum": 1.0,
                    "minimum": 0.0,
                    "numinlets": 1,
                    "numoutlets": 2,
                    "outlettype": [ "", "bang" ],
                    "parameter_enable": 0,
                    "patching_rect": [ 483.0, 310.0, 50.0, 22.0 ]
                }
            },
            {
                "box": {
                    "id": "obj-48",
                    "maxclass": "message",
                    "numinlets": 2,
                    "numoutlets": 1,
                    "outlettype": [ "" ],
                    "patching_rect": [ 64.0, 471.0, 50.0, 22.0 ],
                    "text": "1 1 1"
                }
            },
            {
                "box": {
                    "id": "obj-41",
                    "maxclass": "newobj",
                    "numinlets": 1,
                    "numoutlets": 1,
                    "outlettype": [ "" ],
                    "patching_rect": [ 91.0, 264.0, 102.0, 22.0 ],
                    "text": "prepend setMode"
                }
            },
            {
                "box": {
                    "filename": "interpolator.js",
                    "id": "obj-32",
                    "maxclass": "newobj",
                    "numinlets": 3,
                    "numoutlets": 2,
                    "outlettype": [ "", "" ],
                    "patching_rect": [ 83.0, 405.0, 85.0, 22.0 ],
                    "saved_object_attributes": {
                        "parameter_enable": 0
                    },
                    "text": "v8 interpolator",
                    "textfile": {
                        "filename": "interpolator.js",
                        "flags": 0,
                        "embed": 0,
                        "autowatch": 1
                    }
                }
            },
            {
                "box": {
                    "id": "obj-13",
                    "items": [ "linear", ",", "cosine", ",", "easein", ",", "easeout", ",", "easeinout", ",", "easein_cubic", ",", "easeout_cubic", ",", "easeinout_cubic", ",", "easein_quart", ",", "easeout_quart", ",", "easeinout_quart", ",", "easein_quint", ",", "easeout_quint", ",", "easeinout_quint", ",", "easein_expo", ",", "easeout_expo", ",", "easeinout_expo", ",", "easein_circ", ",", "easeout_circ", ",", "easeinout_circ", ",", "easein_back", ",", "easeout_back", ",", "easeinout_back", ",", "bounce", ",", "easein_elastic", ",", "easeout_elastic", ",", "easeinout_elastic", ",", "spring" ],
                    "maxclass": "umenu",
                    "numinlets": 1,
                    "numoutlets": 3,
                    "outlettype": [ "int", "", "" ],
                    "parameter_enable": 0,
                    "patching_rect": [ 74.0, 230.0, 100.0, 22.0 ]
                }
            },
            {
                "box": {
                    "id": "obj-12",
                    "maxclass": "comment",
                    "numinlets": 1,
                    "numoutlets": 0,
                    "patching_rect": [ 75.0, 210.0, 117.0, 20.0 ],
                    "text": "interpolation method"
                }
            },
            {
                "box": {
                    "id": "obj-7",
                    "maxclass": "comment",
                    "numinlets": 1,
                    "numoutlets": 0,
                    "patching_rect": [ 262.0, 292.0, 99.0, 20.0 ],
                    "text": "movement target"
                }
            }
        ],
        "lines": [
            {
                "patchline": {
                    "destination": [ "obj-73", 0 ],
                    "source": [ "obj-100", 0 ]
                }
            },
            {
                "patchline": {
                    "destination": [ "obj-41", 0 ],
                    "source": [ "obj-13", 1 ]
                }
            },
            {
                "patchline": {
                    "destination": [ "obj-100", 0 ],
                    "order": 1,
                    "source": [ "obj-21", 0 ]
                }
            },
            {
                "patchline": {
                    "destination": [ "obj-39", 1 ],
                    "order": 0,
                    "source": [ "obj-21", 0 ]
                }
            },
            {
                "patchline": {
                    "destination": [ "obj-54", 1 ],
                    "source": [ "obj-21", 1 ]
                }
            },
            {
                "patchline": {
                    "destination": [ "obj-68", 1 ],
                    "source": [ "obj-21", 2 ]
                }
            },
            {
                "patchline": {
                    "destination": [ "obj-1", 0 ],
                    "order": 2,
                    "source": [ "obj-32", 0 ]
                }
            },
            {
                "patchline": {
                    "destination": [ "obj-21", 0 ],
                    "order": 0,
                    "source": [ "obj-32", 0 ]
                }
            },
            {
                "patchline": {
                    "destination": [ "obj-48", 1 ],
                    "order": 1,
                    "source": [ "obj-32", 0 ]
                }
            },
            {
                "patchline": {
                    "destination": [ "obj-6", 1 ],
                    "source": [ "obj-32", 1 ]
                }
            },
            {
                "patchline": {
                    "destination": [ "obj-32", 0 ],
                    "source": [ "obj-41", 0 ]
                }
            },
            {
                "patchline": {
                    "destination": [ "obj-32", 0 ],
                    "source": [ "obj-70", 0 ]
                }
            },
            {
                "patchline": {
                    "destination": [ "obj-32", 1 ],
                    "source": [ "obj-83", 0 ]
                }
            },
            {
                "patchline": {
                    "destination": [ "obj-32", 2 ],
                    "source": [ "obj-90", 0 ]
                }
            },
            {
                "patchline": {
                    "destination": [ "obj-32", 0 ],
                    "source": [ "obj-93", 0 ]
                }
            },
            {
                "patchline": {
                    "destination": [ "obj-99", 0 ],
                    "source": [ "obj-98", 0 ]
                }
            },
            {
                "patchline": {
                    "destination": [ "obj-70", 0 ],
                    "source": [ "obj-99", 0 ]
                }
            }
        ],
        "autosave": 0
    }
}